<svg width="390" height="15" viewBox="0 0 390 15" fill="none" xmlns="http://www.w3.org/2000/svg">
<path d="M7.45801 9.57812V11H0.717773V9.7832L3.95117 6.29004C4.28841 5.90723 4.55501 5.57454 4.75098 5.29199C4.94694 5.00944 5.08594 4.75423 5.16797 4.52637C5.25456 4.29395 5.29785 4.07292 5.29785 3.86328C5.29785 3.55794 5.24316 3.29134 5.13379 3.06348C5.02441 2.83105 4.86491 2.65104 4.65527 2.52344C4.4502 2.39583 4.19727 2.33203 3.89648 2.33203C3.5638 2.33203 3.27897 2.40951 3.04199 2.56445C2.80957 2.71484 2.63184 2.92448 2.50879 3.19336C2.3903 3.46224 2.33105 3.76986 2.33105 4.11621H0.519531C0.519531 3.52832 0.65625 2.99284 0.929688 2.50977C1.20312 2.02214 1.59505 1.63249 2.10547 1.34082C2.61589 1.04915 3.22201 0.90332 3.92383 0.90332C4.60742 0.90332 5.1862 1.01725 5.66016 1.24512C6.13411 1.46842 6.49414 1.78743 6.74023 2.20215C6.98633 2.61686 7.10938 3.11133 7.10938 3.68555C7.10938 4.00456 7.05697 4.31901 6.95215 4.62891C6.84733 4.9388 6.69922 5.24642 6.50781 5.55176C6.32096 5.85254 6.09766 6.15788 5.83789 6.46777C5.57812 6.77767 5.28874 7.0944 4.96973 7.41797L3.02832 9.57812H7.45801ZM15.3193 8.2793C15.3193 8.89909 15.1735 9.42318 14.8818 9.85156C14.5947 10.2754 14.2005 10.5967 13.6992 10.8154C13.2025 11.0296 12.6374 11.1367 12.0039 11.1367C11.375 11.1367 10.8076 11.0296 10.3018 10.8154C9.80046 10.5967 9.40169 10.2754 9.10547 9.85156C8.8138 9.42318 8.66797 8.89909 8.66797 8.2793C8.66797 7.86458 8.75 7.48861 8.91406 7.15137C9.08268 6.81413 9.3151 6.52474 9.61133 6.2832C9.90755 6.03711 10.2585 5.85026 10.6641 5.72266C11.0697 5.59049 11.5117 5.52441 11.9902 5.52441C12.6283 5.52441 13.1979 5.64062 13.6992 5.87305C14.2051 6.10091 14.6016 6.4222 14.8887 6.83691C15.1758 7.24707 15.3193 7.72786 15.3193 8.2793ZM13.501 8.16992C13.501 7.85091 13.4372 7.5752 13.3096 7.34277C13.1865 7.10579 13.0111 6.9235 12.7832 6.7959C12.5553 6.66829 12.291 6.60449 11.9902 6.60449C11.6849 6.60449 11.4183 6.66829 11.1904 6.7959C10.9671 6.9235 10.7917 7.10579 10.6641 7.34277C10.541 7.5752 10.4795 7.85091 10.4795 8.16992C10.4795 8.49349 10.541 8.77148 10.6641 9.00391C10.7917 9.23177 10.9694 9.40723 11.1973 9.53027C11.4251 9.65332 11.694 9.71484 12.0039 9.71484C12.3138 9.71484 12.5804 9.65332 12.8037 9.53027C13.027 9.40723 13.1979 9.23177 13.3164 9.00391C13.4395 8.77148 13.501 8.49349 13.501 8.16992ZM15.1006 3.67188C15.1006 4.17318 14.9684 4.61979 14.7041 5.01172C14.4398 5.39909 14.0729 5.70215 13.6035 5.9209C13.1387 6.13965 12.6055 6.24902 12.0039 6.24902C11.4023 6.24902 10.8646 6.13965 10.3906 5.9209C9.92122 5.70215 9.55208 5.39909 9.2832 5.01172C9.01888 4.61979 8.88672 4.17318 8.88672 3.67188C8.88672 3.07943 9.02116 2.57812 9.29004 2.16797C9.55892 1.75326 9.92578 1.4388 10.3906 1.22461C10.86 1.01042 11.3932 0.90332 11.9902 0.90332C12.5964 0.90332 13.1341 1.01042 13.6035 1.22461C14.0729 1.4388 14.4398 1.75326 14.7041 2.16797C14.9684 2.57812 15.1006 3.07943 15.1006 3.67188ZM13.2959 3.74707C13.2959 3.46452 13.2435 3.21842 13.1387 3.00879C13.0339 2.7946 12.8835 2.62826 12.6875 2.50977C12.4961 2.39128 12.2637 2.33203 11.9902 2.33203C11.7259 2.33203 11.498 2.389 11.3066 2.50293C11.1152 2.61686 10.9671 2.78092 10.8623 2.99512C10.7575 3.20475 10.7051 3.4554 10.7051 3.74707C10.7051 4.03418 10.7575 4.28483 10.8623 4.49902C10.9671 4.71322 11.1152 4.88184 11.3066 5.00488C11.5026 5.12337 11.735 5.18262 12.0039 5.18262C12.2728 5.18262 12.5029 5.12337 12.6943 5.00488C12.8857 4.88184 13.0339 4.71322 13.1387 4.49902C13.2435 4.28483 13.2959 4.03418 13.2959 3.74707ZM16.8848 10.1182C16.8848 9.84473 16.9782 9.61458 17.165 9.42773C17.3519 9.24089 17.6048 9.14746 17.9238 9.14746C18.2428 9.14746 18.4958 9.24089 18.6826 9.42773C18.8695 9.61458 18.9629 9.84473 18.9629 10.1182C18.9629 10.387 18.8695 10.6149 18.6826 10.8018C18.4958 10.984 18.2428 11.0752 17.9238 11.0752C17.6048 11.0752 17.3519 10.984 17.165 10.8018C16.9782 10.6149 16.8848 10.387 16.8848 10.1182ZM27.6035 7.37012V8.79199H20.4326L20.3574 7.69824L24.5752 1.04688H26.0176L24.459 3.69238L22.1963 7.37012H27.6035ZM26.4209 1.04688V11H24.6094V1.04688H26.4209ZM33.3389 1.01953V11H31.5273V3.13184L29.1279 3.9248V2.46191L33.1338 1.01953H33.3389ZM43.292 8.2793C43.292 8.89909 43.1462 9.42318 42.8545 9.85156C42.5674 10.2754 42.1732 10.5967 41.6719 10.8154C41.1751 11.0296 40.61 11.1367 39.9766 11.1367C39.3477 11.1367 38.7803 11.0296 38.2744 10.8154C37.7731 10.5967 37.3743 10.2754 37.0781 9.85156C36.7865 9.42318 36.6406 8.89909 36.6406 8.2793C36.6406 7.86458 36.7227 7.48861 36.8867 7.15137C37.0553 6.81413 37.2878 6.52474 37.584 6.2832C37.8802 6.03711 38.2311 5.85026 38.6367 5.72266C39.0423 5.59049 39.4844 5.52441 39.9629 5.52441C40.6009 5.52441 41.1706 5.64062 41.6719 5.87305C42.1777 6.10091 42.5742 6.4222 42.8613 6.83691C43.1484 7.24707 43.292 7.72786 43.292 8.2793ZM41.4736 8.16992C41.4736 7.85091 41.4098 7.5752 41.2822 7.34277C41.1592 7.10579 40.9837 6.9235 40.7559 6.7959C40.528 6.66829 40.2637 6.60449 39.9629 6.60449C39.6576 6.60449 39.391 6.66829 39.1631 6.7959C38.9398 6.9235 38.7643 7.10579 38.6367 7.34277C38.5137 7.5752 38.4521 7.85091 38.4521 8.16992C38.4521 8.49349 38.5137 8.77148 38.6367 9.00391C38.7643 9.23177 38.9421 9.40723 39.1699 9.53027C39.3978 9.65332 39.6667 9.71484 39.9766 9.71484C40.2865 9.71484 40.5531 9.65332 40.7764 9.53027C40.9997 9.40723 41.1706 9.23177 41.2891 9.00391C41.4121 8.77148 41.4736 8.49349 41.4736 8.16992ZM43.0732 3.67188C43.0732 4.17318 42.9411 4.61979 42.6768 5.01172C42.4124 5.39909 42.0456 5.70215 41.5762 5.9209C41.1113 6.13965 40.5781 6.24902 39.9766 6.24902C39.375 6.24902 38.8372 6.13965 38.3633 5.9209C37.8939 5.70215 37.5247 5.39909 37.2559 5.01172C36.9915 4.61979 36.8594 4.17318 36.8594 3.67188C36.8594 3.07943 36.9938 2.57812 37.2627 2.16797C37.5316 1.75326 37.8984 1.4388 38.3633 1.22461C38.8327 1.01042 39.3659 0.90332 39.9629 0.90332C40.569 0.90332 41.1068 1.01042 41.5762 1.22461C42.0456 1.4388 42.4124 1.75326 42.6768 2.16797C42.9411 2.57812 43.0732 3.07943 43.0732 3.67188ZM41.2686 3.74707C41.2686 3.46452 41.2161 3.21842 41.1113 3.00879C41.0065 2.7946 40.8561 2.62826 40.6602 2.50977C40.4688 2.39128 40.2363 2.33203 39.9629 2.33203C39.6986 2.33203 39.4707 2.389 39.2793 2.50293C39.0879 2.61686 38.9398 2.78092 38.835 2.99512C38.7301 3.20475 38.6777 3.4554 38.6777 3.74707C38.6777 4.03418 38.7301 4.28483 38.835 4.49902C38.9398 4.71322 39.0879 4.88184 39.2793 5.00488C39.4753 5.12337 39.7077 5.18262 39.9766 5.18262C40.2454 5.18262 40.4756 5.12337 40.667 5.00488C40.8584 4.88184 41.0065 4.71322 41.1113 4.49902C41.2161 4.28483 41.2686 4.03418 41.2686 3.74707ZM50.7227 9.63281L52.4453 3.60352H54.332L51.7959 11H50.6475L50.7227 9.63281ZM49.4648 3.60352L51.208 9.64648L51.2695 11H50.1143L47.5713 3.60352H49.4648ZM57.1963 3.60352V11H55.3848V3.60352H57.1963ZM55.2617 1.66895C55.2617 1.40007 55.3529 1.17676 55.5352 0.999023C55.722 0.821289 55.9727 0.732422 56.2871 0.732422C56.6016 0.732422 56.8499 0.821289 57.0322 0.999023C57.2191 1.17676 57.3125 1.40007 57.3125 1.66895C57.3125 1.93327 57.2191 2.1543 57.0322 2.33203C56.8499 2.50977 56.6016 2.59863 56.2871 2.59863C55.9727 2.59863 55.722 2.50977 55.5352 2.33203C55.3529 2.1543 55.2617 1.93327 55.2617 1.66895ZM62.9863 8.97656C62.9863 8.82161 62.9453 8.68262 62.8633 8.55957C62.7812 8.43652 62.6263 8.32487 62.3984 8.22461C62.1751 8.11979 61.847 8.02181 61.4141 7.93066C61.0312 7.84863 60.6781 7.74609 60.3545 7.62305C60.0309 7.5 59.7529 7.35189 59.5205 7.17871C59.2881 7.00098 59.1058 6.79362 58.9736 6.55664C58.846 6.3151 58.7822 6.03711 58.7822 5.72266C58.7822 5.41732 58.8483 5.13021 58.9805 4.86133C59.1126 4.58789 59.304 4.34863 59.5547 4.14355C59.8053 3.93392 60.1107 3.76986 60.4707 3.65137C60.8307 3.52832 61.2363 3.4668 61.6875 3.4668C62.3164 3.4668 62.8564 3.56934 63.3076 3.77441C63.7633 3.97949 64.112 4.26204 64.3535 4.62207C64.5951 4.97754 64.7158 5.37858 64.7158 5.8252H62.9111C62.9111 5.62923 62.8656 5.4515 62.7744 5.29199C62.6878 5.13249 62.5534 5.00488 62.3711 4.90918C62.1888 4.80892 61.9587 4.75879 61.6807 4.75879C61.43 4.75879 61.2181 4.7998 61.0449 4.88184C60.8763 4.96387 60.7487 5.07096 60.6621 5.20312C60.5755 5.33529 60.5322 5.48112 60.5322 5.64062C60.5322 5.75911 60.555 5.86621 60.6006 5.96191C60.6507 6.05306 60.7305 6.13737 60.8398 6.21484C60.9492 6.29232 61.0973 6.36296 61.2842 6.42676C61.4756 6.49056 61.7103 6.55208 61.9883 6.61133C62.5397 6.7207 63.0205 6.86654 63.4307 7.04883C63.8454 7.22656 64.1689 7.46354 64.4014 7.75977C64.6338 8.05599 64.75 8.43424 64.75 8.89453C64.75 9.22266 64.6794 9.52344 64.5381 9.79688C64.3968 10.0658 64.1917 10.3005 63.9229 10.501C63.654 10.7015 63.3327 10.8587 62.959 10.9727C62.5853 11.082 62.1637 11.1367 61.6943 11.1367C61.0153 11.1367 60.4411 11.016 59.9717 10.7744C59.5023 10.5283 59.1468 10.2184 58.9053 9.84473C58.6637 9.46647 58.543 9.07454 58.543 8.66895H60.2725C60.2861 8.95605 60.3636 9.1862 60.5049 9.35938C60.6462 9.53255 60.8239 9.65788 61.0381 9.73535C61.2568 9.80827 61.487 9.84473 61.7285 9.84473C62.002 9.84473 62.2321 9.80827 62.4189 9.73535C62.6058 9.65788 62.7471 9.55534 62.8428 9.42773C62.9385 9.29557 62.9863 9.14518 62.9863 8.97656ZM70.5264 9.24316V3.60352H72.3447V11H70.6357L70.5264 9.24316ZM70.7588 7.71191L71.3193 7.69824C71.3193 8.19499 71.2646 8.65299 71.1553 9.07227C71.0459 9.49154 70.875 9.85612 70.6426 10.166C70.4147 10.4714 70.1253 10.7106 69.7744 10.8838C69.4235 11.0524 69.0088 11.1367 68.5303 11.1367C68.1657 11.1367 67.833 11.0866 67.5322 10.9863C67.2314 10.8815 66.9717 10.7197 66.7529 10.501C66.5387 10.2777 66.3724 9.99284 66.2539 9.64648C66.1354 9.29557 66.0762 8.87402 66.0762 8.38184V3.60352H67.8809V8.39551C67.8809 8.6416 67.9082 8.84668 67.9629 9.01074C68.0221 9.1748 68.1019 9.30924 68.2021 9.41406C68.307 9.51432 68.4277 9.58724 68.5645 9.63281C68.7057 9.67383 68.8561 9.69434 69.0156 9.69434C69.4531 9.69434 69.7972 9.60775 70.0479 9.43457C70.3031 9.25684 70.4854 9.01986 70.5947 8.72363C70.7041 8.42285 70.7588 8.08561 70.7588 7.71191ZM78.0186 9.42773V6.0166C78.0186 5.76595 77.9753 5.54948 77.8887 5.36719C77.8021 5.1849 77.6699 5.04362 77.4922 4.94336C77.3145 4.8431 77.0889 4.79297 76.8154 4.79297C76.5739 4.79297 76.362 4.83398 76.1797 4.91602C76.002 4.99805 75.8652 5.11426 75.7695 5.26465C75.6738 5.41048 75.626 5.5791 75.626 5.77051H73.8145C73.8145 5.46517 73.8874 5.17578 74.0332 4.90234C74.179 4.62435 74.3864 4.37826 74.6553 4.16406C74.9287 3.94531 75.2546 3.77441 75.6328 3.65137C76.0156 3.52832 76.444 3.4668 76.918 3.4668C77.4785 3.4668 77.9775 3.5625 78.415 3.75391C78.8571 3.94076 79.2035 4.22331 79.4541 4.60156C79.7093 4.97982 79.8369 5.45605 79.8369 6.03027V9.25684C79.8369 9.62598 79.8597 9.94271 79.9053 10.207C79.9554 10.4668 80.0283 10.6924 80.124 10.8838V11H78.2852C78.1986 10.8132 78.1325 10.5762 78.0869 10.2891C78.0413 9.9974 78.0186 9.71029 78.0186 9.42773ZM78.2715 6.49512L78.2852 7.56836H77.1436C76.861 7.56836 76.6126 7.59798 76.3984 7.65723C76.1842 7.71191 76.0088 7.79395 75.8721 7.90332C75.7354 8.00814 75.6328 8.13574 75.5645 8.28613C75.4961 8.43197 75.4619 8.59831 75.4619 8.78516C75.4619 8.96745 75.5029 9.13151 75.585 9.27734C75.6715 9.42318 75.7946 9.53939 75.9541 9.62598C76.1182 9.70801 76.3096 9.74902 76.5283 9.74902C76.8473 9.74902 77.1253 9.68522 77.3623 9.55762C77.5993 9.42546 77.7839 9.26595 77.916 9.0791C78.0482 8.89225 78.1188 8.71452 78.1279 8.5459L78.6475 9.3252C78.5837 9.51204 78.488 9.71029 78.3604 9.91992C78.2327 10.1296 78.0687 10.3255 77.8682 10.5078C77.6676 10.6901 77.4261 10.8405 77.1436 10.959C76.861 11.0775 76.5329 11.1367 76.1592 11.1367C75.6807 11.1367 75.2523 11.041 74.874 10.8496C74.4958 10.6582 74.1973 10.3962 73.9785 10.0635C73.7598 9.73079 73.6504 9.35254 73.6504 8.92871C73.6504 8.53678 73.7233 8.19043 73.8691 7.88965C74.015 7.58887 74.2314 7.33594 74.5186 7.13086C74.8057 6.92122 75.1611 6.764 75.585 6.65918C76.0133 6.5498 76.5033 6.49512 77.0547 6.49512H78.2715ZM83.3779 0.5V11H81.5664V0.5H83.3779ZM87.0146 3.60352V11H85.2031V3.60352H87.0146ZM85.0801 1.66895C85.0801 1.40007 85.1712 1.17676 85.3535 0.999023C85.5404 0.821289 85.791 0.732422 86.1055 0.732422C86.4199 0.732422 86.6683 0.821289 86.8506 0.999023C87.0374 1.17676 87.1309 1.40007 87.1309 1.66895C87.1309 1.93327 87.0374 2.1543 86.8506 2.33203C86.6683 2.50977 86.4199 2.59863 86.1055 2.59863C85.791 2.59863 85.5404 2.50977 85.3535 2.33203C85.1712 2.1543 85.0801 1.93327 85.0801 1.66895ZM94.5342 9.57812V11H88.9697V9.57812H94.5342ZM94.4043 4.68359L89.6465 11H88.457V9.88574L93.1875 3.60352H94.4043V4.68359ZM93.7412 3.60352V5.03223H88.5527V3.60352H93.7412ZM99.8936 9.42773V6.0166C99.8936 5.76595 99.8503 5.54948 99.7637 5.36719C99.6771 5.1849 99.5449 5.04362 99.3672 4.94336C99.1895 4.8431 98.9639 4.79297 98.6904 4.79297C98.4489 4.79297 98.237 4.83398 98.0547 4.91602C97.877 4.99805 97.7402 5.11426 97.6445 5.26465C97.5488 5.41048 97.501 5.5791 97.501 5.77051H95.6895C95.6895 5.46517 95.7624 5.17578 95.9082 4.90234C96.054 4.62435 96.2614 4.37826 96.5303 4.16406C96.8037 3.94531 97.1296 3.77441 97.5078 3.65137C97.8906 3.52832 98.319 3.4668 98.793 3.4668C99.3535 3.4668 99.8525 3.5625 100.29 3.75391C100.732 3.94076 101.078 4.22331 101.329 4.60156C101.584 4.97982 101.712 5.45605 101.712 6.03027V9.25684C101.712 9.62598 101.735 9.94271 101.78 10.207C101.83 10.4668 101.903 10.6924 101.999 10.8838V11H100.16C100.074 10.8132 100.007 10.5762 99.9619 10.2891C99.9163 9.9974 99.8936 9.71029 99.8936 9.42773ZM100.146 6.49512L100.16 7.56836H99.0186C98.736 7.56836 98.4876 7.59798 98.2734 7.65723C98.0592 7.71191 97.8838 7.79395 97.7471 7.90332C97.6104 8.00814 97.5078 8.13574 97.4395 8.28613C97.3711 8.43197 97.3369 8.59831 97.3369 8.78516C97.3369 8.96745 97.3779 9.13151 97.46 9.27734C97.5465 9.42318 97.6696 9.53939 97.8291 9.62598C97.9932 9.70801 98.1846 9.74902 98.4033 9.74902C98.7223 9.74902 99.0003 9.68522 99.2373 9.55762C99.4743 9.42546 99.6589 9.26595 99.791 9.0791C99.9232 8.89225 99.9938 8.71452 100.003 8.5459L100.522 9.3252C100.459 9.51204 100.363 9.71029 100.235 9.91992C100.108 10.1296 99.9437 10.3255 99.7432 10.5078C99.5426 10.6901 99.3011 10.8405 99.0186 10.959C98.736 11.0775 98.4079 11.1367 98.0342 11.1367C97.5557 11.1367 97.1273 11.041 96.749 10.8496C96.3708 10.6582 96.0723 10.3962 95.8535 10.0635C95.6348 9.73079 95.5254 9.35254 95.5254 8.92871C95.5254 8.53678 95.5983 8.19043 95.7441 7.88965C95.89 7.58887 96.1064 7.33594 96.3936 7.13086C96.6807 6.92122 97.0361 6.764 97.46 6.65918C97.8883 6.5498 98.3783 6.49512 98.9297 6.49512H100.146ZM106.374 9.71484C106.629 9.71484 106.857 9.66471 107.058 9.56445C107.258 9.46419 107.418 9.32292 107.536 9.14062C107.659 8.95833 107.725 8.74642 107.734 8.50488H109.437C109.427 9.00618 109.286 9.45508 109.013 9.85156C108.739 10.248 108.375 10.5625 107.919 10.7949C107.468 11.0228 106.962 11.1367 106.401 11.1367C105.832 11.1367 105.335 11.041 104.911 10.8496C104.487 10.6582 104.134 10.3916 103.852 10.0498C103.574 9.70801 103.364 9.31152 103.223 8.86035C103.086 8.40918 103.018 7.92611 103.018 7.41113V7.19238C103.018 6.67741 103.086 6.19434 103.223 5.74316C103.364 5.29199 103.574 4.89551 103.852 4.55371C104.134 4.21191 104.487 3.94531 104.911 3.75391C105.335 3.5625 105.829 3.4668 106.395 3.4668C106.992 3.4668 107.516 3.58301 107.967 3.81543C108.423 4.04785 108.778 4.37598 109.033 4.7998C109.293 5.22363 109.427 5.72266 109.437 6.29688H107.734C107.725 6.03255 107.666 5.79557 107.557 5.58594C107.447 5.3763 107.292 5.20768 107.092 5.08008C106.891 4.95247 106.647 4.88867 106.36 4.88867C106.055 4.88867 105.8 4.95247 105.595 5.08008C105.394 5.20768 105.237 5.38314 105.123 5.60645C105.014 5.8252 104.936 6.07129 104.891 6.34473C104.85 6.61361 104.829 6.89616 104.829 7.19238V7.41113C104.829 7.71191 104.85 7.99902 104.891 8.27246C104.936 8.5459 105.014 8.79199 105.123 9.01074C105.237 9.22493 105.394 9.39583 105.595 9.52344C105.8 9.65104 106.06 9.71484 106.374 9.71484ZM105.643 11H106.989L106.914 11.3896C107.174 11.4352 107.411 11.5446 107.625 11.7178C107.839 11.891 107.946 12.1758 107.946 12.5723C107.946 12.8092 107.896 13.0234 107.796 13.2148C107.7 13.4062 107.554 13.5703 107.358 13.707C107.162 13.8483 106.919 13.9554 106.627 14.0283C106.34 14.1012 106.005 14.1377 105.622 14.1377L105.574 13.126C105.738 13.126 105.884 13.1055 106.012 13.0645C106.144 13.0234 106.246 12.9574 106.319 12.8662C106.397 12.7796 106.436 12.668 106.436 12.5312C106.436 12.3945 106.401 12.2874 106.333 12.21C106.265 12.137 106.155 12.0801 106.005 12.0391C105.859 12.0026 105.668 11.9775 105.431 11.9639L105.643 11ZM110.318 7.37695V7.2334C110.318 6.69108 110.396 6.19206 110.551 5.73633C110.706 5.27604 110.931 4.87728 111.228 4.54004C111.524 4.2028 111.886 3.94076 112.314 3.75391C112.743 3.5625 113.23 3.4668 113.777 3.4668C114.333 3.4668 114.826 3.5625 115.254 3.75391C115.687 3.94076 116.051 4.2028 116.348 4.54004C116.644 4.87728 116.869 5.27604 117.024 5.73633C117.179 6.19206 117.257 6.69108 117.257 7.2334V7.37695C117.257 7.91471 117.179 8.41374 117.024 8.87402C116.869 9.32975 116.644 9.72852 116.348 10.0703C116.051 10.4076 115.689 10.6696 115.261 10.8564C114.832 11.0433 114.342 11.1367 113.791 11.1367C113.244 11.1367 112.754 11.0433 112.321 10.8564C111.888 10.6696 111.524 10.4076 111.228 10.0703C110.931 9.72852 110.706 9.32975 110.551 8.87402C110.396 8.41374 110.318 7.91471 110.318 7.37695ZM112.123 7.2334V7.37695C112.123 7.70052 112.155 8.00358 112.219 8.28613C112.283 8.56868 112.381 8.81706 112.513 9.03125C112.645 9.24544 112.816 9.41406 113.025 9.53711C113.24 9.6556 113.495 9.71484 113.791 9.71484C114.083 9.71484 114.333 9.6556 114.543 9.53711C114.753 9.41406 114.924 9.24544 115.056 9.03125C115.192 8.81706 115.293 8.56868 115.356 8.28613C115.42 8.00358 115.452 7.70052 115.452 7.37695V7.2334C115.452 6.91439 115.42 6.61589 115.356 6.33789C115.293 6.05534 115.192 5.80697 115.056 5.59277C114.924 5.37402 114.75 5.20312 114.536 5.08008C114.326 4.95247 114.074 4.88867 113.777 4.88867C113.486 4.88867 113.235 4.95247 113.025 5.08008C112.816 5.20312 112.645 5.37402 112.513 5.59277C112.381 5.80697 112.283 6.05534 112.219 6.33789C112.155 6.61589 112.123 6.91439 112.123 7.2334ZM115.227 0.561523L116.3 0.636719C116.3 0.969401 116.231 1.27018 116.095 1.53906C115.963 1.80339 115.783 2.01302 115.555 2.16797C115.327 2.32292 115.065 2.40039 114.769 2.40039C114.55 2.40039 114.361 2.37077 114.201 2.31152C114.046 2.25228 113.903 2.18164 113.771 2.09961C113.643 2.01758 113.511 1.94694 113.374 1.8877C113.237 1.82389 113.078 1.79199 112.896 1.79199C112.731 1.79199 112.59 1.85352 112.472 1.97656C112.358 2.09961 112.301 2.26595 112.301 2.47559L111.221 2.4209C111.221 2.09277 111.287 1.79427 111.419 1.52539C111.551 1.25651 111.731 1.04232 111.959 0.882812C112.191 0.723307 112.456 0.643555 112.752 0.643555C112.939 0.643555 113.107 0.673177 113.258 0.732422C113.413 0.791667 113.561 0.862305 113.702 0.944336C113.843 1.02181 113.987 1.09245 114.133 1.15625C114.283 1.21549 114.445 1.24512 114.618 1.24512C114.787 1.24512 114.93 1.18359 115.049 1.06055C115.167 0.9375 115.227 0.771159 115.227 0.561523ZM121.892 11.1367C121.331 11.1367 120.827 11.0456 120.381 10.8633C119.934 10.681 119.554 10.4281 119.239 10.1045C118.929 9.77637 118.69 9.39583 118.521 8.96289C118.357 8.52539 118.275 8.05599 118.275 7.55469V7.28125C118.275 6.71159 118.357 6.19434 118.521 5.72949C118.686 5.26009 118.918 4.85677 119.219 4.51953C119.52 4.18229 119.88 3.92253 120.299 3.74023C120.718 3.55794 121.181 3.4668 121.687 3.4668C122.211 3.4668 122.673 3.55566 123.074 3.7334C123.475 3.90658 123.81 4.15267 124.079 4.47168C124.348 4.79069 124.551 5.1735 124.688 5.62012C124.824 6.06217 124.893 6.55208 124.893 7.08984V7.84863H119.096V6.60449H123.115V6.46777C123.106 6.18066 123.051 5.91862 122.951 5.68164C122.851 5.4401 122.696 5.2487 122.486 5.10742C122.277 4.96159 122.006 4.88867 121.673 4.88867C121.404 4.88867 121.169 4.94792 120.969 5.06641C120.773 5.18034 120.609 5.3444 120.477 5.55859C120.349 5.76823 120.253 6.01888 120.189 6.31055C120.126 6.60221 120.094 6.92578 120.094 7.28125V7.55469C120.094 7.86458 120.135 8.15169 120.217 8.41602C120.303 8.68034 120.429 8.91048 120.593 9.10645C120.761 9.29785 120.962 9.44824 121.194 9.55762C121.431 9.66243 121.7 9.71484 122.001 9.71484C122.379 9.71484 122.721 9.64193 123.026 9.49609C123.336 9.3457 123.605 9.12467 123.833 8.83301L124.742 9.77637C124.587 10.0042 124.378 10.223 124.113 10.4326C123.854 10.6423 123.539 10.8132 123.17 10.9453C122.801 11.0729 122.375 11.1367 121.892 11.1367ZM130.17 8.97656C130.17 8.82161 130.129 8.68262 130.047 8.55957C129.965 8.43652 129.81 8.32487 129.582 8.22461C129.359 8.11979 129.031 8.02181 128.598 7.93066C128.215 7.84863 127.862 7.74609 127.538 7.62305C127.215 7.5 126.937 7.35189 126.704 7.17871C126.472 7.00098 126.289 6.79362 126.157 6.55664C126.03 6.3151 125.966 6.03711 125.966 5.72266C125.966 5.41732 126.032 5.13021 126.164 4.86133C126.296 4.58789 126.488 4.34863 126.738 4.14355C126.989 3.93392 127.294 3.76986 127.654 3.65137C128.014 3.52832 128.42 3.4668 128.871 3.4668C129.5 3.4668 130.04 3.56934 130.491 3.77441C130.947 3.97949 131.296 4.26204 131.537 4.62207C131.779 4.97754 131.899 5.37858 131.899 5.8252H130.095C130.095 5.62923 130.049 5.4515 129.958 5.29199C129.871 5.13249 129.737 5.00488 129.555 4.90918C129.372 4.80892 129.142 4.75879 128.864 4.75879C128.614 4.75879 128.402 4.7998 128.229 4.88184C128.06 4.96387 127.932 5.07096 127.846 5.20312C127.759 5.33529 127.716 5.48112 127.716 5.64062C127.716 5.75911 127.739 5.86621 127.784 5.96191C127.834 6.05306 127.914 6.13737 128.023 6.21484C128.133 6.29232 128.281 6.36296 128.468 6.42676C128.659 6.49056 128.894 6.55208 129.172 6.61133C129.723 6.7207 130.204 6.86654 130.614 7.04883C131.029 7.22656 131.353 7.46354 131.585 7.75977C131.817 8.05599 131.934 8.43424 131.934 8.89453C131.934 9.22266 131.863 9.52344 131.722 9.79688C131.58 10.0658 131.375 10.3005 131.106 10.501C130.838 10.7015 130.516 10.8587 130.143 10.9727C129.769 11.082 129.347 11.1367 128.878 11.1367C128.199 11.1367 127.625 11.016 127.155 10.7744C126.686 10.5283 126.33 10.2184 126.089 9.84473C125.847 9.46647 125.727 9.07454 125.727 8.66895H127.456C127.47 8.95605 127.547 9.1862 127.688 9.35938C127.83 9.53255 128.007 9.65788 128.222 9.73535C128.44 9.80827 128.671 9.84473 128.912 9.84473C129.186 9.84473 129.416 9.80827 129.603 9.73535C129.789 9.65788 129.931 9.55534 130.026 9.42773C130.122 9.29557 130.17 9.14518 130.17 8.97656ZM144.348 1.04688V11H142.475V1.04688H144.348ZM147.438 1.04688V2.53027H139.419V1.04688H147.438ZM149.878 5.11426V11H148.073V3.60352H149.782L149.878 5.11426ZM152.127 3.55566L152.1 5.2373C151.999 5.21908 151.885 5.2054 151.758 5.19629C151.635 5.18717 151.519 5.18262 151.409 5.18262C151.131 5.18262 150.887 5.22135 150.678 5.29883C150.468 5.37174 150.293 5.47884 150.151 5.62012C150.015 5.76139 149.91 5.93457 149.837 6.13965C149.764 6.34017 149.723 6.56803 149.714 6.82324L149.324 6.77539C149.324 6.30599 149.372 5.87077 149.468 5.46973C149.563 5.06868 149.702 4.71777 149.885 4.41699C150.067 4.11621 150.295 3.88379 150.568 3.71973C150.846 3.55111 151.165 3.4668 151.525 3.4668C151.626 3.4668 151.733 3.47591 151.847 3.49414C151.965 3.50781 152.059 3.52832 152.127 3.55566ZM156.96 9.42773V6.0166C156.96 5.76595 156.917 5.54948 156.83 5.36719C156.743 5.1849 156.611 5.04362 156.434 4.94336C156.256 4.8431 156.03 4.79297 155.757 4.79297C155.515 4.79297 155.303 4.83398 155.121 4.91602C154.943 4.99805 154.807 5.11426 154.711 5.26465C154.615 5.41048 154.567 5.5791 154.567 5.77051H152.756C152.756 5.46517 152.829 5.17578 152.975 4.90234C153.12 4.62435 153.328 4.37826 153.597 4.16406C153.87 3.94531 154.196 3.77441 154.574 3.65137C154.957 3.52832 155.385 3.4668 155.859 3.4668C156.42 3.4668 156.919 3.5625 157.356 3.75391C157.799 3.94076 158.145 4.22331 158.396 4.60156C158.651 4.97982 158.778 5.45605 158.778 6.03027V9.25684C158.778 9.62598 158.801 9.94271 158.847 10.207C158.897 10.4668 158.97 10.6924 159.065 10.8838V11H157.227C157.14 10.8132 157.074 10.5762 157.028 10.2891C156.983 9.9974 156.96 9.71029 156.96 9.42773ZM157.213 6.49512L157.227 7.56836H156.085C155.802 7.56836 155.554 7.59798 155.34 7.65723C155.126 7.71191 154.95 7.79395 154.813 7.90332C154.677 8.00814 154.574 8.13574 154.506 8.28613C154.438 8.43197 154.403 8.59831 154.403 8.78516C154.403 8.96745 154.444 9.13151 154.526 9.27734C154.613 9.42318 154.736 9.53939 154.896 9.62598C155.06 9.70801 155.251 9.74902 155.47 9.74902C155.789 9.74902 156.067 9.68522 156.304 9.55762C156.541 9.42546 156.725 9.26595 156.857 9.0791C156.99 8.89225 157.06 8.71452 157.069 8.5459L157.589 9.3252C157.525 9.51204 157.429 9.71029 157.302 9.91992C157.174 10.1296 157.01 10.3255 156.81 10.5078C156.609 10.6901 156.368 10.8405 156.085 10.959C155.802 11.0775 155.474 11.1367 155.101 11.1367C154.622 11.1367 154.194 11.041 153.815 10.8496C153.437 10.6582 153.139 10.3962 152.92 10.0635C152.701 9.73079 152.592 9.35254 152.592 8.92871C152.592 8.53678 152.665 8.19043 152.811 7.88965C152.956 7.58887 153.173 7.33594 153.46 7.13086C153.747 6.92122 154.103 6.764 154.526 6.65918C154.955 6.5498 155.445 6.49512 155.996 6.49512H157.213ZM162.176 5.18262V11H160.371V3.60352H162.066L162.176 5.18262ZM161.889 7.03516H161.355C161.36 6.4974 161.433 6.00977 161.574 5.57227C161.715 5.13477 161.914 4.75879 162.169 4.44434C162.429 4.12988 162.736 3.88835 163.092 3.71973C163.447 3.55111 163.844 3.4668 164.281 3.4668C164.637 3.4668 164.958 3.51693 165.245 3.61719C165.532 3.71745 165.778 3.87695 165.983 4.0957C166.193 4.31445 166.353 4.60156 166.462 4.95703C166.576 5.30794 166.633 5.74089 166.633 6.25586V11H164.814V6.24219C164.814 5.90495 164.764 5.63835 164.664 5.44238C164.568 5.24642 164.427 5.10742 164.24 5.02539C164.058 4.94336 163.832 4.90234 163.563 4.90234C163.285 4.90234 163.042 4.95931 162.832 5.07324C162.627 5.18262 162.454 5.33529 162.312 5.53125C162.176 5.72721 162.071 5.9528 161.998 6.20801C161.925 6.46322 161.889 6.73893 161.889 7.03516ZM172.293 8.97656C172.293 8.82161 172.252 8.68262 172.17 8.55957C172.088 8.43652 171.933 8.32487 171.705 8.22461C171.482 8.11979 171.154 8.02181 170.721 7.93066C170.338 7.84863 169.985 7.74609 169.661 7.62305C169.338 7.5 169.06 7.35189 168.827 7.17871C168.595 7.00098 168.412 6.79362 168.28 6.55664C168.153 6.3151 168.089 6.03711 168.089 5.72266C168.089 5.41732 168.155 5.13021 168.287 4.86133C168.419 4.58789 168.611 4.34863 168.861 4.14355C169.112 3.93392 169.417 3.76986 169.777 3.65137C170.137 3.52832 170.543 3.4668 170.994 3.4668C171.623 3.4668 172.163 3.56934 172.614 3.77441C173.07 3.97949 173.419 4.26204 173.66 4.62207C173.902 4.97754 174.022 5.37858 174.022 5.8252H172.218C172.218 5.62923 172.172 5.4515 172.081 5.29199C171.994 5.13249 171.86 5.00488 171.678 4.90918C171.495 4.80892 171.265 4.75879 170.987 4.75879C170.737 4.75879 170.525 4.7998 170.352 4.88184C170.183 4.96387 170.055 5.07096 169.969 5.20312C169.882 5.33529 169.839 5.48112 169.839 5.64062C169.839 5.75911 169.862 5.86621 169.907 5.96191C169.957 6.05306 170.037 6.13737 170.146 6.21484C170.256 6.29232 170.404 6.36296 170.591 6.42676C170.782 6.49056 171.017 6.55208 171.295 6.61133C171.846 6.7207 172.327 6.86654 172.737 7.04883C173.152 7.22656 173.476 7.46354 173.708 7.75977C173.94 8.05599 174.057 8.43424 174.057 8.89453C174.057 9.22266 173.986 9.52344 173.845 9.79688C173.703 10.0658 173.498 10.3005 173.229 10.501C172.961 10.7015 172.639 10.8587 172.266 10.9727C171.892 11.082 171.47 11.1367 171.001 11.1367C170.322 11.1367 169.748 11.016 169.278 10.7744C168.809 10.5283 168.453 10.2184 168.212 9.84473C167.97 9.46647 167.85 9.07454 167.85 8.66895H169.579C169.593 8.95605 169.67 9.1862 169.812 9.35938C169.953 9.53255 170.131 9.65788 170.345 9.73535C170.563 9.80827 170.794 9.84473 171.035 9.84473C171.309 9.84473 171.539 9.80827 171.726 9.73535C171.912 9.65788 172.054 9.55534 172.149 9.42773C172.245 9.29557 172.293 9.14518 172.293 8.97656ZM177.229 5.12109V11H175.424V3.60352H177.126L177.229 5.12109ZM176.962 7.03516H176.408C176.408 6.52018 176.47 6.04622 176.593 5.61328C176.72 5.18034 176.907 4.80436 177.153 4.48535C177.399 4.16178 177.702 3.91113 178.062 3.7334C178.427 3.55566 178.849 3.4668 179.327 3.4668C179.66 3.4668 179.965 3.51693 180.243 3.61719C180.521 3.71289 180.76 3.86556 180.961 4.0752C181.166 4.28027 181.323 4.54915 181.433 4.88184C181.542 5.20996 181.597 5.60417 181.597 6.06445V11H179.792V6.24902C179.792 5.90267 179.742 5.63151 179.642 5.43555C179.546 5.23958 179.407 5.10286 179.225 5.02539C179.042 4.94336 178.824 4.90234 178.568 4.90234C178.286 4.90234 178.042 4.95931 177.837 5.07324C177.636 5.18262 177.47 5.33529 177.338 5.53125C177.21 5.72721 177.115 5.9528 177.051 6.20801C176.992 6.46322 176.962 6.73893 176.962 7.03516ZM181.46 6.7002L180.715 6.83691C180.719 6.37207 180.783 5.93685 180.906 5.53125C181.029 5.12109 181.209 4.76335 181.446 4.45801C181.688 4.14811 181.986 3.90658 182.342 3.7334C182.702 3.55566 183.117 3.4668 183.586 3.4668C183.951 3.4668 184.279 3.51921 184.57 3.62402C184.867 3.72428 185.119 3.88607 185.329 4.10938C185.539 4.32812 185.698 4.61296 185.808 4.96387C185.922 5.31478 185.979 5.74316 185.979 6.24902V11H184.16V6.24219C184.16 5.88216 184.11 5.60645 184.01 5.41504C183.914 5.22363 183.775 5.09147 183.593 5.01855C183.41 4.94108 183.196 4.90234 182.95 4.90234C182.7 4.90234 182.481 4.9502 182.294 5.0459C182.112 5.13704 181.957 5.26465 181.829 5.42871C181.706 5.59277 181.613 5.78418 181.549 6.00293C181.49 6.21712 181.46 6.44954 181.46 6.7002ZM189.513 3.60352V11H187.701V3.60352H189.513ZM187.578 1.66895C187.578 1.40007 187.669 1.17676 187.852 0.999023C188.038 0.821289 188.289 0.732422 188.604 0.732422C188.918 0.732422 189.166 0.821289 189.349 0.999023C189.535 1.17676 189.629 1.40007 189.629 1.66895C189.629 1.93327 189.535 2.1543 189.349 2.33203C189.166 2.50977 188.918 2.59863 188.604 2.59863C188.289 2.59863 188.038 2.50977 187.852 2.33203C187.669 2.1543 187.578 1.93327 187.578 1.66895ZM194.735 3.60352V4.90234H190.497V3.60352H194.735ZM191.632 1.78516H193.443V8.86719C193.443 9.08594 193.473 9.25456 193.532 9.37305C193.591 9.49154 193.68 9.57129 193.799 9.6123C193.917 9.65332 194.059 9.67383 194.223 9.67383C194.341 9.67383 194.451 9.66699 194.551 9.65332C194.651 9.63965 194.735 9.62598 194.804 9.6123L194.811 10.9658C194.66 11.016 194.489 11.057 194.298 11.0889C194.111 11.1208 193.899 11.1367 193.662 11.1367C193.257 11.1367 192.901 11.0684 192.596 10.9316C192.29 10.7904 192.053 10.5648 191.885 10.2549C191.716 9.94043 191.632 9.52572 191.632 9.01074V1.78516ZM197.853 3.60352V11H196.041V3.60352H197.853ZM195.918 1.66895C195.918 1.40007 196.009 1.17676 196.191 0.999023C196.378 0.821289 196.629 0.732422 196.943 0.732422C197.258 0.732422 197.506 0.821289 197.688 0.999023C197.875 1.17676 197.969 1.40007 197.969 1.66895C197.969 1.93327 197.875 2.1543 197.688 2.33203C197.506 2.50977 197.258 2.59863 196.943 2.59863C196.629 2.59863 196.378 2.50977 196.191 2.33203C196.009 2.1543 195.918 1.93327 195.918 1.66895ZM204.012 9.42773V0.5H205.83V11H204.189L204.012 9.42773ZM199.261 7.39062V7.24707C199.261 6.68197 199.325 6.16927 199.452 5.70898C199.584 5.24414 199.776 4.84538 200.026 4.5127C200.277 4.18001 200.58 3.92253 200.936 3.74023C201.296 3.55794 201.703 3.4668 202.159 3.4668C202.601 3.4668 202.986 3.55566 203.314 3.7334C203.647 3.91113 203.93 4.16406 204.162 4.49219C204.399 4.82031 204.588 5.20996 204.729 5.66113C204.871 6.10775 204.973 6.59993 205.037 7.1377V7.52734C204.973 8.05143 204.871 8.53223 204.729 8.96973C204.588 9.40723 204.399 9.79004 204.162 10.1182C203.93 10.4417 203.647 10.6924 203.314 10.8701C202.982 11.0479 202.592 11.1367 202.146 11.1367C201.694 11.1367 201.289 11.0433 200.929 10.8564C200.573 10.6696 200.27 10.4076 200.02 10.0703C199.773 9.73307 199.584 9.33659 199.452 8.88086C199.325 8.42513 199.261 7.92839 199.261 7.39062ZM201.072 7.24707V7.39062C201.072 7.70964 201.1 8.00814 201.154 8.28613C201.209 8.56413 201.298 8.81022 201.421 9.02441C201.544 9.23405 201.701 9.39811 201.893 9.5166C202.089 9.63509 202.326 9.69434 202.604 9.69434C202.959 9.69434 203.251 9.61686 203.479 9.46191C203.711 9.30241 203.891 9.08594 204.019 8.8125C204.146 8.53451 204.228 8.22233 204.265 7.87598V6.80273C204.246 6.5293 204.199 6.27637 204.121 6.04395C204.048 5.81152 203.943 5.611 203.807 5.44238C203.674 5.27376 203.51 5.1416 203.314 5.0459C203.118 4.9502 202.886 4.90234 202.617 4.90234C202.339 4.90234 202.102 4.96387 201.906 5.08691C201.71 5.2054 201.551 5.37174 201.428 5.58594C201.305 5.80013 201.214 6.0485 201.154 6.33105C201.1 6.61361 201.072 6.91895 201.072 7.24707ZM207.143 7.37695V7.2334C207.143 6.69108 207.22 6.19206 207.375 5.73633C207.53 5.27604 207.756 4.87728 208.052 4.54004C208.348 4.2028 208.71 3.94076 209.139 3.75391C209.567 3.5625 210.055 3.4668 210.602 3.4668C211.158 3.4668 211.65 3.5625 212.078 3.75391C212.511 3.94076 212.876 4.2028 213.172 4.54004C213.468 4.87728 213.694 5.27604 213.849 5.73633C214.004 6.19206 214.081 6.69108 214.081 7.2334V7.37695C214.081 7.91471 214.004 8.41374 213.849 8.87402C213.694 9.32975 213.468 9.72852 213.172 10.0703C212.876 10.4076 212.513 10.6696 212.085 10.8564C211.657 11.0433 211.167 11.1367 210.615 11.1367C210.068 11.1367 209.578 11.0433 209.146 10.8564C208.713 10.6696 208.348 10.4076 208.052 10.0703C207.756 9.72852 207.53 9.32975 207.375 8.87402C207.22 8.41374 207.143 7.91471 207.143 7.37695ZM208.947 7.2334V7.37695C208.947 7.70052 208.979 8.00358 209.043 8.28613C209.107 8.56868 209.205 8.81706 209.337 9.03125C209.469 9.24544 209.64 9.41406 209.85 9.53711C210.064 9.6556 210.319 9.71484 210.615 9.71484C210.907 9.71484 211.158 9.6556 211.367 9.53711C211.577 9.41406 211.748 9.24544 211.88 9.03125C212.017 8.81706 212.117 8.56868 212.181 8.28613C212.244 8.00358 212.276 7.70052 212.276 7.37695V7.2334C212.276 6.91439 212.244 6.61589 212.181 6.33789C212.117 6.05534 212.017 5.80697 211.88 5.59277C211.748 5.37402 211.575 5.20312 211.36 5.08008C211.151 4.95247 210.898 4.88867 210.602 4.88867C210.31 4.88867 210.059 4.95247 209.85 5.08008C209.64 5.20312 209.469 5.37402 209.337 5.59277C209.205 5.80697 209.107 6.05534 209.043 6.33789C208.979 6.61589 208.947 6.91439 208.947 7.2334ZM222.954 9.42773V6.0166C222.954 5.76595 222.911 5.54948 222.824 5.36719C222.738 5.1849 222.605 5.04362 222.428 4.94336C222.25 4.8431 222.024 4.79297 221.751 4.79297C221.509 4.79297 221.298 4.83398 221.115 4.91602C220.938 4.99805 220.801 5.11426 220.705 5.26465C220.609 5.41048 220.562 5.5791 220.562 5.77051H218.75C218.75 5.46517 218.823 5.17578 218.969 4.90234C219.115 4.62435 219.322 4.37826 219.591 4.16406C219.864 3.94531 220.19 3.77441 220.568 3.65137C220.951 3.52832 221.38 3.4668 221.854 3.4668C222.414 3.4668 222.913 3.5625 223.351 3.75391C223.793 3.94076 224.139 4.22331 224.39 4.60156C224.645 4.97982 224.772 5.45605 224.772 6.03027V9.25684C224.772 9.62598 224.795 9.94271 224.841 10.207C224.891 10.4668 224.964 10.6924 225.06 10.8838V11H223.221C223.134 10.8132 223.068 10.5762 223.022 10.2891C222.977 9.9974 222.954 9.71029 222.954 9.42773ZM223.207 6.49512L223.221 7.56836H222.079C221.797 7.56836 221.548 7.59798 221.334 7.65723C221.12 7.71191 220.944 7.79395 220.808 7.90332C220.671 8.00814 220.568 8.13574 220.5 8.28613C220.432 8.43197 220.397 8.59831 220.397 8.78516C220.397 8.96745 220.438 9.13151 220.521 9.27734C220.607 9.42318 220.73 9.53939 220.89 9.62598C221.054 9.70801 221.245 9.74902 221.464 9.74902C221.783 9.74902 222.061 9.68522 222.298 9.55762C222.535 9.42546 222.719 9.26595 222.852 9.0791C222.984 8.89225 223.054 8.71452 223.063 8.5459L223.583 9.3252C223.519 9.51204 223.424 9.71029 223.296 9.91992C223.168 10.1296 223.004 10.3255 222.804 10.5078C222.603 10.6901 222.362 10.8405 222.079 10.959C221.797 11.0775 221.468 11.1367 221.095 11.1367C220.616 11.1367 220.188 11.041 219.81 10.8496C219.431 10.6582 219.133 10.3962 218.914 10.0635C218.695 9.73079 218.586 9.35254 218.586 8.92871C218.586 8.53678 218.659 8.19043 218.805 7.88965C218.951 7.58887 219.167 7.33594 219.454 7.13086C219.741 6.92122 220.097 6.764 220.521 6.65918C220.949 6.5498 221.439 6.49512 221.99 6.49512H223.207ZM226.078 7.37695V7.2334C226.078 6.69108 226.156 6.19206 226.311 5.73633C226.465 5.27604 226.691 4.87728 226.987 4.54004C227.284 4.2028 227.646 3.94076 228.074 3.75391C228.503 3.5625 228.99 3.4668 229.537 3.4668C230.093 3.4668 230.585 3.5625 231.014 3.75391C231.447 3.94076 231.811 4.2028 232.107 4.54004C232.404 4.87728 232.629 5.27604 232.784 5.73633C232.939 6.19206 233.017 6.69108 233.017 7.2334V7.37695C233.017 7.91471 232.939 8.41374 232.784 8.87402C232.629 9.32975 232.404 9.72852 232.107 10.0703C231.811 10.4076 231.449 10.6696 231.021 10.8564C230.592 11.0433 230.102 11.1367 229.551 11.1367C229.004 11.1367 228.514 11.0433 228.081 10.8564C227.648 10.6696 227.284 10.4076 226.987 10.0703C226.691 9.72852 226.465 9.32975 226.311 8.87402C226.156 8.41374 226.078 7.91471 226.078 7.37695ZM227.883 7.2334V7.37695C227.883 7.70052 227.915 8.00358 227.979 8.28613C228.042 8.56868 228.14 8.81706 228.272 9.03125C228.405 9.24544 228.576 9.41406 228.785 9.53711C228.999 9.6556 229.255 9.71484 229.551 9.71484C229.842 9.71484 230.093 9.6556 230.303 9.53711C230.512 9.41406 230.683 9.24544 230.815 9.03125C230.952 8.81706 231.052 8.56868 231.116 8.28613C231.18 8.00358 231.212 7.70052 231.212 7.37695V7.2334C231.212 6.91439 231.18 6.61589 231.116 6.33789C231.052 6.05534 230.952 5.80697 230.815 5.59277C230.683 5.37402 230.51 5.20312 230.296 5.08008C230.086 4.95247 229.833 4.88867 229.537 4.88867C229.245 4.88867 228.995 4.95247 228.785 5.08008C228.576 5.20312 228.405 5.37402 228.272 5.59277C228.14 5.80697 228.042 6.05534 227.979 6.33789C227.915 6.61589 227.883 6.91439 227.883 7.2334ZM240.27 9.63281L241.992 3.60352H243.879L241.343 11H240.194L240.27 9.63281ZM239.012 3.60352L240.755 9.64648L240.816 11H239.661L237.118 3.60352H239.012ZM246.743 3.60352V11H244.932V3.60352H246.743ZM244.809 1.66895C244.809 1.40007 244.9 1.17676 245.082 0.999023C245.269 0.821289 245.52 0.732422 245.834 0.732422C246.148 0.732422 246.397 0.821289 246.579 0.999023C246.766 1.17676 246.859 1.40007 246.859 1.66895C246.859 1.93327 246.766 2.1543 246.579 2.33203C246.397 2.50977 246.148 2.59863 245.834 2.59863C245.52 2.59863 245.269 2.50977 245.082 2.33203C244.9 2.1543 244.809 1.93327 244.809 1.66895ZM250.92 9.63281L252.643 3.60352H254.529L251.993 11H250.845L250.92 9.63281ZM249.662 3.60352L251.405 9.64648L251.467 11H250.312L247.769 3.60352H249.662ZM255.049 7.37695V7.2334C255.049 6.69108 255.126 6.19206 255.281 5.73633C255.436 5.27604 255.662 4.87728 255.958 4.54004C256.254 4.2028 256.617 3.94076 257.045 3.75391C257.473 3.5625 257.961 3.4668 258.508 3.4668C259.064 3.4668 259.556 3.5625 259.984 3.75391C260.417 3.94076 260.782 4.2028 261.078 4.54004C261.374 4.87728 261.6 5.27604 261.755 5.73633C261.91 6.19206 261.987 6.69108 261.987 7.2334V7.37695C261.987 7.91471 261.91 8.41374 261.755 8.87402C261.6 9.32975 261.374 9.72852 261.078 10.0703C260.782 10.4076 260.42 10.6696 259.991 10.8564C259.563 11.0433 259.073 11.1367 258.521 11.1367C257.975 11.1367 257.485 11.0433 257.052 10.8564C256.619 10.6696 256.254 10.4076 255.958 10.0703C255.662 9.72852 255.436 9.32975 255.281 8.87402C255.126 8.41374 255.049 7.91471 255.049 7.37695ZM256.854 7.2334V7.37695C256.854 7.70052 256.885 8.00358 256.949 8.28613C257.013 8.56868 257.111 8.81706 257.243 9.03125C257.375 9.24544 257.546 9.41406 257.756 9.53711C257.97 9.6556 258.225 9.71484 258.521 9.71484C258.813 9.71484 259.064 9.6556 259.273 9.53711C259.483 9.41406 259.654 9.24544 259.786 9.03125C259.923 8.81706 260.023 8.56868 260.087 8.28613C260.151 8.00358 260.183 7.70052 260.183 7.37695V7.2334C260.183 6.91439 260.151 6.61589 260.087 6.33789C260.023 6.05534 259.923 5.80697 259.786 5.59277C259.654 5.37402 259.481 5.20312 259.267 5.08008C259.057 4.95247 258.804 4.88867 258.508 4.88867C258.216 4.88867 257.965 4.95247 257.756 5.08008C257.546 5.20312 257.375 5.37402 257.243 5.59277C257.111 5.80697 257.013 6.05534 256.949 6.33789C256.885 6.61589 256.854 6.91439 256.854 7.2334ZM270.108 11.1367C269.548 11.1367 269.044 11.0456 268.598 10.8633C268.151 10.681 267.771 10.4281 267.456 10.1045C267.146 9.77637 266.907 9.39583 266.738 8.96289C266.574 8.52539 266.492 8.05599 266.492 7.55469V7.28125C266.492 6.71159 266.574 6.19434 266.738 5.72949C266.902 5.26009 267.135 4.85677 267.436 4.51953C267.736 4.18229 268.096 3.92253 268.516 3.74023C268.935 3.55794 269.397 3.4668 269.903 3.4668C270.427 3.4668 270.89 3.55566 271.291 3.7334C271.692 3.90658 272.027 4.15267 272.296 4.47168C272.565 4.79069 272.768 5.1735 272.904 5.62012C273.041 6.06217 273.109 6.55208 273.109 7.08984V7.84863H267.312V6.60449H271.332V6.46777C271.323 6.18066 271.268 5.91862 271.168 5.68164C271.068 5.4401 270.913 5.2487 270.703 5.10742C270.493 4.96159 270.222 4.88867 269.89 4.88867C269.621 4.88867 269.386 4.94792 269.186 5.06641C268.99 5.18034 268.826 5.3444 268.693 5.55859C268.566 5.76823 268.47 6.01888 268.406 6.31055C268.342 6.60221 268.311 6.92578 268.311 7.28125V7.55469C268.311 7.86458 268.352 8.15169 268.434 8.41602C268.52 8.68034 268.646 8.91048 268.81 9.10645C268.978 9.29785 269.179 9.44824 269.411 9.55762C269.648 9.66243 269.917 9.71484 270.218 9.71484C270.596 9.71484 270.938 9.64193 271.243 9.49609C271.553 9.3457 271.822 9.12467 272.05 8.83301L272.959 9.77637C272.804 10.0042 272.594 10.223 272.33 10.4326C272.07 10.6423 271.756 10.8132 271.387 10.9453C271.018 11.0729 270.591 11.1367 270.108 11.1367ZM276.117 5.12109V11H274.312V3.60352H276.015L276.117 5.12109ZM275.851 7.03516H275.297C275.297 6.52018 275.358 6.04622 275.481 5.61328C275.609 5.18034 275.796 4.80436 276.042 4.48535C276.288 4.16178 276.591 3.91113 276.951 3.7334C277.316 3.55566 277.737 3.4668 278.216 3.4668C278.549 3.4668 278.854 3.51693 279.132 3.61719C279.41 3.71289 279.649 3.86556 279.85 4.0752C280.055 4.28027 280.212 4.54915 280.321 4.88184C280.431 5.20996 280.485 5.60417 280.485 6.06445V11H278.681V6.24902C278.681 5.90267 278.631 5.63151 278.53 5.43555C278.435 5.23958 278.296 5.10286 278.113 5.02539C277.931 4.94336 277.712 4.90234 277.457 4.90234C277.174 4.90234 276.931 4.95931 276.726 5.07324C276.525 5.18262 276.359 5.33529 276.227 5.53125C276.099 5.72721 276.003 5.9528 275.939 6.20801C275.88 6.46322 275.851 6.73893 275.851 7.03516ZM280.349 6.7002L279.604 6.83691C279.608 6.37207 279.672 5.93685 279.795 5.53125C279.918 5.12109 280.098 4.76335 280.335 4.45801C280.576 4.14811 280.875 3.90658 281.23 3.7334C281.59 3.55566 282.005 3.4668 282.475 3.4668C282.839 3.4668 283.167 3.51921 283.459 3.62402C283.755 3.72428 284.008 3.88607 284.218 4.10938C284.427 4.32812 284.587 4.61296 284.696 4.96387C284.81 5.31478 284.867 5.74316 284.867 6.24902V11H283.049V6.24219C283.049 5.88216 282.999 5.60645 282.898 5.41504C282.803 5.22363 282.664 5.09147 282.481 5.01855C282.299 4.94108 282.085 4.90234 281.839 4.90234C281.588 4.90234 281.369 4.9502 281.183 5.0459C281 5.13704 280.845 5.26465 280.718 5.42871C280.595 5.59277 280.501 5.78418 280.438 6.00293C280.378 6.21712 280.349 6.44954 280.349 6.7002ZM296.618 9.57812V11H289.878V9.7832L293.111 6.29004C293.449 5.90723 293.715 5.57454 293.911 5.29199C294.107 5.00944 294.246 4.75423 294.328 4.52637C294.415 4.29395 294.458 4.07292 294.458 3.86328C294.458 3.55794 294.403 3.29134 294.294 3.06348C294.185 2.83105 294.025 2.65104 293.815 2.52344C293.61 2.39583 293.357 2.33203 293.057 2.33203C292.724 2.33203 292.439 2.40951 292.202 2.56445C291.97 2.71484 291.792 2.92448 291.669 3.19336C291.55 3.46224 291.491 3.76986 291.491 4.11621H289.68C289.68 3.52832 289.816 2.99284 290.09 2.50977C290.363 2.02214 290.755 1.63249 291.266 1.34082C291.776 1.04915 292.382 0.90332 293.084 0.90332C293.768 0.90332 294.346 1.01725 294.82 1.24512C295.294 1.46842 295.654 1.78743 295.9 2.20215C296.146 2.61686 296.27 3.11133 296.27 3.68555C296.27 4.00456 296.217 4.31901 296.112 4.62891C296.007 4.9388 295.859 5.24642 295.668 5.55176C295.481 5.85254 295.258 6.15788 294.998 6.46777C294.738 6.77767 294.449 7.0944 294.13 7.41797L292.188 9.57812H296.618ZM299.852 5.22363H300.87C301.23 5.22363 301.526 5.16211 301.759 5.03906C301.996 4.91146 302.171 4.73828 302.285 4.51953C302.404 4.29622 302.463 4.03874 302.463 3.74707C302.463 3.45996 302.41 3.21159 302.306 3.00195C302.201 2.78776 302.041 2.6237 301.827 2.50977C301.618 2.39128 301.349 2.33203 301.021 2.33203C300.756 2.33203 300.512 2.38444 300.289 2.48926C300.07 2.59408 299.895 2.74447 299.763 2.94043C299.635 3.13184 299.571 3.36198 299.571 3.63086H297.76C297.76 3.0931 297.901 2.62142 298.184 2.21582C298.471 1.80566 298.858 1.48438 299.346 1.25195C299.833 1.01953 300.378 0.90332 300.979 0.90332C301.636 0.90332 302.21 1.0127 302.702 1.23145C303.199 1.44564 303.584 1.76237 303.857 2.18164C304.135 2.60091 304.274 3.12044 304.274 3.74023C304.274 4.03646 304.204 4.33268 304.062 4.62891C303.926 4.92057 303.723 5.1849 303.454 5.42188C303.19 5.6543 302.864 5.84342 302.477 5.98926C302.094 6.13053 301.654 6.20117 301.157 6.20117H299.852V5.22363ZM299.852 6.61816V5.6543H301.157C301.718 5.6543 302.203 5.72038 302.613 5.85254C303.028 5.98014 303.37 6.16243 303.639 6.39941C303.908 6.63184 304.106 6.90299 304.233 7.21289C304.366 7.52279 304.432 7.85547 304.432 8.21094C304.432 8.67578 304.345 9.09049 304.172 9.45508C303.999 9.8151 303.755 10.1204 303.44 10.3711C303.131 10.6217 302.766 10.8132 302.347 10.9453C301.927 11.0729 301.474 11.1367 300.986 11.1367C300.562 11.1367 300.15 11.0798 299.749 10.9658C299.353 10.8473 298.995 10.6719 298.676 10.4395C298.357 10.2025 298.104 9.90625 297.917 9.55078C297.73 9.19076 297.637 8.77376 297.637 8.2998H299.448C299.448 8.57324 299.514 8.81706 299.646 9.03125C299.783 9.24544 299.97 9.41406 300.207 9.53711C300.449 9.6556 300.72 9.71484 301.021 9.71484C301.353 9.71484 301.638 9.6556 301.875 9.53711C302.117 9.41406 302.301 9.24089 302.429 9.01758C302.556 8.78971 302.62 8.51855 302.62 8.2041C302.62 7.8304 302.549 7.52734 302.408 7.29492C302.267 7.0625 302.064 6.8916 301.8 6.78223C301.54 6.67285 301.23 6.61816 300.87 6.61816H299.852ZM313.53 9.42773V6.0166C313.53 5.76595 313.487 5.54948 313.4 5.36719C313.314 5.1849 313.182 5.04362 313.004 4.94336C312.826 4.8431 312.601 4.79297 312.327 4.79297C312.086 4.79297 311.874 4.83398 311.691 4.91602C311.514 4.99805 311.377 5.11426 311.281 5.26465C311.186 5.41048 311.138 5.5791 311.138 5.77051H309.326C309.326 5.46517 309.399 5.17578 309.545 4.90234C309.691 4.62435 309.898 4.37826 310.167 4.16406C310.44 3.94531 310.766 3.77441 311.145 3.65137C311.527 3.52832 311.956 3.4668 312.43 3.4668C312.99 3.4668 313.489 3.5625 313.927 3.75391C314.369 3.94076 314.715 4.22331 314.966 4.60156C315.221 4.97982 315.349 5.45605 315.349 6.03027V9.25684C315.349 9.62598 315.371 9.94271 315.417 10.207C315.467 10.4668 315.54 10.6924 315.636 10.8838V11H313.797C313.71 10.8132 313.644 10.5762 313.599 10.2891C313.553 9.9974 313.53 9.71029 313.53 9.42773ZM313.783 6.49512L313.797 7.56836H312.655C312.373 7.56836 312.124 7.59798 311.91 7.65723C311.696 7.71191 311.521 7.79395 311.384 7.90332C311.247 8.00814 311.145 8.13574 311.076 8.28613C311.008 8.43197 310.974 8.59831 310.974 8.78516C310.974 8.96745 311.015 9.13151 311.097 9.27734C311.183 9.42318 311.306 9.53939 311.466 9.62598C311.63 9.70801 311.821 9.74902 312.04 9.74902C312.359 9.74902 312.637 9.68522 312.874 9.55762C313.111 9.42546 313.296 9.26595 313.428 9.0791C313.56 8.89225 313.631 8.71452 313.64 8.5459L314.159 9.3252C314.095 9.51204 314 9.71029 313.872 9.91992C313.744 10.1296 313.58 10.3255 313.38 10.5078C313.179 10.6901 312.938 10.8405 312.655 10.959C312.373 11.0775 312.045 11.1367 311.671 11.1367C311.192 11.1367 310.764 11.041 310.386 10.8496C310.007 10.6582 309.709 10.3962 309.49 10.0635C309.271 9.73079 309.162 9.35254 309.162 8.92871C309.162 8.53678 309.235 8.19043 309.381 7.88965C309.527 7.58887 309.743 7.33594 310.03 7.13086C310.317 6.92122 310.673 6.764 311.097 6.65918C311.525 6.5498 312.015 6.49512 312.566 6.49512H313.783ZM321.679 3.60352H323.319V10.7744C323.319 11.4443 323.174 12.0117 322.882 12.4766C322.595 12.946 322.191 13.3014 321.672 13.543C321.152 13.7891 320.549 13.9121 319.86 13.9121C319.564 13.9121 319.243 13.8711 318.896 13.7891C318.555 13.707 318.224 13.5771 317.905 13.3994C317.591 13.2262 317.329 13.0007 317.119 12.7227L317.933 11.6562C318.179 11.9434 318.457 12.1598 318.767 12.3057C319.076 12.4561 319.411 12.5312 319.771 12.5312C320.136 12.5312 320.446 12.4629 320.701 12.3262C320.961 12.194 321.159 11.998 321.296 11.7383C321.437 11.4831 321.508 11.1686 321.508 10.7949V5.29199L321.679 3.60352ZM316.682 7.39062V7.24707C316.682 6.68197 316.75 6.16927 316.887 5.70898C317.023 5.24414 317.219 4.84538 317.475 4.5127C317.734 4.18001 318.047 3.92253 318.411 3.74023C318.78 3.55794 319.195 3.4668 319.655 3.4668C320.143 3.4668 320.553 3.55566 320.886 3.7334C321.223 3.91113 321.501 4.16406 321.72 4.49219C321.943 4.82031 322.116 5.20996 322.239 5.66113C322.367 6.10775 322.465 6.59993 322.533 7.1377V7.52734C322.469 8.05143 322.367 8.53223 322.226 8.96973C322.089 9.40723 321.907 9.79004 321.679 10.1182C321.451 10.4417 321.168 10.6924 320.831 10.8701C320.494 11.0479 320.097 11.1367 319.642 11.1367C319.186 11.1367 318.776 11.0433 318.411 10.8564C318.047 10.6696 317.734 10.4076 317.475 10.0703C317.219 9.73307 317.023 9.33659 316.887 8.88086C316.75 8.42513 316.682 7.92839 316.682 7.39062ZM318.486 7.24707V7.39062C318.486 7.70964 318.518 8.00814 318.582 8.28613C318.646 8.56413 318.744 8.81022 318.876 9.02441C319.008 9.23405 319.174 9.39811 319.375 9.5166C319.576 9.63509 319.815 9.69434 320.093 9.69434C320.466 9.69434 320.772 9.61686 321.009 9.46191C321.25 9.30241 321.433 9.08594 321.556 8.8125C321.683 8.53451 321.765 8.22233 321.802 7.87598V6.80273C321.779 6.5293 321.729 6.27637 321.651 6.04395C321.578 5.81152 321.476 5.611 321.344 5.44238C321.212 5.27376 321.043 5.1416 320.838 5.0459C320.633 4.9502 320.389 4.90234 320.106 4.90234C319.833 4.90234 319.594 4.96387 319.389 5.08691C319.184 5.2054 319.015 5.37174 318.883 5.58594C318.751 5.80013 318.65 6.0485 318.582 6.33105C318.518 6.61361 318.486 6.91895 318.486 7.24707ZM324.625 7.37695V7.2334C324.625 6.69108 324.702 6.19206 324.857 5.73633C325.012 5.27604 325.238 4.87728 325.534 4.54004C325.83 4.2028 326.193 3.94076 326.621 3.75391C327.049 3.5625 327.537 3.4668 328.084 3.4668C328.64 3.4668 329.132 3.5625 329.561 3.75391C329.993 3.94076 330.358 4.2028 330.654 4.54004C330.951 4.87728 331.176 5.27604 331.331 5.73633C331.486 6.19206 331.563 6.69108 331.563 7.2334V7.37695C331.563 7.91471 331.486 8.41374 331.331 8.87402C331.176 9.32975 330.951 9.72852 330.654 10.0703C330.358 10.4076 329.996 10.6696 329.567 10.8564C329.139 11.0433 328.649 11.1367 328.098 11.1367C327.551 11.1367 327.061 11.0433 326.628 10.8564C326.195 10.6696 325.83 10.4076 325.534 10.0703C325.238 9.72852 325.012 9.32975 324.857 8.87402C324.702 8.41374 324.625 7.91471 324.625 7.37695ZM326.43 7.2334V7.37695C326.43 7.70052 326.462 8.00358 326.525 8.28613C326.589 8.56868 326.687 8.81706 326.819 9.03125C326.951 9.24544 327.122 9.41406 327.332 9.53711C327.546 9.6556 327.801 9.71484 328.098 9.71484C328.389 9.71484 328.64 9.6556 328.85 9.53711C329.059 9.41406 329.23 9.24544 329.362 9.03125C329.499 8.81706 329.599 8.56868 329.663 8.28613C329.727 8.00358 329.759 7.70052 329.759 7.37695V7.2334C329.759 6.91439 329.727 6.61589 329.663 6.33789C329.599 6.05534 329.499 5.80697 329.362 5.59277C329.23 5.37402 329.057 5.20312 328.843 5.08008C328.633 4.95247 328.38 4.88867 328.084 4.88867C327.792 4.88867 327.542 4.95247 327.332 5.08008C327.122 5.20312 326.951 5.37402 326.819 5.59277C326.687 5.80697 326.589 6.05534 326.525 6.33789C326.462 6.61589 326.43 6.91439 326.43 7.2334ZM332.951 10.1182C332.951 9.84473 333.045 9.61458 333.231 9.42773C333.418 9.24089 333.671 9.14746 333.99 9.14746C334.309 9.14746 334.562 9.24089 334.749 9.42773C334.936 9.61458 335.029 9.84473 335.029 10.1182C335.029 10.387 334.936 10.6149 334.749 10.8018C334.562 10.984 334.309 11.0752 333.99 11.0752C333.671 11.0752 333.418 10.984 333.231 10.8018C333.045 10.6149 332.951 10.387 332.951 10.1182ZM344.777 9.42773V0.5H346.596V11H344.955L344.777 9.42773ZM340.026 7.39062V7.24707C340.026 6.68197 340.09 6.16927 340.218 5.70898C340.35 5.24414 340.541 4.84538 340.792 4.5127C341.043 4.18001 341.346 3.92253 341.701 3.74023C342.061 3.55794 342.469 3.4668 342.925 3.4668C343.367 3.4668 343.752 3.55566 344.08 3.7334C344.413 3.91113 344.695 4.16406 344.928 4.49219C345.165 4.82031 345.354 5.20996 345.495 5.66113C345.636 6.10775 345.739 6.59993 345.803 7.1377V7.52734C345.739 8.05143 345.636 8.53223 345.495 8.96973C345.354 9.40723 345.165 9.79004 344.928 10.1182C344.695 10.4417 344.413 10.6924 344.08 10.8701C343.747 11.0479 343.358 11.1367 342.911 11.1367C342.46 11.1367 342.054 11.0433 341.694 10.8564C341.339 10.6696 341.036 10.4076 340.785 10.0703C340.539 9.73307 340.35 9.33659 340.218 8.88086C340.09 8.42513 340.026 7.92839 340.026 7.39062ZM341.838 7.24707V7.39062C341.838 7.70964 341.865 8.00814 341.92 8.28613C341.975 8.56413 342.063 8.81022 342.187 9.02441C342.31 9.23405 342.467 9.39811 342.658 9.5166C342.854 9.63509 343.091 9.69434 343.369 9.69434C343.725 9.69434 344.016 9.61686 344.244 9.46191C344.477 9.30241 344.657 9.08594 344.784 8.8125C344.912 8.53451 344.994 8.22233 345.03 7.87598V6.80273C345.012 6.5293 344.964 6.27637 344.887 6.04395C344.814 5.81152 344.709 5.611 344.572 5.44238C344.44 5.27376 344.276 5.1416 344.08 5.0459C343.884 4.9502 343.652 4.90234 343.383 4.90234C343.105 4.90234 342.868 4.96387 342.672 5.08691C342.476 5.2054 342.316 5.37174 342.193 5.58594C342.07 5.80013 341.979 6.0485 341.92 6.33105C341.865 6.61361 341.838 6.91895 341.838 7.24707ZM351.552 11.1367C350.991 11.1367 350.488 11.0456 350.041 10.8633C349.594 10.681 349.214 10.4281 348.899 10.1045C348.59 9.77637 348.35 9.39583 348.182 8.96289C348.018 8.52539 347.936 8.05599 347.936 7.55469V7.28125C347.936 6.71159 348.018 6.19434 348.182 5.72949C348.346 5.26009 348.578 4.85677 348.879 4.51953C349.18 4.18229 349.54 3.92253 349.959 3.74023C350.378 3.55794 350.841 3.4668 351.347 3.4668C351.871 3.4668 352.333 3.55566 352.734 3.7334C353.135 3.90658 353.47 4.15267 353.739 4.47168C354.008 4.79069 354.211 5.1735 354.348 5.62012C354.484 6.06217 354.553 6.55208 354.553 7.08984V7.84863H348.756V6.60449H352.775V6.46777C352.766 6.18066 352.712 5.91862 352.611 5.68164C352.511 5.4401 352.356 5.2487 352.146 5.10742C351.937 4.96159 351.666 4.88867 351.333 4.88867C351.064 4.88867 350.829 4.94792 350.629 5.06641C350.433 5.18034 350.269 5.3444 350.137 5.55859C350.009 5.76823 349.913 6.01888 349.85 6.31055C349.786 6.60221 349.754 6.92578 349.754 7.28125V7.55469C349.754 7.86458 349.795 8.15169 349.877 8.41602C349.964 8.68034 350.089 8.91048 350.253 9.10645C350.422 9.29785 350.622 9.44824 350.854 9.55762C351.091 9.66243 351.36 9.71484 351.661 9.71484C352.039 9.71484 352.381 9.64193 352.687 9.49609C352.996 9.3457 353.265 9.12467 353.493 8.83301L354.402 9.77637C354.247 10.0042 354.038 10.223 353.773 10.4326C353.514 10.6423 353.199 10.8132 352.83 10.9453C352.461 11.0729 352.035 11.1367 351.552 11.1367ZM365.894 9.57812V11H359.153V9.7832L362.387 6.29004C362.724 5.90723 362.991 5.57454 363.187 5.29199C363.382 5.00944 363.521 4.75423 363.604 4.52637C363.69 4.29395 363.733 4.07292 363.733 3.86328C363.733 3.55794 363.679 3.29134 363.569 3.06348C363.46 2.83105 363.3 2.65104 363.091 2.52344C362.886 2.39583 362.633 2.33203 362.332 2.33203C361.999 2.33203 361.715 2.40951 361.478 2.56445C361.245 2.71484 361.067 2.92448 360.944 3.19336C360.826 3.46224 360.767 3.76986 360.767 4.11621H358.955C358.955 3.52832 359.092 2.99284 359.365 2.50977C359.639 2.02214 360.031 1.63249 360.541 1.34082C361.051 1.04915 361.658 0.90332 362.359 0.90332C363.043 0.90332 363.622 1.01725 364.096 1.24512C364.57 1.46842 364.93 1.78743 365.176 2.20215C365.422 2.61686 365.545 3.11133 365.545 3.68555C365.545 4.00456 365.493 4.31901 365.388 4.62891C365.283 4.9388 365.135 5.24642 364.943 5.55176C364.757 5.85254 364.533 6.15788 364.273 6.46777C364.014 6.77767 363.724 7.0944 363.405 7.41797L361.464 9.57812H365.894ZM373.741 5.16895V6.84375C373.741 7.60938 373.664 8.26335 373.509 8.80566C373.354 9.34798 373.131 9.79232 372.839 10.1387C372.547 10.4805 372.199 10.7334 371.793 10.8975C371.387 11.057 370.936 11.1367 370.439 11.1367C370.043 11.1367 369.674 11.0866 369.332 10.9863C368.99 10.8815 368.683 10.722 368.409 10.5078C368.14 10.2891 367.908 10.0111 367.712 9.67383C367.521 9.33659 367.372 8.93327 367.268 8.46387C367.167 7.99447 367.117 7.45443 367.117 6.84375V5.16895C367.117 4.40332 367.195 3.75163 367.35 3.21387C367.509 2.67611 367.735 2.23633 368.026 1.89453C368.318 1.55273 368.667 1.30436 369.072 1.14941C369.478 0.989909 369.929 0.910156 370.426 0.910156C370.827 0.910156 371.196 0.960286 371.533 1.06055C371.875 1.16081 372.18 1.31803 372.449 1.53223C372.723 1.74186 372.955 2.0153 373.146 2.35254C373.338 2.68522 373.484 3.08626 373.584 3.55566C373.689 4.02051 373.741 4.55827 373.741 5.16895ZM371.937 7.08984V4.91602C371.937 4.5332 371.914 4.20052 371.868 3.91797C371.827 3.63086 371.766 3.38704 371.684 3.18652C371.602 2.986 371.499 2.82422 371.376 2.70117C371.253 2.57357 371.112 2.48014 370.952 2.4209C370.793 2.36165 370.617 2.33203 370.426 2.33203C370.189 2.33203 369.977 2.37988 369.79 2.47559C369.603 2.56673 369.446 2.71257 369.318 2.91309C369.191 3.11361 369.093 3.38021 369.024 3.71289C368.961 4.04102 368.929 4.44206 368.929 4.91602V7.08984C368.929 7.47266 368.949 7.80762 368.99 8.09473C369.036 8.38184 369.1 8.62793 369.182 8.83301C369.268 9.03809 369.371 9.20671 369.489 9.33887C369.612 9.46647 369.754 9.56217 369.913 9.62598C370.073 9.68522 370.248 9.71484 370.439 9.71484C370.681 9.71484 370.893 9.66699 371.075 9.57129C371.262 9.47559 371.419 9.3252 371.547 9.12012C371.674 8.91048 371.77 8.63932 371.834 8.30664C371.902 7.9694 371.937 7.5638 371.937 7.08984ZM381.89 9.57812V11H375.149V9.7832L378.383 6.29004C378.72 5.90723 378.987 5.57454 379.183 5.29199C379.379 5.00944 379.518 4.75423 379.6 4.52637C379.686 4.29395 379.729 4.07292 379.729 3.86328C379.729 3.55794 379.675 3.29134 379.565 3.06348C379.456 2.83105 379.297 2.65104 379.087 2.52344C378.882 2.39583 378.629 2.33203 378.328 2.33203C377.995 2.33203 377.711 2.40951 377.474 2.56445C377.241 2.71484 377.063 2.92448 376.94 3.19336C376.822 3.46224 376.763 3.76986 376.763 4.11621H374.951C374.951 3.52832 375.088 2.99284 375.361 2.50977C375.635 2.02214 376.027 1.63249 376.537 1.34082C377.048 1.04915 377.654 0.90332 378.355 0.90332C379.039 0.90332 379.618 1.01725 380.092 1.24512C380.566 1.46842 380.926 1.78743 381.172 2.20215C381.418 2.61686 381.541 3.11133 381.541 3.68555C381.541 4.00456 381.489 4.31901 381.384 4.62891C381.279 4.9388 381.131 5.24642 380.939 5.55176C380.753 5.85254 380.529 6.15788 380.27 6.46777C380.01 6.77767 379.72 7.0944 379.401 7.41797L377.46 9.57812H381.89ZM389.888 9.57812V11H383.147V9.7832L386.381 6.29004C386.718 5.90723 386.985 5.57454 387.181 5.29199C387.377 5.00944 387.516 4.75423 387.598 4.52637C387.684 4.29395 387.728 4.07292 387.728 3.86328C387.728 3.55794 387.673 3.29134 387.563 3.06348C387.454 2.83105 387.295 2.65104 387.085 2.52344C386.88 2.39583 386.627 2.33203 386.326 2.33203C385.993 2.33203 385.709 2.40951 385.472 2.56445C385.239 2.71484 385.062 2.92448 384.938 3.19336C384.82 3.46224 384.761 3.76986 384.761 4.11621H382.949C382.949 3.52832 383.086 2.99284 383.359 2.50977C383.633 2.02214 384.025 1.63249 384.535 1.34082C385.046 1.04915 385.652 0.90332 386.354 0.90332C387.037 0.90332 387.616 1.01725 388.09 1.24512C388.564 1.46842 388.924 1.78743 389.17 2.20215C389.416 2.61686 389.539 3.11133 389.539 3.68555C389.539 4.00456 389.487 4.31901 389.382 4.62891C389.277 4.9388 389.129 5.24642 388.938 5.55176C388.751 5.85254 388.527 6.15788 388.268 6.46777C388.008 6.77767 387.718 7.0944 387.399 7.41797L385.458 9.57812H389.888Z" fill="black"/>
</svg>
