<svg width="106" height="29" viewBox="0 0 106 29" fill="none" xmlns="http://www.w3.org/2000/svg">
<path d="M3.92383 11H1.77734L1.79102 9.52344H3.92383C4.5026 9.52344 4.98796 9.39583 5.37988 9.14062C5.77181 8.88086 6.06803 8.50944 6.26855 8.02637C6.46908 7.53874 6.56934 6.9554 6.56934 6.27637V5.76367C6.56934 5.23958 6.51237 4.77702 6.39844 4.37598C6.28451 3.97493 6.11589 3.6377 5.89258 3.36426C5.67383 3.09082 5.40267 2.88346 5.0791 2.74219C4.75553 2.60091 4.38411 2.53027 3.96484 2.53027H1.73633V1.04688H3.96484C4.63021 1.04688 5.23633 1.15853 5.7832 1.38184C6.33464 1.60514 6.81087 1.92643 7.21191 2.3457C7.61751 2.76042 7.92741 3.25716 8.1416 3.83594C8.36035 4.41471 8.46973 5.06185 8.46973 5.77734V6.27637C8.46973 6.9873 8.36035 7.63444 8.1416 8.21777C7.92741 8.79655 7.61751 9.29329 7.21191 9.70801C6.81087 10.1227 6.33236 10.4417 5.77637 10.665C5.22038 10.8883 4.60286 11 3.92383 11ZM2.83008 1.04688V11H0.950195V1.04688H2.83008ZM12.0723 1.04688V11H10.1924V1.04688H12.0723ZM22.1621 5.77051V6.2832C22.1621 7.03516 22.0618 7.71191 21.8613 8.31348C21.6608 8.91048 21.376 9.41862 21.0068 9.83789C20.6377 10.2572 20.1979 10.5785 19.6875 10.8018C19.1771 11.0251 18.6097 11.1367 17.9854 11.1367C17.3701 11.1367 16.805 11.0251 16.29 10.8018C15.7796 10.5785 15.3376 10.2572 14.9639 9.83789C14.5902 9.41862 14.3008 8.91048 14.0957 8.31348C13.8906 7.71191 13.7881 7.03516 13.7881 6.2832V5.77051C13.7881 5.014 13.8906 4.33724 14.0957 3.74023C14.3008 3.14323 14.5879 2.63509 14.957 2.21582C15.3262 1.79199 15.766 1.46842 16.2764 1.24512C16.7913 1.02181 17.3564 0.910156 17.9717 0.910156C18.596 0.910156 19.1634 1.02181 19.6738 1.24512C20.1842 1.46842 20.624 1.79199 20.9932 2.21582C21.3669 2.63509 21.654 3.14323 21.8545 3.74023C22.0596 4.33724 22.1621 5.014 22.1621 5.77051ZM20.2617 6.2832V5.75684C20.2617 5.21452 20.2116 4.73828 20.1113 4.32812C20.0111 3.91341 19.863 3.56478 19.667 3.28223C19.471 2.99967 19.2295 2.78776 18.9424 2.64648C18.6553 2.50065 18.3317 2.42773 17.9717 2.42773C17.6071 2.42773 17.2835 2.50065 17.001 2.64648C16.723 2.78776 16.486 2.99967 16.29 3.28223C16.0941 3.56478 15.9437 3.91341 15.8389 4.32812C15.7386 4.73828 15.6885 5.21452 15.6885 5.75684V6.2832C15.6885 6.82096 15.7386 7.2972 15.8389 7.71191C15.9437 8.12663 16.0941 8.47754 16.29 8.76465C16.4906 9.0472 16.7321 9.26139 17.0146 9.40723C17.2972 9.55306 17.6208 9.62598 17.9854 9.62598C18.3499 9.62598 18.6735 9.55306 18.9561 9.40723C19.2386 9.26139 19.4756 9.0472 19.667 8.76465C19.863 8.47754 20.0111 8.12663 20.1113 7.71191C20.2116 7.2972 20.2617 6.82096 20.2617 6.2832Z" fill="black"/>
<path d="M7.10254 24.3066C7.10254 24.9128 6.96126 25.4277 6.67871 25.8516C6.40072 26.2708 6.02246 26.5898 5.54395 26.8086C5.06999 27.0273 4.53451 27.1367 3.9375 27.1367C3.34049 27.1367 2.80273 27.0273 2.32422 26.8086C1.8457 26.5898 1.46745 26.2708 1.18945 25.8516C0.911458 25.4277 0.772461 24.9128 0.772461 24.3066C0.772461 23.9102 0.847656 23.5479 0.998047 23.2197C1.15299 22.887 1.36947 22.5977 1.64746 22.3516C1.93001 22.1055 2.2627 21.9163 2.64551 21.7842C3.03288 21.6475 3.45898 21.5791 3.92383 21.5791C4.53451 21.5791 5.0791 21.6976 5.55762 21.9346C6.03613 22.167 6.41211 22.4883 6.68555 22.8984C6.96354 23.3086 7.10254 23.778 7.10254 24.3066ZM5.83105 24.2793C5.83105 23.9102 5.7513 23.5843 5.5918 23.3018C5.43229 23.0146 5.20898 22.7913 4.92188 22.6318C4.63477 22.4723 4.30208 22.3926 3.92383 22.3926C3.53646 22.3926 3.2015 22.4723 2.91895 22.6318C2.64095 22.7913 2.42448 23.0146 2.26953 23.3018C2.11458 23.5843 2.03711 23.9102 2.03711 24.2793C2.03711 24.6621 2.1123 24.9902 2.2627 25.2637C2.41764 25.5326 2.63639 25.7399 2.91895 25.8857C3.20605 26.027 3.54557 26.0977 3.9375 26.0977C4.32943 26.0977 4.66667 26.027 4.94922 25.8857C5.23177 25.7399 5.44824 25.5326 5.59863 25.2637C5.75358 24.9902 5.83105 24.6621 5.83105 24.2793ZM6.87012 19.6377C6.87012 20.1208 6.74251 20.556 6.4873 20.9434C6.2321 21.3307 5.88346 21.6361 5.44141 21.8594C4.99935 22.0827 4.49805 22.1943 3.9375 22.1943C3.36784 22.1943 2.8597 22.0827 2.41309 21.8594C1.97103 21.6361 1.62467 21.3307 1.37402 20.9434C1.12337 20.556 0.998047 20.1208 0.998047 19.6377C0.998047 19.0589 1.12337 18.5667 1.37402 18.1611C1.62923 17.7555 1.97786 17.4456 2.41992 17.2314C2.86198 17.0173 3.36556 16.9102 3.93066 16.9102C4.50033 16.9102 5.00618 17.0173 5.44824 17.2314C5.8903 17.4456 6.23665 17.7555 6.4873 18.1611C6.74251 18.5667 6.87012 19.0589 6.87012 19.6377ZM5.60547 19.6582C5.60547 19.3255 5.53483 19.0316 5.39355 18.7764C5.25228 18.5212 5.05632 18.3206 4.80566 18.1748C4.55501 18.0244 4.26335 17.9492 3.93066 17.9492C3.59798 17.9492 3.30632 18.0199 3.05566 18.1611C2.80957 18.2979 2.61589 18.4938 2.47461 18.749C2.33789 19.0042 2.26953 19.3073 2.26953 19.6582C2.26953 20 2.33789 20.2985 2.47461 20.5537C2.61589 20.8089 2.81185 21.0072 3.0625 21.1484C3.31315 21.2897 3.60482 21.3604 3.9375 21.3604C4.27018 21.3604 4.55957 21.2897 4.80566 21.1484C5.05632 21.0072 5.25228 20.8089 5.39355 20.5537C5.53483 20.2985 5.60547 20 5.60547 19.6582ZM10.5479 21.4014H11.4502C11.8923 21.4014 12.2568 21.3285 12.5439 21.1826C12.8356 21.0322 13.0521 20.8294 13.1934 20.5742C13.3392 20.3145 13.4121 20.0228 13.4121 19.6992C13.4121 19.3164 13.3483 18.9951 13.2207 18.7354C13.0931 18.4756 12.9017 18.2796 12.6465 18.1475C12.3913 18.0153 12.0677 17.9492 11.6758 17.9492C11.3203 17.9492 11.0059 18.0199 10.7324 18.1611C10.4635 18.2979 10.2516 18.4938 10.0967 18.749C9.94629 19.0042 9.87109 19.305 9.87109 19.6514H8.60645C8.60645 19.1455 8.73405 18.6852 8.98926 18.2705C9.24447 17.8558 9.60221 17.5254 10.0625 17.2793C10.5273 17.0332 11.0651 16.9102 11.6758 16.9102C12.2773 16.9102 12.8037 17.0173 13.2549 17.2314C13.7061 17.4411 14.057 17.7555 14.3076 18.1748C14.5583 18.5895 14.6836 19.1068 14.6836 19.7266C14.6836 19.9772 14.6243 20.2461 14.5059 20.5332C14.3919 20.8158 14.2119 21.0801 13.9658 21.3262C13.7243 21.5723 13.4098 21.7751 13.0225 21.9346C12.6351 22.0895 12.1702 22.167 11.6279 22.167H10.5479V21.4014ZM10.5479 22.4404V21.6816H11.6279C12.2614 21.6816 12.7855 21.7568 13.2002 21.9072C13.6149 22.0576 13.9408 22.2581 14.1777 22.5088C14.4193 22.7594 14.5879 23.0352 14.6836 23.3359C14.7839 23.6322 14.834 23.9284 14.834 24.2246C14.834 24.6895 14.7542 25.1019 14.5947 25.4619C14.4398 25.8219 14.2188 26.1273 13.9316 26.3779C13.6491 26.6286 13.3164 26.8177 12.9336 26.9453C12.5508 27.0729 12.1338 27.1367 11.6826 27.1367C11.2497 27.1367 10.8418 27.0752 10.459 26.9521C10.0807 26.8291 9.74577 26.6514 9.4541 26.4189C9.16243 26.182 8.93457 25.8926 8.77051 25.5508C8.60645 25.2044 8.52441 24.8102 8.52441 24.3682H9.78906C9.78906 24.7145 9.86426 25.0176 10.0146 25.2773C10.1696 25.5371 10.3883 25.7399 10.6709 25.8857C10.958 26.027 11.2952 26.0977 11.6826 26.0977C12.07 26.0977 12.4027 26.0316 12.6807 25.8994C12.9632 25.7627 13.1797 25.5576 13.3301 25.2842C13.485 25.0107 13.5625 24.6667 13.5625 24.252C13.5625 23.8372 13.4759 23.4977 13.3027 23.2334C13.1296 22.9645 12.8835 22.7663 12.5645 22.6387C12.25 22.5065 11.8786 22.4404 11.4502 22.4404H10.5479ZM17.8623 25.4961V26.5146C17.8623 26.9294 17.7575 27.3669 17.5479 27.8271C17.3382 28.292 17.0443 28.6794 16.666 28.9893L15.9482 28.4902C16.0941 28.2897 16.2171 28.0846 16.3174 27.875C16.4176 27.6699 16.4928 27.4557 16.543 27.2324C16.5977 27.0137 16.625 26.7812 16.625 26.5352V25.4961H17.8623ZM21.1846 21.4014H22.0869C22.529 21.4014 22.8936 21.3285 23.1807 21.1826C23.4723 21.0322 23.6888 20.8294 23.8301 20.5742C23.9759 20.3145 24.0488 20.0228 24.0488 19.6992C24.0488 19.3164 23.985 18.9951 23.8574 18.7354C23.7298 18.4756 23.5384 18.2796 23.2832 18.1475C23.028 18.0153 22.7044 17.9492 22.3125 17.9492C21.957 17.9492 21.6426 18.0199 21.3691 18.1611C21.1003 18.2979 20.8883 18.4938 20.7334 18.749C20.583 19.0042 20.5078 19.305 20.5078 19.6514H19.2432C19.2432 19.1455 19.3708 18.6852 19.626 18.2705C19.8812 17.8558 20.2389 17.5254 20.6992 17.2793C21.1641 17.0332 21.7018 16.9102 22.3125 16.9102C22.9141 16.9102 23.4404 17.0173 23.8916 17.2314C24.3428 17.4411 24.6937 17.7555 24.9443 18.1748C25.195 18.5895 25.3203 19.1068 25.3203 19.7266C25.3203 19.9772 25.2611 20.2461 25.1426 20.5332C25.0286 20.8158 24.8486 21.0801 24.6025 21.3262C24.361 21.5723 24.0465 21.7751 23.6592 21.9346C23.2718 22.0895 22.807 22.167 22.2646 22.167H21.1846V21.4014ZM21.1846 22.4404V21.6816H22.2646C22.8981 21.6816 23.4222 21.7568 23.8369 21.9072C24.2516 22.0576 24.5775 22.2581 24.8145 22.5088C25.056 22.7594 25.2246 23.0352 25.3203 23.3359C25.4206 23.6322 25.4707 23.9284 25.4707 24.2246C25.4707 24.6895 25.391 25.1019 25.2314 25.4619C25.0765 25.8219 24.8555 26.1273 24.5684 26.3779C24.2858 26.6286 23.9531 26.8177 23.5703 26.9453C23.1875 27.0729 22.7705 27.1367 22.3193 27.1367C21.8864 27.1367 21.4785 27.0752 21.0957 26.9521C20.7174 26.8291 20.3825 26.6514 20.0908 26.4189C19.7992 26.182 19.5713 25.8926 19.4072 25.5508C19.2432 25.2044 19.1611 24.8102 19.1611 24.3682H20.4258C20.4258 24.7145 20.501 25.0176 20.6514 25.2773C20.8063 25.5371 21.0251 25.7399 21.3076 25.8857C21.5947 26.027 21.932 26.0977 22.3193 26.0977C22.7067 26.0977 23.0394 26.0316 23.3174 25.8994C23.5999 25.7627 23.8164 25.5576 23.9668 25.2842C24.1217 25.0107 24.1992 24.6667 24.1992 24.252C24.1992 23.8372 24.1126 23.4977 23.9395 23.2334C23.7663 22.9645 23.5202 22.7663 23.2012 22.6387C22.8867 22.5065 22.5153 22.4404 22.0869 22.4404H21.1846ZM32.0811 21.0732V27H30.8096V19.6035H32.0127L32.0811 21.0732ZM31.8213 23.0215L31.2334 23.001C31.238 22.4951 31.304 22.028 31.4316 21.5996C31.5592 21.1667 31.7484 20.7907 31.999 20.4717C32.2497 20.1527 32.5618 19.9066 32.9355 19.7334C33.3092 19.5557 33.7422 19.4668 34.2344 19.4668C34.5807 19.4668 34.8997 19.5169 35.1914 19.6172C35.4831 19.7129 35.736 19.8656 35.9502 20.0752C36.1644 20.2848 36.3307 20.5537 36.4492 20.8818C36.5677 21.21 36.627 21.6064 36.627 22.0713V27H35.3623V22.1328C35.3623 21.7454 35.2962 21.4355 35.1641 21.2031C35.0365 20.9707 34.8542 20.8021 34.6172 20.6973C34.3802 20.5879 34.1022 20.5332 33.7832 20.5332C33.4095 20.5332 33.0973 20.5993 32.8467 20.7314C32.596 20.8636 32.3955 21.0459 32.2451 21.2783C32.0947 21.5107 31.9854 21.7773 31.917 22.0781C31.8532 22.3743 31.8213 22.6888 31.8213 23.0215ZM36.6133 22.3242L35.7656 22.584C35.7702 22.1784 35.8363 21.7887 35.9639 21.415C36.096 21.0413 36.2852 20.7087 36.5312 20.417C36.7819 20.1253 37.0895 19.8952 37.4541 19.7266C37.8187 19.5534 38.2357 19.4668 38.7051 19.4668C39.1016 19.4668 39.4525 19.5192 39.7578 19.624C40.0677 19.7288 40.3275 19.8906 40.5371 20.1094C40.7513 20.3236 40.9131 20.5993 41.0225 20.9365C41.1318 21.2738 41.1865 21.6748 41.1865 22.1396V27H39.915V22.126C39.915 21.7113 39.849 21.39 39.7168 21.1621C39.5892 20.9297 39.4069 20.7679 39.1699 20.6768C38.9375 20.5811 38.6595 20.5332 38.3359 20.5332C38.0579 20.5332 37.8118 20.5811 37.5977 20.6768C37.3835 20.7725 37.2035 20.9046 37.0576 21.0732C36.9118 21.2373 36.8001 21.4264 36.7227 21.6406C36.6497 21.8548 36.6133 22.0827 36.6133 22.3242ZM44.4746 19.6035V27H43.2031V19.6035H44.4746ZM43.1074 17.6416C43.1074 17.4365 43.1689 17.2633 43.292 17.1221C43.4196 16.9808 43.6064 16.9102 43.8525 16.9102C44.0941 16.9102 44.2786 16.9808 44.4062 17.1221C44.5384 17.2633 44.6045 17.4365 44.6045 17.6416C44.6045 17.8376 44.5384 18.0062 44.4062 18.1475C44.2786 18.2842 44.0941 18.3525 43.8525 18.3525C43.6064 18.3525 43.4196 18.2842 43.292 18.1475C43.1689 18.0062 43.1074 17.8376 43.1074 17.6416ZM47.8789 16.5V27H46.6074V16.5H47.8789ZM54.7559 19.6035V27H53.4844V19.6035H54.7559ZM53.3887 17.6416C53.3887 17.4365 53.4502 17.2633 53.5732 17.1221C53.7008 16.9808 53.8877 16.9102 54.1338 16.9102C54.3753 16.9102 54.5599 16.9808 54.6875 17.1221C54.8197 17.2633 54.8857 17.4365 54.8857 17.6416C54.8857 17.8376 54.8197 18.0062 54.6875 18.1475C54.5599 18.2842 54.3753 18.3525 54.1338 18.3525C53.8877 18.3525 53.7008 18.2842 53.5732 18.1475C53.4502 18.0062 53.3887 17.8376 53.3887 17.6416ZM58.0508 21.1826V27H56.7861V19.6035H57.9824L58.0508 21.1826ZM57.75 23.0215L57.2236 23.001C57.2282 22.4951 57.3034 22.028 57.4492 21.5996C57.5951 21.1667 57.8001 20.7907 58.0645 20.4717C58.3288 20.1527 58.6432 19.9066 59.0078 19.7334C59.377 19.5557 59.7848 19.4668 60.2314 19.4668C60.596 19.4668 60.9242 19.5169 61.2158 19.6172C61.5075 19.7129 61.7559 19.8678 61.9609 20.082C62.1706 20.2962 62.3301 20.5742 62.4395 20.916C62.5488 21.2533 62.6035 21.6657 62.6035 22.1533V27H61.332V22.1396C61.332 21.7523 61.2751 21.4424 61.1611 21.21C61.0472 20.973 60.8809 20.8021 60.6621 20.6973C60.4434 20.5879 60.1745 20.5332 59.8555 20.5332C59.541 20.5332 59.2539 20.5993 58.9941 20.7314C58.7389 20.8636 58.5179 21.0459 58.3311 21.2783C58.1488 21.5107 58.0052 21.7773 57.9004 22.0781C57.8001 22.3743 57.75 22.6888 57.75 23.0215ZM68.8311 25.0381C68.8311 24.8558 68.79 24.6872 68.708 24.5322C68.6305 24.3727 68.4688 24.2292 68.2227 24.1016C67.9811 23.9694 67.6165 23.8555 67.1289 23.7598C66.7188 23.6732 66.3473 23.5706 66.0146 23.4521C65.6865 23.3337 65.4062 23.1901 65.1738 23.0215C64.946 22.8529 64.7705 22.6546 64.6475 22.4268C64.5244 22.1989 64.4629 21.9323 64.4629 21.627C64.4629 21.3353 64.5267 21.0596 64.6543 20.7998C64.7865 20.54 64.971 20.3099 65.208 20.1094C65.4495 19.9089 65.7389 19.7516 66.0762 19.6377C66.4134 19.5238 66.7894 19.4668 67.2041 19.4668C67.7965 19.4668 68.3024 19.5716 68.7217 19.7812C69.141 19.9909 69.4622 20.2712 69.6855 20.6221C69.9089 20.9684 70.0205 21.3535 70.0205 21.7773H68.7559C68.7559 21.5723 68.6943 21.374 68.5713 21.1826C68.4528 20.9867 68.2773 20.8249 68.0449 20.6973C67.8171 20.5697 67.5368 20.5059 67.2041 20.5059C66.8532 20.5059 66.5684 20.5605 66.3496 20.6699C66.1354 20.7747 65.9782 20.9092 65.8779 21.0732C65.7822 21.2373 65.7344 21.4105 65.7344 21.5928C65.7344 21.7295 65.7572 21.8525 65.8027 21.9619C65.8529 22.0667 65.9395 22.1647 66.0625 22.2559C66.1855 22.3424 66.3587 22.4245 66.582 22.502C66.8053 22.5794 67.0902 22.6569 67.4365 22.7344C68.0426 22.8711 68.5417 23.0352 68.9336 23.2266C69.3255 23.418 69.6172 23.6527 69.8086 23.9307C70 24.2087 70.0957 24.5459 70.0957 24.9424C70.0957 25.266 70.0273 25.5622 69.8906 25.8311C69.7585 26.0999 69.5648 26.3324 69.3096 26.5283C69.0589 26.7197 68.7581 26.8701 68.4072 26.9795C68.0609 27.0843 67.6712 27.1367 67.2383 27.1367C66.5866 27.1367 66.0352 27.0205 65.584 26.7881C65.1328 26.5557 64.791 26.2549 64.5586 25.8857C64.3262 25.5166 64.21 25.127 64.21 24.7168H65.4814C65.4997 25.0632 65.5999 25.3389 65.7822 25.5439C65.9645 25.7445 66.1878 25.888 66.4521 25.9746C66.7165 26.0566 66.9785 26.0977 67.2383 26.0977C67.5846 26.0977 67.874 26.0521 68.1064 25.9609C68.3434 25.8698 68.5234 25.7445 68.6465 25.585C68.7695 25.4255 68.8311 25.2432 68.8311 25.0381ZM74.7168 26.0977C75.0176 26.0977 75.2956 26.0361 75.5508 25.9131C75.806 25.79 76.0156 25.6214 76.1797 25.4072C76.3438 25.1885 76.4372 24.9401 76.46 24.6621H77.6631C77.6403 25.0996 77.4922 25.5075 77.2188 25.8857C76.9499 26.2594 76.5967 26.5625 76.1592 26.7949C75.7217 27.0228 75.2409 27.1367 74.7168 27.1367C74.1608 27.1367 73.6755 27.0387 73.2607 26.8428C72.8506 26.6468 72.5088 26.3779 72.2354 26.0361C71.9665 25.6943 71.7637 25.3024 71.627 24.8604C71.4948 24.4137 71.4287 23.9421 71.4287 23.4453V23.1582C71.4287 22.6615 71.4948 22.1921 71.627 21.75C71.7637 21.3034 71.9665 20.9092 72.2354 20.5674C72.5088 20.2256 72.8506 19.9567 73.2607 19.7607C73.6755 19.5648 74.1608 19.4668 74.7168 19.4668C75.2956 19.4668 75.8014 19.5853 76.2344 19.8223C76.6673 20.0547 77.0068 20.3737 77.2529 20.7793C77.5036 21.1803 77.6403 21.6361 77.6631 22.1465H76.46C76.4372 21.8411 76.3506 21.5654 76.2002 21.3193C76.0544 21.0732 75.8538 20.8773 75.5986 20.7314C75.348 20.5811 75.054 20.5059 74.7168 20.5059C74.3294 20.5059 74.0036 20.5833 73.7393 20.7383C73.4795 20.8887 73.2721 21.0938 73.1172 21.3535C72.9668 21.6087 72.8574 21.8936 72.7891 22.208C72.7253 22.5179 72.6934 22.8346 72.6934 23.1582V23.4453C72.6934 23.7689 72.7253 24.0879 72.7891 24.4023C72.8529 24.7168 72.96 25.0016 73.1104 25.2568C73.2653 25.512 73.4727 25.7171 73.7324 25.8721C73.9967 26.0225 74.3249 26.0977 74.7168 26.0977ZM80.3496 20.7656V27H79.085V19.6035H80.3154L80.3496 20.7656ZM82.6602 19.5625L82.6533 20.7383C82.5485 20.7155 82.4482 20.7018 82.3525 20.6973C82.2614 20.6882 82.1566 20.6836 82.0381 20.6836C81.7464 20.6836 81.4889 20.7292 81.2656 20.8203C81.0423 20.9115 80.8532 21.0391 80.6982 21.2031C80.5433 21.3672 80.4202 21.5632 80.3291 21.791C80.2425 22.0143 80.1855 22.2604 80.1582 22.5293L79.8027 22.7344C79.8027 22.2878 79.846 21.8685 79.9326 21.4766C80.0238 21.0846 80.1628 20.7383 80.3496 20.4375C80.5365 20.1322 80.7734 19.8952 81.0605 19.7266C81.3522 19.5534 81.6986 19.4668 82.0996 19.4668C82.1908 19.4668 82.2956 19.4782 82.4141 19.501C82.5326 19.5192 82.6146 19.5397 82.6602 19.5625ZM85.2031 19.6035V27H83.9316V19.6035H85.2031ZM83.8359 17.6416C83.8359 17.4365 83.8975 17.2633 84.0205 17.1221C84.1481 16.9808 84.335 16.9102 84.5811 16.9102C84.8226 16.9102 85.0072 16.9808 85.1348 17.1221C85.2669 17.2633 85.333 17.4365 85.333 17.6416C85.333 17.8376 85.2669 18.0062 85.1348 18.1475C85.0072 18.2842 84.8226 18.3525 84.5811 18.3525C84.335 18.3525 84.1481 18.2842 84.0205 18.1475C83.8975 18.0062 83.8359 17.8376 83.8359 17.6416ZM90.3301 19.6035V20.5742H86.3311V19.6035H90.3301ZM87.6846 17.8057H88.9492V25.168C88.9492 25.4186 88.988 25.6077 89.0654 25.7354C89.1429 25.863 89.2432 25.9473 89.3662 25.9883C89.4893 26.0293 89.6214 26.0498 89.7627 26.0498C89.8675 26.0498 89.9769 26.0407 90.0908 26.0225C90.2093 25.9997 90.2982 25.9814 90.3574 25.9678L90.3643 27C90.264 27.0319 90.1318 27.0615 89.9678 27.0889C89.8083 27.1208 89.6146 27.1367 89.3867 27.1367C89.0768 27.1367 88.792 27.0752 88.5322 26.9521C88.2725 26.8291 88.0651 26.624 87.9102 26.3369C87.7598 26.0452 87.6846 25.6533 87.6846 25.1611V17.8057ZM91.3418 23.3838V23.2266C91.3418 22.6934 91.4193 22.1989 91.5742 21.7432C91.7292 21.2829 91.9525 20.8841 92.2441 20.5469C92.5358 20.2051 92.889 19.9408 93.3037 19.7539C93.7184 19.5625 94.1833 19.4668 94.6982 19.4668C95.2178 19.4668 95.6849 19.5625 96.0996 19.7539C96.5189 19.9408 96.8743 20.2051 97.166 20.5469C97.4622 20.8841 97.6878 21.2829 97.8428 21.7432C97.9977 22.1989 98.0752 22.6934 98.0752 23.2266V23.3838C98.0752 23.917 97.9977 24.4115 97.8428 24.8672C97.6878 25.3229 97.4622 25.7217 97.166 26.0635C96.8743 26.4007 96.5212 26.665 96.1064 26.8564C95.6963 27.0433 95.2314 27.1367 94.7119 27.1367C94.1924 27.1367 93.7253 27.0433 93.3105 26.8564C92.8958 26.665 92.5404 26.4007 92.2441 26.0635C91.9525 25.7217 91.7292 25.3229 91.5742 24.8672C91.4193 24.4115 91.3418 23.917 91.3418 23.3838ZM92.6064 23.2266V23.3838C92.6064 23.7529 92.6497 24.1016 92.7363 24.4297C92.8229 24.7533 92.9528 25.0404 93.126 25.291C93.3037 25.5417 93.5247 25.7399 93.7891 25.8857C94.0534 26.027 94.361 26.0977 94.7119 26.0977C95.0583 26.0977 95.3613 26.027 95.6211 25.8857C95.8854 25.7399 96.1042 25.5417 96.2773 25.291C96.4505 25.0404 96.5804 24.7533 96.667 24.4297C96.7581 24.1016 96.8037 23.7529 96.8037 23.3838V23.2266C96.8037 22.862 96.7581 22.5179 96.667 22.1943C96.5804 21.8662 96.4482 21.5768 96.2705 21.3262C96.0973 21.071 95.8786 20.8704 95.6143 20.7246C95.3545 20.5788 95.0492 20.5059 94.6982 20.5059C94.3519 20.5059 94.0465 20.5788 93.7822 20.7246C93.5225 20.8704 93.3037 21.071 93.126 21.3262C92.9528 21.5768 92.8229 21.8662 92.7363 22.1943C92.6497 22.5179 92.6064 22.862 92.6064 23.2266ZM103.968 25.0381C103.968 24.8558 103.927 24.6872 103.845 24.5322C103.767 24.3727 103.605 24.2292 103.359 24.1016C103.118 23.9694 102.753 23.8555 102.266 23.7598C101.855 23.6732 101.484 23.5706 101.151 23.4521C100.823 23.3337 100.543 23.1901 100.311 23.0215C100.083 22.8529 99.9072 22.6546 99.7842 22.4268C99.6611 22.1989 99.5996 21.9323 99.5996 21.627C99.5996 21.3353 99.6634 21.0596 99.791 20.7998C99.9232 20.54 100.108 20.3099 100.345 20.1094C100.586 19.9089 100.876 19.7516 101.213 19.6377C101.55 19.5238 101.926 19.4668 102.341 19.4668C102.933 19.4668 103.439 19.5716 103.858 19.7812C104.278 19.9909 104.599 20.2712 104.822 20.6221C105.046 20.9684 105.157 21.3535 105.157 21.7773H103.893C103.893 21.5723 103.831 21.374 103.708 21.1826C103.59 20.9867 103.414 20.8249 103.182 20.6973C102.954 20.5697 102.674 20.5059 102.341 20.5059C101.99 20.5059 101.705 20.5605 101.486 20.6699C101.272 20.7747 101.115 20.9092 101.015 21.0732C100.919 21.2373 100.871 21.4105 100.871 21.5928C100.871 21.7295 100.894 21.8525 100.939 21.9619C100.99 22.0667 101.076 22.1647 101.199 22.2559C101.322 22.3424 101.495 22.4245 101.719 22.502C101.942 22.5794 102.227 22.6569 102.573 22.7344C103.179 22.8711 103.678 23.0352 104.07 23.2266C104.462 23.418 104.754 23.6527 104.945 23.9307C105.137 24.2087 105.232 24.5459 105.232 24.9424C105.232 25.266 105.164 25.5622 105.027 25.8311C104.895 26.0999 104.701 26.3324 104.446 26.5283C104.196 26.7197 103.895 26.8701 103.544 26.9795C103.198 27.0843 102.808 27.1367 102.375 27.1367C101.723 27.1367 101.172 27.0205 100.721 26.7881C100.27 26.5557 99.9277 26.2549 99.6953 25.8857C99.4629 25.5166 99.3467 25.127 99.3467 24.7168H100.618C100.636 25.0632 100.737 25.3389 100.919 25.5439C101.101 25.7445 101.325 25.888 101.589 25.9746C101.853 26.0566 102.115 26.0977 102.375 26.0977C102.721 26.0977 103.011 26.0521 103.243 25.9609C103.48 25.8698 103.66 25.7445 103.783 25.585C103.906 25.4255 103.968 25.2432 103.968 25.0381Z" fill="#515151"/>
</svg>
