<svg width="870" height="20" viewBox="0 0 870 20" fill="none" xmlns="http://www.w3.org/2000/svg">
<path d="M8.79883 11.3086C8.79883 11.0352 8.75651 10.791 8.67188 10.5762C8.59375 10.3548 8.44727 10.1562 8.23242 9.98047C8.02409 9.79818 7.72786 9.6224 7.34375 9.45312C6.96615 9.27734 6.47786 9.09505 5.87891 8.90625C5.21484 8.69792 4.59635 8.46354 4.02344 8.20312C3.45052 7.94271 2.94596 7.63997 2.50977 7.29492C2.08008 6.94987 1.74479 6.55273 1.50391 6.10352C1.26302 5.64779 1.14258 5.12044 1.14258 4.52148C1.14258 3.93555 1.26628 3.40169 1.51367 2.91992C1.76758 2.43815 2.12565 2.02474 2.58789 1.67969C3.05013 1.32812 3.59375 1.05794 4.21875 0.869141C4.85026 0.680339 5.54688 0.585938 6.30859 0.585938C7.36328 0.585938 8.27474 0.777995 9.04297 1.16211C9.81771 1.54622 10.4167 2.06706 10.8398 2.72461C11.263 3.38216 11.4746 4.12109 11.4746 4.94141H8.79883C8.79883 4.4987 8.70443 4.10807 8.51562 3.76953C8.33333 3.43099 8.05339 3.16406 7.67578 2.96875C7.30469 2.77344 6.83594 2.67578 6.26953 2.67578C5.72266 2.67578 5.26693 2.75716 4.90234 2.91992C4.54427 3.08268 4.27409 3.30404 4.0918 3.58398C3.91602 3.86393 3.82812 4.17643 3.82812 4.52148C3.82812 4.7819 3.88997 5.01628 4.01367 5.22461C4.13737 5.42643 4.32292 5.61849 4.57031 5.80078C4.81771 5.97656 5.1237 6.14258 5.48828 6.29883C5.85938 6.44857 6.28906 6.59831 6.77734 6.74805C7.55859 6.98242 8.24219 7.24284 8.82812 7.5293C9.42057 7.81576 9.91211 8.14128 10.3027 8.50586C10.6999 8.87044 10.9961 9.2806 11.1914 9.73633C11.3932 10.1921 11.4941 10.7096 11.4941 11.2891C11.4941 11.901 11.3737 12.4479 11.1328 12.9297C10.8919 13.4115 10.5469 13.8216 10.0977 14.1602C9.64844 14.4987 9.10807 14.7559 8.47656 14.9316C7.85156 15.1074 7.15169 15.1953 6.37695 15.1953C5.68685 15.1953 5.00326 15.1042 4.32617 14.9219C3.6556 14.7331 3.04688 14.4531 2.5 14.082C1.95312 13.7044 1.51693 13.2292 1.19141 12.6562C0.865885 12.0768 0.703125 11.3997 0.703125 10.625H3.39844C3.39844 11.0742 3.47005 11.4583 3.61328 11.7773C3.76302 12.0898 3.97135 12.347 4.23828 12.5488C4.51172 12.7441 4.83073 12.8874 5.19531 12.9785C5.5599 13.0697 5.95378 13.1152 6.37695 13.1152C6.92383 13.1152 7.37305 13.0404 7.72461 12.8906C8.08268 12.7344 8.34961 12.5195 8.52539 12.2461C8.70768 11.9727 8.79883 11.6602 8.79883 11.3086ZM18.1152 15.1953C17.3145 15.1953 16.5951 15.0651 15.957 14.8047C15.319 14.5443 14.7754 14.1829 14.3262 13.7207C13.8835 13.252 13.5417 12.7083 13.3008 12.0898C13.0664 11.4648 12.9492 10.7943 12.9492 10.0781V9.6875C12.9492 8.8737 13.0664 8.13477 13.3008 7.4707C13.5352 6.80013 13.8672 6.22396 14.2969 5.74219C14.7266 5.26042 15.2409 4.88932 15.8398 4.62891C16.4388 4.36849 17.0996 4.23828 17.8223 4.23828C18.571 4.23828 19.2318 4.36523 19.8047 4.61914C20.3776 4.86654 20.8561 5.2181 21.2402 5.67383C21.6243 6.12956 21.9141 6.67643 22.1094 7.31445C22.3047 7.94596 22.4023 8.64583 22.4023 9.41406V10.498H14.1211V8.7207H19.8633V8.52539C19.8503 8.11523 19.7721 7.74089 19.6289 7.40234C19.4857 7.05729 19.2643 6.78385 18.9648 6.58203C18.6654 6.3737 18.278 6.26953 17.8027 6.26953C17.4186 6.26953 17.0833 6.35417 16.7969 6.52344C16.5169 6.6862 16.2826 6.92057 16.0938 7.22656C15.9115 7.52604 15.7747 7.88411 15.6836 8.30078C15.5924 8.71745 15.5469 9.17969 15.5469 9.6875V10.0781C15.5469 10.5208 15.6055 10.931 15.7227 11.3086C15.8464 11.6862 16.0254 12.015 16.2598 12.2949C16.5007 12.5684 16.7871 12.7832 17.1191 12.9395C17.4577 13.0892 17.8418 13.1641 18.2715 13.1641C18.8118 13.1641 19.3001 13.0599 19.7363 12.8516C20.179 12.6367 20.5632 12.321 20.8887 11.9043L22.1875 13.252C21.9661 13.5775 21.6667 13.89 21.2891 14.1895C20.918 14.4889 20.4688 14.7331 19.9414 14.9219C19.4141 15.1042 18.8053 15.1953 18.1152 15.1953ZM26.6992 6.60156V15H24.1211V4.43359H26.5527L26.6992 6.60156ZM26.3184 9.33594H25.5273C25.5273 8.60026 25.6152 7.92318 25.791 7.30469C25.9733 6.6862 26.2402 6.14909 26.5918 5.69336C26.9434 5.23112 27.3763 4.87305 27.8906 4.61914C28.4115 4.36523 29.0137 4.23828 29.6973 4.23828C30.1725 4.23828 30.6087 4.3099 31.0059 4.45312C31.403 4.58984 31.7448 4.80794 32.0312 5.10742C32.3242 5.40039 32.5488 5.78451 32.7051 6.25977C32.8613 6.72852 32.9395 7.29167 32.9395 7.94922V15H30.3613V8.21289C30.3613 7.7181 30.2897 7.33073 30.1465 7.05078C30.0098 6.77083 29.8112 6.57552 29.5508 6.46484C29.2904 6.34766 28.9779 6.28906 28.6133 6.28906C28.2096 6.28906 27.8613 6.37044 27.5684 6.5332C27.2819 6.68945 27.0443 6.90755 26.8555 7.1875C26.6732 7.46745 26.5365 7.78971 26.4453 8.1543C26.3607 8.51888 26.3184 8.91276 26.3184 9.33594ZM32.7441 8.85742L31.6797 9.05273C31.6862 8.38867 31.7773 7.76693 31.9531 7.1875C32.1289 6.60156 32.3861 6.09049 32.7246 5.6543C33.0697 5.21159 33.4961 4.86654 34.0039 4.61914C34.5182 4.36523 35.1107 4.23828 35.7812 4.23828C36.3021 4.23828 36.7708 4.31315 37.1875 4.46289C37.6107 4.60612 37.972 4.83724 38.2715 5.15625C38.571 5.46875 38.7988 5.87565 38.9551 6.37695C39.1178 6.87826 39.1992 7.49023 39.1992 8.21289V15H36.6016V8.20312C36.6016 7.6888 36.5299 7.29492 36.3867 7.02148C36.25 6.74805 36.0514 6.55924 35.791 6.45508C35.5306 6.3444 35.2246 6.28906 34.873 6.28906C34.515 6.28906 34.2025 6.35742 33.9355 6.49414C33.6751 6.62435 33.4538 6.80664 33.2715 7.04102C33.0957 7.27539 32.9622 7.54883 32.8711 7.86133C32.7865 8.16732 32.7441 8.49935 32.7441 8.85742ZM47.334 12.7539V7.88086C47.334 7.52279 47.2721 7.21354 47.1484 6.95312C47.0247 6.69271 46.8359 6.49089 46.582 6.34766C46.3281 6.20443 46.0059 6.13281 45.6152 6.13281C45.2702 6.13281 44.9674 6.19141 44.707 6.30859C44.4531 6.42578 44.2578 6.5918 44.1211 6.80664C43.9844 7.01497 43.916 7.25586 43.916 7.5293H41.3281C41.3281 7.0931 41.4323 6.67969 41.6406 6.28906C41.849 5.89193 42.1452 5.54036 42.5293 5.23438C42.9199 4.92188 43.3854 4.67773 43.9258 4.50195C44.4727 4.32617 45.0846 4.23828 45.7617 4.23828C46.5625 4.23828 47.2754 4.375 47.9004 4.64844C48.5319 4.91536 49.0267 5.31901 49.3848 5.85938C49.7493 6.39974 49.9316 7.08008 49.9316 7.90039V12.5098C49.9316 13.0371 49.9642 13.4896 50.0293 13.8672C50.1009 14.2383 50.2051 14.5605 50.3418 14.834V15H47.7148C47.5911 14.7331 47.4967 14.3945 47.4316 13.9844C47.3665 13.5677 47.334 13.1576 47.334 12.7539ZM47.6953 8.56445L47.7148 10.0977H46.084C45.6803 10.0977 45.3255 10.14 45.0195 10.2246C44.7135 10.3027 44.4629 10.4199 44.2676 10.5762C44.0723 10.7259 43.9258 10.9082 43.8281 11.123C43.7305 11.3314 43.6816 11.569 43.6816 11.8359C43.6816 12.0964 43.7402 12.3307 43.8574 12.5391C43.9811 12.7474 44.1569 12.9134 44.3848 13.0371C44.6191 13.1543 44.8926 13.2129 45.2051 13.2129C45.6608 13.2129 46.0579 13.1217 46.3965 12.9395C46.735 12.7507 46.9987 12.5228 47.1875 12.2559C47.3763 11.9889 47.4772 11.735 47.4902 11.4941L48.2324 12.6074C48.1413 12.8743 48.0046 13.1576 47.8223 13.457C47.64 13.7565 47.4056 14.0365 47.1191 14.2969C46.8327 14.5573 46.4876 14.7721 46.084 14.9414C45.6803 15.1107 45.2116 15.1953 44.6777 15.1953C43.9941 15.1953 43.3822 15.0586 42.8418 14.7852C42.3014 14.5117 41.875 14.1374 41.5625 13.6621C41.25 13.1868 41.0938 12.6465 41.0938 12.041C41.0938 11.4811 41.1979 10.9863 41.4062 10.5566C41.6146 10.127 41.9238 9.76562 42.334 9.47266C42.7441 9.17318 43.252 8.94857 43.8574 8.79883C44.4694 8.64258 45.1693 8.56445 45.957 8.56445H47.6953ZM54.7852 6.68945V15H52.207V4.43359H54.6289L54.7852 6.68945ZM54.375 9.33594H53.6133C53.6198 8.56771 53.724 7.87109 53.9258 7.24609C54.1276 6.62109 54.4108 6.08398 54.7754 5.63477C55.1465 5.18555 55.5859 4.84049 56.0938 4.59961C56.6016 4.35872 57.168 4.23828 57.793 4.23828C58.3008 4.23828 58.7598 4.3099 59.1699 4.45312C59.5801 4.59635 59.9316 4.82422 60.2246 5.13672C60.5241 5.44922 60.752 5.85938 60.9082 6.36719C61.071 6.86849 61.1523 7.48698 61.1523 8.22266V15H58.5547V8.20312C58.5547 7.72135 58.4831 7.34049 58.3398 7.06055C58.2031 6.7806 58.0013 6.58203 57.7344 6.46484C57.474 6.34766 57.1517 6.28906 56.7676 6.28906C56.3704 6.28906 56.0221 6.37044 55.7227 6.5332C55.4297 6.68945 55.1823 6.90755 54.9805 7.1875C54.7852 7.46745 54.6354 7.78971 54.5312 8.1543C54.4271 8.51888 54.375 8.91276 54.375 9.33594ZM69.248 12.7539V7.88086C69.248 7.52279 69.1862 7.21354 69.0625 6.95312C68.9388 6.69271 68.75 6.49089 68.4961 6.34766C68.2422 6.20443 67.9199 6.13281 67.5293 6.13281C67.1842 6.13281 66.8815 6.19141 66.6211 6.30859C66.3672 6.42578 66.1719 6.5918 66.0352 6.80664C65.8984 7.01497 65.8301 7.25586 65.8301 7.5293H63.2422C63.2422 7.0931 63.3464 6.67969 63.5547 6.28906C63.763 5.89193 64.0592 5.54036 64.4434 5.23438C64.834 4.92188 65.2995 4.67773 65.8398 4.50195C66.3867 4.32617 66.9987 4.23828 67.6758 4.23828C68.4766 4.23828 69.1895 4.375 69.8145 4.64844C70.446 4.91536 70.9408 5.31901 71.2988 5.85938C71.6634 6.39974 71.8457 7.08008 71.8457 7.90039V12.5098C71.8457 13.0371 71.8783 13.4896 71.9434 13.8672C72.015 14.2383 72.1191 14.5605 72.2559 14.834V15H69.6289C69.5052 14.7331 69.4108 14.3945 69.3457 13.9844C69.2806 13.5677 69.248 13.1576 69.248 12.7539ZM69.6094 8.56445L69.6289 10.0977H67.998C67.5944 10.0977 67.2396 10.14 66.9336 10.2246C66.6276 10.3027 66.377 10.4199 66.1816 10.5762C65.9863 10.7259 65.8398 10.9082 65.7422 11.123C65.6445 11.3314 65.5957 11.569 65.5957 11.8359C65.5957 12.0964 65.6543 12.3307 65.7715 12.5391C65.8952 12.7474 66.071 12.9134 66.2988 13.0371C66.5332 13.1543 66.8066 13.2129 67.1191 13.2129C67.5749 13.2129 67.972 13.1217 68.3105 12.9395C68.6491 12.7507 68.9128 12.5228 69.1016 12.2559C69.2904 11.9889 69.3913 11.735 69.4043 11.4941L70.1465 12.6074C70.0553 12.8743 69.9186 13.1576 69.7363 13.457C69.554 13.7565 69.3197 14.0365 69.0332 14.2969C68.7467 14.5573 68.4017 14.7721 67.998 14.9414C67.5944 15.1107 67.1257 15.1953 66.5918 15.1953C65.9082 15.1953 65.2962 15.0586 64.7559 14.7852C64.2155 14.5117 63.7891 14.1374 63.4766 13.6621C63.1641 13.1868 63.0078 12.6465 63.0078 12.041C63.0078 11.4811 63.112 10.9863 63.3203 10.5566C63.5286 10.127 63.8379 9.76562 64.248 9.47266C64.6582 9.17318 65.166 8.94857 65.7715 8.79883C66.3835 8.64258 67.0833 8.56445 67.8711 8.56445H69.6094ZM82.0312 0.78125V15H79.3457V0.78125H82.0312ZM87.7637 6.92383V9.04297H81.3281V6.92383H87.7637ZM88.5156 0.78125V2.90039H81.3281V0.78125H88.5156ZM92.4707 6.5918V15H89.8926V4.43359H92.334L92.4707 6.5918ZM95.6836 4.36523L95.6445 6.76758C95.5013 6.74154 95.3385 6.72201 95.1562 6.70898C94.9805 6.69596 94.8145 6.68945 94.6582 6.68945C94.2611 6.68945 93.9128 6.74479 93.6133 6.85547C93.3138 6.95964 93.0632 7.11263 92.8613 7.31445C92.666 7.51628 92.5163 7.76367 92.4121 8.05664C92.3079 8.3431 92.2493 8.66862 92.2363 9.0332L91.6797 8.96484C91.6797 8.29427 91.748 7.67253 91.8848 7.09961C92.0215 6.52669 92.2201 6.02539 92.4805 5.5957C92.7409 5.16602 93.0664 4.83398 93.457 4.59961C93.8542 4.35872 94.3099 4.23828 94.8242 4.23828C94.9674 4.23828 95.1204 4.2513 95.2832 4.27734C95.4525 4.29688 95.5859 4.32617 95.6836 4.36523ZM96.3672 9.82422V9.61914C96.3672 8.8444 96.4779 8.13151 96.6992 7.48047C96.9206 6.82292 97.2428 6.25326 97.666 5.77148C98.0892 5.28971 98.6068 4.91536 99.2188 4.64844C99.8307 4.375 100.527 4.23828 101.309 4.23828C102.103 4.23828 102.806 4.375 103.418 4.64844C104.036 4.91536 104.557 5.28971 104.98 5.77148C105.404 6.25326 105.726 6.82292 105.947 7.48047C106.169 8.13151 106.279 8.8444 106.279 9.61914V9.82422C106.279 10.5924 106.169 11.3053 105.947 11.9629C105.726 12.6139 105.404 13.1836 104.98 13.6719C104.557 14.1536 104.04 14.528 103.428 14.7949C102.816 15.0618 102.116 15.1953 101.328 15.1953C100.547 15.1953 99.847 15.0618 99.2285 14.7949C98.61 14.528 98.0892 14.1536 97.666 13.6719C97.2428 13.1836 96.9206 12.6139 96.6992 11.9629C96.4779 11.3053 96.3672 10.5924 96.3672 9.82422ZM98.9453 9.61914V9.82422C98.9453 10.2865 98.9909 10.7194 99.082 11.123C99.1732 11.5267 99.3132 11.8815 99.502 12.1875C99.6908 12.4935 99.9349 12.7344 100.234 12.9102C100.54 13.0794 100.905 13.1641 101.328 13.1641C101.745 13.1641 102.103 13.0794 102.402 12.9102C102.702 12.7344 102.946 12.4935 103.135 12.1875C103.33 11.8815 103.473 11.5267 103.564 11.123C103.656 10.7194 103.701 10.2865 103.701 9.82422V9.61914C103.701 9.16341 103.656 8.73698 103.564 8.33984C103.473 7.9362 103.33 7.58138 103.135 7.27539C102.946 6.96289 102.699 6.71875 102.393 6.54297C102.093 6.36068 101.732 6.26953 101.309 6.26953C100.892 6.26953 100.534 6.36068 100.234 6.54297C99.9349 6.71875 99.6908 6.96289 99.502 7.27539C99.3132 7.58138 99.1732 7.9362 99.082 8.33984C98.9909 8.73698 98.9453 9.16341 98.9453 9.61914ZM110.684 6.68945V15H108.105V4.43359H110.527L110.684 6.68945ZM110.273 9.33594H109.512C109.518 8.56771 109.622 7.87109 109.824 7.24609C110.026 6.62109 110.309 6.08398 110.674 5.63477C111.045 5.18555 111.484 4.84049 111.992 4.59961C112.5 4.35872 113.066 4.23828 113.691 4.23828C114.199 4.23828 114.658 4.3099 115.068 4.45312C115.479 4.59635 115.83 4.82422 116.123 5.13672C116.423 5.44922 116.65 5.85938 116.807 6.36719C116.969 6.86849 117.051 7.48698 117.051 8.22266V15H114.453V8.20312C114.453 7.72135 114.382 7.34049 114.238 7.06055C114.102 6.7806 113.9 6.58203 113.633 6.46484C113.372 6.34766 113.05 6.28906 112.666 6.28906C112.269 6.28906 111.921 6.37044 111.621 6.5332C111.328 6.68945 111.081 6.90755 110.879 7.1875C110.684 7.46745 110.534 7.78971 110.43 8.1543C110.326 8.51888 110.273 8.91276 110.273 9.33594ZM124.326 4.43359V6.28906H118.271V4.43359H124.326ZM119.893 1.83594H122.48V11.9531C122.48 12.2656 122.523 12.5065 122.607 12.6758C122.692 12.8451 122.819 12.959 122.988 13.0176C123.158 13.0762 123.359 13.1055 123.594 13.1055C123.763 13.1055 123.919 13.0957 124.062 13.0762C124.206 13.0566 124.326 13.0371 124.424 13.0176L124.434 14.9512C124.219 15.0228 123.975 15.0814 123.701 15.127C123.434 15.1725 123.132 15.1953 122.793 15.1953C122.214 15.1953 121.706 15.0977 121.27 14.9023C120.833 14.7005 120.495 14.3783 120.254 13.9355C120.013 13.4863 119.893 12.8939 119.893 12.1582V1.83594ZM131.182 7.89062V9.93164H125.84V7.89062H131.182ZM138.135 15.1953C137.334 15.1953 136.615 15.0651 135.977 14.8047C135.339 14.5443 134.795 14.1829 134.346 13.7207C133.903 13.252 133.561 12.7083 133.32 12.0898C133.086 11.4648 132.969 10.7943 132.969 10.0781V9.6875C132.969 8.8737 133.086 8.13477 133.32 7.4707C133.555 6.80013 133.887 6.22396 134.316 5.74219C134.746 5.26042 135.26 4.88932 135.859 4.62891C136.458 4.36849 137.119 4.23828 137.842 4.23828C138.59 4.23828 139.251 4.36523 139.824 4.61914C140.397 4.86654 140.876 5.2181 141.26 5.67383C141.644 6.12956 141.934 6.67643 142.129 7.31445C142.324 7.94596 142.422 8.64583 142.422 9.41406V10.498H134.141V8.7207H139.883V8.52539C139.87 8.11523 139.792 7.74089 139.648 7.40234C139.505 7.05729 139.284 6.78385 138.984 6.58203C138.685 6.3737 138.298 6.26953 137.822 6.26953C137.438 6.26953 137.103 6.35417 136.816 6.52344C136.536 6.6862 136.302 6.92057 136.113 7.22656C135.931 7.52604 135.794 7.88411 135.703 8.30078C135.612 8.71745 135.566 9.17969 135.566 9.6875V10.0781C135.566 10.5208 135.625 10.931 135.742 11.3086C135.866 11.6862 136.045 12.015 136.279 12.2949C136.52 12.5684 136.807 12.7832 137.139 12.9395C137.477 13.0892 137.861 13.1641 138.291 13.1641C138.831 13.1641 139.32 13.0599 139.756 12.8516C140.199 12.6367 140.583 12.321 140.908 11.9043L142.207 13.252C141.986 13.5775 141.686 13.89 141.309 14.1895C140.938 14.4889 140.488 14.7331 139.961 14.9219C139.434 15.1042 138.825 15.1953 138.135 15.1953ZM146.68 6.68945V15H144.102V4.43359H146.523L146.68 6.68945ZM146.27 9.33594H145.508C145.514 8.56771 145.618 7.87109 145.82 7.24609C146.022 6.62109 146.305 6.08398 146.67 5.63477C147.041 5.18555 147.48 4.84049 147.988 4.59961C148.496 4.35872 149.062 4.23828 149.688 4.23828C150.195 4.23828 150.654 4.3099 151.064 4.45312C151.475 4.59635 151.826 4.82422 152.119 5.13672C152.419 5.44922 152.646 5.85938 152.803 6.36719C152.965 6.86849 153.047 7.48698 153.047 8.22266V15H150.449V8.20312C150.449 7.72135 150.378 7.34049 150.234 7.06055C150.098 6.7806 149.896 6.58203 149.629 6.46484C149.368 6.34766 149.046 6.28906 148.662 6.28906C148.265 6.28906 147.917 6.37044 147.617 6.5332C147.324 6.68945 147.077 6.90755 146.875 7.1875C146.68 7.46745 146.53 7.78971 146.426 8.1543C146.322 8.51888 146.27 8.91276 146.27 9.33594ZM161.66 12.7539V0H164.258V15H161.914L161.66 12.7539ZM154.873 9.84375V9.63867C154.873 8.83138 154.964 8.09896 155.146 7.44141C155.335 6.77734 155.609 6.20768 155.967 5.73242C156.325 5.25716 156.758 4.88932 157.266 4.62891C157.78 4.36849 158.363 4.23828 159.014 4.23828C159.645 4.23828 160.195 4.36523 160.664 4.61914C161.139 4.87305 161.543 5.23438 161.875 5.70312C162.214 6.17188 162.484 6.72852 162.686 7.37305C162.887 8.01107 163.034 8.71419 163.125 9.48242V10.0391C163.034 10.7878 162.887 11.4746 162.686 12.0996C162.484 12.7246 162.214 13.2715 161.875 13.7402C161.543 14.2025 161.139 14.5605 160.664 14.8145C160.189 15.0684 159.632 15.1953 158.994 15.1953C158.35 15.1953 157.77 15.0618 157.256 14.7949C156.748 14.528 156.315 14.1536 155.957 13.6719C155.605 13.1901 155.335 12.6237 155.146 11.9727C154.964 11.3216 154.873 10.612 154.873 9.84375ZM157.461 9.63867V9.84375C157.461 10.2995 157.5 10.7259 157.578 11.123C157.656 11.5202 157.783 11.8717 157.959 12.1777C158.135 12.4772 158.359 12.7116 158.633 12.8809C158.913 13.0501 159.251 13.1348 159.648 13.1348C160.156 13.1348 160.573 13.0241 160.898 12.8027C161.23 12.5749 161.488 12.2656 161.67 11.875C161.852 11.4779 161.969 11.0319 162.021 10.5371V9.00391C161.995 8.61328 161.927 8.25195 161.816 7.91992C161.712 7.58789 161.562 7.30143 161.367 7.06055C161.178 6.81966 160.944 6.63086 160.664 6.49414C160.384 6.35742 160.052 6.28906 159.668 6.28906C159.271 6.28906 158.932 6.37695 158.652 6.55273C158.372 6.72201 158.145 6.95964 157.969 7.26562C157.793 7.57161 157.663 7.92643 157.578 8.33008C157.5 8.73372 157.461 9.16992 157.461 9.63867ZM173.74 0.78125V17.6367H172.109V0.78125H173.74ZM186.016 15H182.949L182.969 12.8906H186.016C186.842 12.8906 187.536 12.7083 188.096 12.3438C188.656 11.9727 189.079 11.4421 189.365 10.752C189.652 10.0553 189.795 9.22201 189.795 8.25195V7.51953C189.795 6.77083 189.714 6.11003 189.551 5.53711C189.388 4.96419 189.147 4.48242 188.828 4.0918C188.516 3.70117 188.128 3.40495 187.666 3.20312C187.204 3.0013 186.673 2.90039 186.074 2.90039H182.891V0.78125H186.074C187.025 0.78125 187.891 0.940755 188.672 1.25977C189.46 1.57878 190.14 2.03776 190.713 2.63672C191.292 3.22917 191.735 3.9388 192.041 4.76562C192.354 5.59245 192.51 6.51693 192.51 7.53906V8.25195C192.51 9.26758 192.354 10.1921 192.041 11.0254C191.735 11.8522 191.292 12.5618 190.713 13.1543C190.14 13.7467 189.456 14.2025 188.662 14.5215C187.868 14.8405 186.986 15 186.016 15ZM184.453 0.78125V15H181.768V0.78125H184.453ZM197.334 4.43359V15H194.746V4.43359H197.334ZM194.57 1.66992C194.57 1.28581 194.701 0.966797 194.961 0.712891C195.228 0.458984 195.586 0.332031 196.035 0.332031C196.484 0.332031 196.839 0.458984 197.1 0.712891C197.367 0.966797 197.5 1.28581 197.5 1.66992C197.5 2.04753 197.367 2.36328 197.1 2.61719C196.839 2.87109 196.484 2.99805 196.035 2.99805C195.586 2.99805 195.228 2.87109 194.961 2.61719C194.701 2.36328 194.57 2.04753 194.57 1.66992ZM205.615 12.7539V7.88086C205.615 7.52279 205.553 7.21354 205.43 6.95312C205.306 6.69271 205.117 6.49089 204.863 6.34766C204.609 6.20443 204.287 6.13281 203.896 6.13281C203.551 6.13281 203.249 6.19141 202.988 6.30859C202.734 6.42578 202.539 6.5918 202.402 6.80664C202.266 7.01497 202.197 7.25586 202.197 7.5293H199.609C199.609 7.0931 199.714 6.67969 199.922 6.28906C200.13 5.89193 200.426 5.54036 200.811 5.23438C201.201 4.92188 201.667 4.67773 202.207 4.50195C202.754 4.32617 203.366 4.23828 204.043 4.23828C204.844 4.23828 205.557 4.375 206.182 4.64844C206.813 4.91536 207.308 5.31901 207.666 5.85938C208.031 6.39974 208.213 7.08008 208.213 7.90039V12.5098C208.213 13.0371 208.245 13.4896 208.311 13.8672C208.382 14.2383 208.486 14.5605 208.623 14.834V15H205.996C205.872 14.7331 205.778 14.3945 205.713 13.9844C205.648 13.5677 205.615 13.1576 205.615 12.7539ZM205.977 8.56445L205.996 10.0977H204.365C203.962 10.0977 203.607 10.14 203.301 10.2246C202.995 10.3027 202.744 10.4199 202.549 10.5762C202.354 10.7259 202.207 10.9082 202.109 11.123C202.012 11.3314 201.963 11.569 201.963 11.8359C201.963 12.0964 202.021 12.3307 202.139 12.5391C202.262 12.7474 202.438 12.9134 202.666 13.0371C202.9 13.1543 203.174 13.2129 203.486 13.2129C203.942 13.2129 204.339 13.1217 204.678 12.9395C205.016 12.7507 205.28 12.5228 205.469 12.2559C205.658 11.9889 205.758 11.735 205.771 11.4941L206.514 12.6074C206.423 12.8743 206.286 13.1576 206.104 13.457C205.921 13.7565 205.687 14.0365 205.4 14.2969C205.114 14.5573 204.769 14.7721 204.365 14.9414C203.962 15.1107 203.493 15.1953 202.959 15.1953C202.275 15.1953 201.663 15.0586 201.123 14.7852C200.583 14.5117 200.156 14.1374 199.844 13.6621C199.531 13.1868 199.375 12.6465 199.375 12.041C199.375 11.4811 199.479 10.9863 199.688 10.5566C199.896 10.127 200.205 9.76562 200.615 9.47266C201.025 9.17318 201.533 8.94857 202.139 8.79883C202.751 8.64258 203.451 8.56445 204.238 8.56445H205.977ZM224.795 6.66992V9.0625C224.795 10.1562 224.684 11.0905 224.463 11.8652C224.242 12.64 223.923 13.2747 223.506 13.7695C223.089 14.2578 222.591 14.6191 222.012 14.8535C221.432 15.0814 220.788 15.1953 220.078 15.1953C219.512 15.1953 218.984 15.1237 218.496 14.9805C218.008 14.8307 217.568 14.6029 217.178 14.2969C216.794 13.9844 216.462 13.5872 216.182 13.1055C215.908 12.6237 215.697 12.0475 215.547 11.377C215.404 10.7064 215.332 9.9349 215.332 9.0625V6.66992C215.332 5.57617 215.443 4.64518 215.664 3.87695C215.892 3.10872 216.214 2.48047 216.631 1.99219C217.048 1.50391 217.546 1.14909 218.125 0.927734C218.704 0.69987 219.349 0.585938 220.059 0.585938C220.632 0.585938 221.159 0.657552 221.641 0.800781C222.129 0.94401 222.565 1.16862 222.949 1.47461C223.34 1.77409 223.672 2.16471 223.945 2.64648C224.219 3.12174 224.427 3.69466 224.57 4.36523C224.72 5.0293 224.795 5.79753 224.795 6.66992ZM222.217 9.41406V6.30859C222.217 5.76172 222.184 5.28646 222.119 4.88281C222.061 4.47266 221.973 4.12435 221.855 3.83789C221.738 3.55143 221.592 3.32031 221.416 3.14453C221.24 2.96224 221.038 2.82878 220.811 2.74414C220.583 2.65951 220.332 2.61719 220.059 2.61719C219.72 2.61719 219.417 2.68555 219.15 2.82227C218.883 2.95247 218.659 3.16081 218.477 3.44727C218.294 3.73372 218.154 4.11458 218.057 4.58984C217.965 5.05859 217.92 5.63151 217.92 6.30859V9.41406C217.92 9.96094 217.949 10.4395 218.008 10.8496C218.073 11.2598 218.164 11.6113 218.281 11.9043C218.405 12.1973 218.551 12.4382 218.721 12.627C218.896 12.8092 219.098 12.946 219.326 13.0371C219.554 13.1217 219.805 13.1641 220.078 13.1641C220.423 13.1641 220.726 13.0957 220.986 12.959C221.253 12.8223 221.478 12.6074 221.66 12.3145C221.842 12.015 221.979 11.6276 222.07 11.1523C222.168 10.6706 222.217 10.0911 222.217 9.41406ZM233.447 0.742188V15H230.859V3.75977L227.432 4.89258V2.80273L233.154 0.742188H233.447ZM238.428 13.7402C238.428 13.3496 238.561 13.0208 238.828 12.7539C239.095 12.487 239.456 12.3535 239.912 12.3535C240.368 12.3535 240.729 12.487 240.996 12.7539C241.263 13.0208 241.396 13.3496 241.396 13.7402C241.396 14.1243 241.263 14.4499 240.996 14.7168C240.729 14.9772 240.368 15.1074 239.912 15.1074C239.456 15.1074 239.095 14.9772 238.828 14.7168C238.561 14.4499 238.428 14.1243 238.428 13.7402ZM238.438 5.54688C238.438 5.15625 238.571 4.82747 238.838 4.56055C239.105 4.29362 239.466 4.16016 239.922 4.16016C240.378 4.16016 240.739 4.29362 241.006 4.56055C241.273 4.82747 241.406 5.15625 241.406 5.54688C241.406 5.93099 241.273 6.25651 241.006 6.52344C240.739 6.78385 240.378 6.91406 239.922 6.91406C239.466 6.91406 239.105 6.78385 238.838 6.52344C238.571 6.25651 238.438 5.93099 238.438 5.54688ZM257.314 10.3223H260C259.928 11.2728 259.665 12.1159 259.209 12.8516C258.753 13.5807 258.118 14.1536 257.305 14.5703C256.491 14.987 255.505 15.1953 254.346 15.1953C253.454 15.1953 252.65 15.0391 251.934 14.7266C251.224 14.4076 250.615 13.9551 250.107 13.3691C249.606 12.7767 249.222 12.0671 248.955 11.2402C248.688 10.4069 248.555 9.47266 248.555 8.4375V7.35352C248.555 6.31836 248.691 5.38411 248.965 4.55078C249.238 3.71745 249.629 3.00781 250.137 2.42188C250.651 1.82943 251.266 1.3737 251.982 1.05469C252.705 0.735677 253.512 0.576172 254.404 0.576172C255.563 0.576172 256.543 0.791016 257.344 1.2207C258.145 1.64388 258.766 2.22656 259.209 2.96875C259.652 3.71094 259.919 4.5638 260.01 5.52734H257.324C257.272 4.92839 257.142 4.42057 256.934 4.00391C256.732 3.58724 256.426 3.27148 256.016 3.05664C255.612 2.83529 255.075 2.72461 254.404 2.72461C253.883 2.72461 253.424 2.82227 253.027 3.01758C252.637 3.21289 252.311 3.50586 252.051 3.89648C251.79 4.2806 251.595 4.76237 251.465 5.3418C251.335 5.91471 251.27 6.57878 251.27 7.33398V8.4375C251.27 9.16016 251.328 9.80794 251.445 10.3809C251.562 10.9538 251.745 11.4388 251.992 11.8359C252.24 12.2331 252.559 12.5358 252.949 12.7441C253.34 12.9525 253.805 13.0566 254.346 13.0566C255.003 13.0566 255.537 12.9525 255.947 12.7441C256.364 12.5358 256.68 12.2298 256.895 11.8262C257.116 11.4225 257.256 10.9212 257.314 10.3223ZM261.426 9.82422V9.61914C261.426 8.8444 261.536 8.13151 261.758 7.48047C261.979 6.82292 262.301 6.25326 262.725 5.77148C263.148 5.28971 263.665 4.91536 264.277 4.64844C264.889 4.375 265.586 4.23828 266.367 4.23828C267.161 4.23828 267.865 4.375 268.477 4.64844C269.095 4.91536 269.616 5.28971 270.039 5.77148C270.462 6.25326 270.785 6.82292 271.006 7.48047C271.227 8.13151 271.338 8.8444 271.338 9.61914V9.82422C271.338 10.5924 271.227 11.3053 271.006 11.9629C270.785 12.6139 270.462 13.1836 270.039 13.6719C269.616 14.1536 269.098 14.528 268.486 14.7949C267.874 15.0618 267.174 15.1953 266.387 15.1953C265.605 15.1953 264.906 15.0618 264.287 14.7949C263.669 14.528 263.148 14.1536 262.725 13.6719C262.301 13.1836 261.979 12.6139 261.758 11.9629C261.536 11.3053 261.426 10.5924 261.426 9.82422ZM264.004 9.61914V9.82422C264.004 10.2865 264.049 10.7194 264.141 11.123C264.232 11.5267 264.372 11.8815 264.561 12.1875C264.749 12.4935 264.993 12.7344 265.293 12.9102C265.599 13.0794 265.964 13.1641 266.387 13.1641C266.803 13.1641 267.161 13.0794 267.461 12.9102C267.76 12.7344 268.005 12.4935 268.193 12.1875C268.389 11.8815 268.532 11.5267 268.623 11.123C268.714 10.7194 268.76 10.2865 268.76 9.82422V9.61914C268.76 9.16341 268.714 8.73698 268.623 8.33984C268.532 7.9362 268.389 7.58138 268.193 7.27539C268.005 6.96289 267.757 6.71875 267.451 6.54297C267.152 6.36068 266.79 6.26953 266.367 6.26953C265.951 6.26953 265.592 6.36068 265.293 6.54297C264.993 6.71875 264.749 6.96289 264.561 7.27539C264.372 7.58138 264.232 7.9362 264.141 8.33984C264.049 8.73698 264.004 9.16341 264.004 9.61914ZM275.742 6.68945V15H273.164V4.43359H275.586L275.742 6.68945ZM275.332 9.33594H274.57C274.577 8.56771 274.681 7.87109 274.883 7.24609C275.085 6.62109 275.368 6.08398 275.732 5.63477C276.104 5.18555 276.543 4.84049 277.051 4.59961C277.559 4.35872 278.125 4.23828 278.75 4.23828C279.258 4.23828 279.717 4.3099 280.127 4.45312C280.537 4.59635 280.889 4.82422 281.182 5.13672C281.481 5.44922 281.709 5.85938 281.865 6.36719C282.028 6.86849 282.109 7.48698 282.109 8.22266V15H279.512V8.20312C279.512 7.72135 279.44 7.34049 279.297 7.06055C279.16 6.7806 278.958 6.58203 278.691 6.46484C278.431 6.34766 278.109 6.28906 277.725 6.28906C277.327 6.28906 276.979 6.37044 276.68 6.5332C276.387 6.68945 276.139 6.90755 275.938 7.1875C275.742 7.46745 275.592 7.78971 275.488 8.1543C275.384 8.51888 275.332 8.91276 275.332 9.33594ZM290.195 12.1094C290.195 11.888 290.137 11.6895 290.02 11.5137C289.902 11.3379 289.681 11.1784 289.355 11.0352C289.036 10.8854 288.568 10.7454 287.949 10.6152C287.402 10.498 286.898 10.3516 286.436 10.1758C285.973 10 285.576 9.78841 285.244 9.54102C284.912 9.28711 284.652 8.99089 284.463 8.65234C284.281 8.30729 284.189 7.91016 284.189 7.46094C284.189 7.02474 284.284 6.61458 284.473 6.23047C284.661 5.83984 284.935 5.49805 285.293 5.20508C285.651 4.9056 286.087 4.67122 286.602 4.50195C287.116 4.32617 287.695 4.23828 288.34 4.23828C289.238 4.23828 290.01 4.38477 290.654 4.67773C291.305 4.9707 291.803 5.37435 292.148 5.88867C292.493 6.39648 292.666 6.9694 292.666 7.60742H290.088C290.088 7.32747 290.023 7.07357 289.893 6.8457C289.769 6.61784 289.577 6.43555 289.316 6.29883C289.056 6.1556 288.727 6.08398 288.33 6.08398C287.972 6.08398 287.669 6.14258 287.422 6.25977C287.181 6.37695 286.999 6.52995 286.875 6.71875C286.751 6.90755 286.689 7.11589 286.689 7.34375C286.689 7.51302 286.722 7.66602 286.787 7.80273C286.859 7.93294 286.973 8.05339 287.129 8.16406C287.285 8.27474 287.497 8.37565 287.764 8.4668C288.037 8.55794 288.372 8.64583 288.77 8.73047C289.557 8.88672 290.244 9.09505 290.83 9.35547C291.423 9.60938 291.885 9.94792 292.217 10.3711C292.549 10.7943 292.715 11.3346 292.715 11.9922C292.715 12.4609 292.614 12.8906 292.412 13.2812C292.21 13.6654 291.917 14.0007 291.533 14.2871C291.149 14.5736 290.69 14.7982 290.156 14.9609C289.622 15.1172 289.02 15.1953 288.35 15.1953C287.38 15.1953 286.559 15.0228 285.889 14.6777C285.218 14.3262 284.71 13.8835 284.365 13.3496C284.02 12.8092 283.848 12.2493 283.848 11.6699H286.318C286.338 12.0801 286.449 12.4089 286.65 12.6562C286.852 12.9036 287.106 13.0827 287.412 13.1934C287.725 13.2975 288.053 13.3496 288.398 13.3496C288.789 13.3496 289.118 13.2975 289.385 13.1934C289.652 13.0827 289.854 12.9362 289.99 12.7539C290.127 12.5651 290.195 12.3503 290.195 12.1094ZM299.678 4.43359V6.28906H293.623V4.43359H299.678ZM295.244 1.83594H297.832V11.9531C297.832 12.2656 297.874 12.5065 297.959 12.6758C298.044 12.8451 298.171 12.959 298.34 13.0176C298.509 13.0762 298.711 13.1055 298.945 13.1055C299.115 13.1055 299.271 13.0957 299.414 13.0762C299.557 13.0566 299.678 13.0371 299.775 13.0176L299.785 14.9512C299.57 15.0228 299.326 15.0814 299.053 15.127C298.786 15.1725 298.483 15.1953 298.145 15.1953C297.565 15.1953 297.057 15.0977 296.621 14.9023C296.185 14.7005 295.846 14.3783 295.605 13.9355C295.365 13.4863 295.244 12.8939 295.244 12.1582V1.83594ZM303.975 6.5918V15H301.396V4.43359H303.838L303.975 6.5918ZM307.188 4.36523L307.148 6.76758C307.005 6.74154 306.842 6.72201 306.66 6.70898C306.484 6.69596 306.318 6.68945 306.162 6.68945C305.765 6.68945 305.417 6.74479 305.117 6.85547C304.818 6.95964 304.567 7.11263 304.365 7.31445C304.17 7.51628 304.02 7.76367 303.916 8.05664C303.812 8.3431 303.753 8.66862 303.74 9.0332L303.184 8.96484C303.184 8.29427 303.252 7.67253 303.389 7.09961C303.525 6.52669 303.724 6.02539 303.984 5.5957C304.245 5.16602 304.57 4.83398 304.961 4.59961C305.358 4.35872 305.814 4.23828 306.328 4.23828C306.471 4.23828 306.624 4.2513 306.787 4.27734C306.956 4.29688 307.09 4.32617 307.188 4.36523ZM314.893 12.4902V4.43359H317.49V15H315.049L314.893 12.4902ZM315.225 10.3027L316.025 10.2832C316.025 10.9928 315.947 11.6471 315.791 12.2461C315.635 12.8451 315.391 13.3659 315.059 13.8086C314.733 14.2448 314.32 14.5866 313.818 14.834C313.317 15.0749 312.725 15.1953 312.041 15.1953C311.52 15.1953 311.045 15.1237 310.615 14.9805C310.186 14.8307 309.814 14.5996 309.502 14.2871C309.196 13.9681 308.958 13.5612 308.789 13.0664C308.62 12.5651 308.535 11.9629 308.535 11.2598V4.43359H311.113V11.2793C311.113 11.6309 311.152 11.9238 311.23 12.1582C311.315 12.3926 311.429 12.5846 311.572 12.7344C311.722 12.8776 311.895 12.9818 312.09 13.0469C312.292 13.1055 312.507 13.1348 312.734 13.1348C313.359 13.1348 313.851 13.0111 314.209 12.7637C314.574 12.5098 314.834 12.1712 314.99 11.748C315.146 11.3184 315.225 10.8366 315.225 10.3027ZM322.51 4.43359V15H319.922V4.43359H322.51ZM319.746 1.66992C319.746 1.28581 319.876 0.966797 320.137 0.712891C320.404 0.458984 320.762 0.332031 321.211 0.332031C321.66 0.332031 322.015 0.458984 322.275 0.712891C322.542 0.966797 322.676 1.28581 322.676 1.66992C322.676 2.04753 322.542 2.36328 322.275 2.61719C322.015 2.87109 321.66 2.99805 321.211 2.99805C320.762 2.99805 320.404 2.87109 320.137 2.61719C319.876 2.36328 319.746 2.04753 319.746 1.66992ZM327.5 6.68945V15H324.922V4.43359H327.344L327.5 6.68945ZM327.09 9.33594H326.328C326.335 8.56771 326.439 7.87109 326.641 7.24609C326.842 6.62109 327.126 6.08398 327.49 5.63477C327.861 5.18555 328.301 4.84049 328.809 4.59961C329.316 4.35872 329.883 4.23828 330.508 4.23828C331.016 4.23828 331.475 4.3099 331.885 4.45312C332.295 4.59635 332.646 4.82422 332.939 5.13672C333.239 5.44922 333.467 5.85938 333.623 6.36719C333.786 6.86849 333.867 7.48698 333.867 8.22266V15H331.27V8.20312C331.27 7.72135 331.198 7.34049 331.055 7.06055C330.918 6.7806 330.716 6.58203 330.449 6.46484C330.189 6.34766 329.867 6.28906 329.482 6.28906C329.085 6.28906 328.737 6.37044 328.438 6.5332C328.145 6.68945 327.897 6.90755 327.695 7.1875C327.5 7.46745 327.35 7.78971 327.246 8.1543C327.142 8.51888 327.09 8.91276 327.09 9.33594ZM342.48 12.7539V0H345.078V15H342.734L342.48 12.7539ZM335.693 9.84375V9.63867C335.693 8.83138 335.785 8.09896 335.967 7.44141C336.156 6.77734 336.429 6.20768 336.787 5.73242C337.145 5.25716 337.578 4.88932 338.086 4.62891C338.6 4.36849 339.183 4.23828 339.834 4.23828C340.465 4.23828 341.016 4.36523 341.484 4.61914C341.96 4.87305 342.363 5.23438 342.695 5.70312C343.034 6.17188 343.304 6.72852 343.506 7.37305C343.708 8.01107 343.854 8.71419 343.945 9.48242V10.0391C343.854 10.7878 343.708 11.4746 343.506 12.0996C343.304 12.7246 343.034 13.2715 342.695 13.7402C342.363 14.2025 341.96 14.5605 341.484 14.8145C341.009 15.0684 340.452 15.1953 339.814 15.1953C339.17 15.1953 338.59 15.0618 338.076 14.7949C337.568 14.528 337.135 14.1536 336.777 13.6719C336.426 13.1901 336.156 12.6237 335.967 11.9727C335.785 11.3216 335.693 10.612 335.693 9.84375ZM338.281 9.63867V9.84375C338.281 10.2995 338.32 10.7259 338.398 11.123C338.477 11.5202 338.604 11.8717 338.779 12.1777C338.955 12.4772 339.18 12.7116 339.453 12.8809C339.733 13.0501 340.072 13.1348 340.469 13.1348C340.977 13.1348 341.393 13.0241 341.719 12.8027C342.051 12.5749 342.308 12.2656 342.49 11.875C342.673 11.4779 342.79 11.0319 342.842 10.5371V9.00391C342.816 8.61328 342.747 8.25195 342.637 7.91992C342.533 7.58789 342.383 7.30143 342.188 7.06055C341.999 6.81966 341.764 6.63086 341.484 6.49414C341.204 6.35742 340.872 6.28906 340.488 6.28906C340.091 6.28906 339.753 6.37695 339.473 6.55273C339.193 6.72201 338.965 6.95964 338.789 7.26562C338.613 7.57161 338.483 7.92643 338.398 8.33008C338.32 8.73372 338.281 9.16992 338.281 9.63867ZM346.953 9.82422V9.61914C346.953 8.8444 347.064 8.13151 347.285 7.48047C347.507 6.82292 347.829 6.25326 348.252 5.77148C348.675 5.28971 349.193 4.91536 349.805 4.64844C350.417 4.375 351.113 4.23828 351.895 4.23828C352.689 4.23828 353.392 4.375 354.004 4.64844C354.622 4.91536 355.143 5.28971 355.566 5.77148C355.99 6.25326 356.312 6.82292 356.533 7.48047C356.755 8.13151 356.865 8.8444 356.865 9.61914V9.82422C356.865 10.5924 356.755 11.3053 356.533 11.9629C356.312 12.6139 355.99 13.1836 355.566 13.6719C355.143 14.1536 354.626 14.528 354.014 14.7949C353.402 15.0618 352.702 15.1953 351.914 15.1953C351.133 15.1953 350.433 15.0618 349.814 14.7949C349.196 14.528 348.675 14.1536 348.252 13.6719C347.829 13.1836 347.507 12.6139 347.285 11.9629C347.064 11.3053 346.953 10.5924 346.953 9.82422ZM349.531 9.61914V9.82422C349.531 10.2865 349.577 10.7194 349.668 11.123C349.759 11.5267 349.899 11.8815 350.088 12.1875C350.277 12.4935 350.521 12.7344 350.82 12.9102C351.126 13.0794 351.491 13.1641 351.914 13.1641C352.331 13.1641 352.689 13.0794 352.988 12.9102C353.288 12.7344 353.532 12.4935 353.721 12.1875C353.916 11.8815 354.059 11.5267 354.15 11.123C354.242 10.7194 354.287 10.2865 354.287 9.82422V9.61914C354.287 9.16341 354.242 8.73698 354.15 8.33984C354.059 7.9362 353.916 7.58138 353.721 7.27539C353.532 6.96289 353.285 6.71875 352.979 6.54297C352.679 6.36068 352.318 6.26953 351.895 6.26953C351.478 6.26953 351.12 6.36068 350.82 6.54297C350.521 6.71875 350.277 6.96289 350.088 7.27539C349.899 7.58138 349.759 7.9362 349.668 8.33984C349.577 8.73698 349.531 9.16341 349.531 9.61914ZM370.01 12.4902V4.43359H372.607V15H370.166L370.01 12.4902ZM370.342 10.3027L371.143 10.2832C371.143 10.9928 371.064 11.6471 370.908 12.2461C370.752 12.8451 370.508 13.3659 370.176 13.8086C369.85 14.2448 369.437 14.5866 368.936 14.834C368.434 15.0749 367.842 15.1953 367.158 15.1953C366.637 15.1953 366.162 15.1237 365.732 14.9805C365.303 14.8307 364.932 14.5996 364.619 14.2871C364.313 13.9681 364.076 13.5612 363.906 13.0664C363.737 12.5651 363.652 11.9629 363.652 11.2598V4.43359H366.23V11.2793C366.23 11.6309 366.27 11.9238 366.348 12.1582C366.432 12.3926 366.546 12.5846 366.689 12.7344C366.839 12.8776 367.012 12.9818 367.207 13.0469C367.409 13.1055 367.624 13.1348 367.852 13.1348C368.477 13.1348 368.968 13.0111 369.326 12.7637C369.691 12.5098 369.951 12.1712 370.107 11.748C370.264 11.3184 370.342 10.8366 370.342 10.3027ZM377.461 6.60156V15H374.883V4.43359H377.314L377.461 6.60156ZM377.08 9.33594H376.289C376.289 8.60026 376.377 7.92318 376.553 7.30469C376.735 6.6862 377.002 6.14909 377.354 5.69336C377.705 5.23112 378.138 4.87305 378.652 4.61914C379.173 4.36523 379.775 4.23828 380.459 4.23828C380.934 4.23828 381.37 4.3099 381.768 4.45312C382.165 4.58984 382.507 4.80794 382.793 5.10742C383.086 5.40039 383.311 5.78451 383.467 6.25977C383.623 6.72852 383.701 7.29167 383.701 7.94922V15H381.123V8.21289C381.123 7.7181 381.051 7.33073 380.908 7.05078C380.771 6.77083 380.573 6.57552 380.312 6.46484C380.052 6.34766 379.74 6.28906 379.375 6.28906C378.971 6.28906 378.623 6.37044 378.33 6.5332C378.044 6.68945 377.806 6.90755 377.617 7.1875C377.435 7.46745 377.298 7.78971 377.207 8.1543C377.122 8.51888 377.08 8.91276 377.08 9.33594ZM383.506 8.85742L382.441 9.05273C382.448 8.38867 382.539 7.76693 382.715 7.1875C382.891 6.60156 383.148 6.09049 383.486 5.6543C383.831 5.21159 384.258 4.86654 384.766 4.61914C385.28 4.36523 385.872 4.23828 386.543 4.23828C387.064 4.23828 387.533 4.31315 387.949 4.46289C388.372 4.60612 388.734 4.83724 389.033 5.15625C389.333 5.46875 389.561 5.87565 389.717 6.37695C389.88 6.87826 389.961 7.49023 389.961 8.21289V15H387.363V8.20312C387.363 7.6888 387.292 7.29492 387.148 7.02148C387.012 6.74805 386.813 6.55924 386.553 6.45508C386.292 6.3444 385.986 6.28906 385.635 6.28906C385.277 6.28906 384.964 6.35742 384.697 6.49414C384.437 6.62435 384.215 6.80664 384.033 7.04102C383.857 7.27539 383.724 7.54883 383.633 7.86133C383.548 8.16732 383.506 8.49935 383.506 8.85742ZM398.096 12.7539V7.88086C398.096 7.52279 398.034 7.21354 397.91 6.95312C397.786 6.69271 397.598 6.49089 397.344 6.34766C397.09 6.20443 396.768 6.13281 396.377 6.13281C396.032 6.13281 395.729 6.19141 395.469 6.30859C395.215 6.42578 395.02 6.5918 394.883 6.80664C394.746 7.01497 394.678 7.25586 394.678 7.5293H392.09C392.09 7.0931 392.194 6.67969 392.402 6.28906C392.611 5.89193 392.907 5.54036 393.291 5.23438C393.682 4.92188 394.147 4.67773 394.688 4.50195C395.234 4.32617 395.846 4.23828 396.523 4.23828C397.324 4.23828 398.037 4.375 398.662 4.64844C399.294 4.91536 399.788 5.31901 400.146 5.85938C400.511 6.39974 400.693 7.08008 400.693 7.90039V12.5098C400.693 13.0371 400.726 13.4896 400.791 13.8672C400.863 14.2383 400.967 14.5605 401.104 14.834V15H398.477C398.353 14.7331 398.258 14.3945 398.193 13.9844C398.128 13.5677 398.096 13.1576 398.096 12.7539ZM398.457 8.56445L398.477 10.0977H396.846C396.442 10.0977 396.087 10.14 395.781 10.2246C395.475 10.3027 395.225 10.4199 395.029 10.5762C394.834 10.7259 394.688 10.9082 394.59 11.123C394.492 11.3314 394.443 11.569 394.443 11.8359C394.443 12.0964 394.502 12.3307 394.619 12.5391C394.743 12.7474 394.919 12.9134 395.146 13.0371C395.381 13.1543 395.654 13.2129 395.967 13.2129C396.423 13.2129 396.82 13.1217 397.158 12.9395C397.497 12.7507 397.76 12.5228 397.949 12.2559C398.138 11.9889 398.239 11.735 398.252 11.4941L398.994 12.6074C398.903 12.8743 398.766 13.1576 398.584 13.457C398.402 13.7565 398.167 14.0365 397.881 14.2969C397.594 14.5573 397.249 14.7721 396.846 14.9414C396.442 15.1107 395.973 15.1953 395.439 15.1953C394.756 15.1953 394.144 15.0586 393.604 14.7852C393.063 14.5117 392.637 14.1374 392.324 13.6621C392.012 13.1868 391.855 12.6465 391.855 12.041C391.855 11.4811 391.96 10.9863 392.168 10.5566C392.376 10.127 392.686 9.76562 393.096 9.47266C393.506 9.17318 394.014 8.94857 394.619 8.79883C395.231 8.64258 395.931 8.56445 396.719 8.56445H398.457ZM417.217 12.8906V15H410.068V12.8906H417.217ZM410.879 0.78125V15H408.193V0.78125H410.879ZM424.639 12.7539V7.88086C424.639 7.52279 424.577 7.21354 424.453 6.95312C424.329 6.69271 424.141 6.49089 423.887 6.34766C423.633 6.20443 423.311 6.13281 422.92 6.13281C422.575 6.13281 422.272 6.19141 422.012 6.30859C421.758 6.42578 421.562 6.5918 421.426 6.80664C421.289 7.01497 421.221 7.25586 421.221 7.5293H418.633C418.633 7.0931 418.737 6.67969 418.945 6.28906C419.154 5.89193 419.45 5.54036 419.834 5.23438C420.225 4.92188 420.69 4.67773 421.23 4.50195C421.777 4.32617 422.389 4.23828 423.066 4.23828C423.867 4.23828 424.58 4.375 425.205 4.64844C425.837 4.91536 426.331 5.31901 426.689 5.85938C427.054 6.39974 427.236 7.08008 427.236 7.90039V12.5098C427.236 13.0371 427.269 13.4896 427.334 13.8672C427.406 14.2383 427.51 14.5605 427.646 14.834V15H425.02C424.896 14.7331 424.801 14.3945 424.736 13.9844C424.671 13.5677 424.639 13.1576 424.639 12.7539ZM425 8.56445L425.02 10.0977H423.389C422.985 10.0977 422.63 10.14 422.324 10.2246C422.018 10.3027 421.768 10.4199 421.572 10.5762C421.377 10.7259 421.23 10.9082 421.133 11.123C421.035 11.3314 420.986 11.569 420.986 11.8359C420.986 12.0964 421.045 12.3307 421.162 12.5391C421.286 12.7474 421.462 12.9134 421.689 13.0371C421.924 13.1543 422.197 13.2129 422.51 13.2129C422.965 13.2129 423.363 13.1217 423.701 12.9395C424.04 12.7507 424.303 12.5228 424.492 12.2559C424.681 11.9889 424.782 11.735 424.795 11.4941L425.537 12.6074C425.446 12.8743 425.309 13.1576 425.127 13.457C424.945 13.7565 424.71 14.0365 424.424 14.2969C424.137 14.5573 423.792 14.7721 423.389 14.9414C422.985 15.1107 422.516 15.1953 421.982 15.1953C421.299 15.1953 420.687 15.0586 420.146 14.7852C419.606 14.5117 419.18 14.1374 418.867 13.6621C418.555 13.1868 418.398 12.6465 418.398 12.041C418.398 11.4811 418.503 10.9863 418.711 10.5566C418.919 10.127 419.229 9.76562 419.639 9.47266C420.049 9.17318 420.557 8.94857 421.162 8.79883C421.774 8.64258 422.474 8.56445 423.262 8.56445H425ZM432.09 6.68945V15H429.512V4.43359H431.934L432.09 6.68945ZM431.68 9.33594H430.918C430.924 8.56771 431.029 7.87109 431.23 7.24609C431.432 6.62109 431.715 6.08398 432.08 5.63477C432.451 5.18555 432.891 4.84049 433.398 4.59961C433.906 4.35872 434.473 4.23828 435.098 4.23828C435.605 4.23828 436.064 4.3099 436.475 4.45312C436.885 4.59635 437.236 4.82422 437.529 5.13672C437.829 5.44922 438.057 5.85938 438.213 6.36719C438.376 6.86849 438.457 7.48698 438.457 8.22266V15H435.859V8.20312C435.859 7.72135 435.788 7.34049 435.645 7.06055C435.508 6.7806 435.306 6.58203 435.039 6.46484C434.779 6.34766 434.456 6.28906 434.072 6.28906C433.675 6.28906 433.327 6.37044 433.027 6.5332C432.734 6.68945 432.487 6.90755 432.285 7.1875C432.09 7.46745 431.94 7.78971 431.836 8.1543C431.732 8.51888 431.68 8.91276 431.68 9.33594ZM447.07 12.7539V0H449.668V15H447.324L447.07 12.7539ZM440.283 9.84375V9.63867C440.283 8.83138 440.374 8.09896 440.557 7.44141C440.745 6.77734 441.019 6.20768 441.377 5.73242C441.735 5.25716 442.168 4.88932 442.676 4.62891C443.19 4.36849 443.773 4.23828 444.424 4.23828C445.055 4.23828 445.605 4.36523 446.074 4.61914C446.549 4.87305 446.953 5.23438 447.285 5.70312C447.624 6.17188 447.894 6.72852 448.096 7.37305C448.298 8.01107 448.444 8.71419 448.535 9.48242V10.0391C448.444 10.7878 448.298 11.4746 448.096 12.0996C447.894 12.7246 447.624 13.2715 447.285 13.7402C446.953 14.2025 446.549 14.5605 446.074 14.8145C445.599 15.0684 445.042 15.1953 444.404 15.1953C443.76 15.1953 443.18 15.0618 442.666 14.7949C442.158 14.528 441.725 14.1536 441.367 13.6719C441.016 13.1901 440.745 12.6237 440.557 11.9727C440.374 11.3216 440.283 10.612 440.283 9.84375ZM442.871 9.63867V9.84375C442.871 10.2995 442.91 10.7259 442.988 11.123C443.066 11.5202 443.193 11.8717 443.369 12.1777C443.545 12.4772 443.77 12.7116 444.043 12.8809C444.323 13.0501 444.661 13.1348 445.059 13.1348C445.566 13.1348 445.983 13.0241 446.309 12.8027C446.641 12.5749 446.898 12.2656 447.08 11.875C447.262 11.4779 447.38 11.0319 447.432 10.5371V9.00391C447.406 8.61328 447.337 8.25195 447.227 7.91992C447.122 7.58789 446.973 7.30143 446.777 7.06055C446.589 6.81966 446.354 6.63086 446.074 6.49414C445.794 6.35742 445.462 6.28906 445.078 6.28906C444.681 6.28906 444.342 6.37695 444.062 6.55273C443.783 6.72201 443.555 6.95964 443.379 7.26562C443.203 7.57161 443.073 7.92643 442.988 8.33008C442.91 8.73372 442.871 9.16992 442.871 9.63867ZM454.736 4.43359V15H452.148V4.43359H454.736ZM451.973 1.66992C451.973 1.28581 452.103 0.966797 452.363 0.712891C452.63 0.458984 452.988 0.332031 453.438 0.332031C453.887 0.332031 454.242 0.458984 454.502 0.712891C454.769 0.966797 454.902 1.28581 454.902 1.66992C454.902 2.04753 454.769 2.36328 454.502 2.61719C454.242 2.87109 453.887 2.99805 453.438 2.99805C452.988 2.99805 452.63 2.87109 452.363 2.61719C452.103 2.36328 451.973 2.04753 451.973 1.66992ZM459.727 6.68945V15H457.148V4.43359H459.57L459.727 6.68945ZM459.316 9.33594H458.555C458.561 8.56771 458.665 7.87109 458.867 7.24609C459.069 6.62109 459.352 6.08398 459.717 5.63477C460.088 5.18555 460.527 4.84049 461.035 4.59961C461.543 4.35872 462.109 4.23828 462.734 4.23828C463.242 4.23828 463.701 4.3099 464.111 4.45312C464.521 4.59635 464.873 4.82422 465.166 5.13672C465.465 5.44922 465.693 5.85938 465.85 6.36719C466.012 6.86849 466.094 7.48698 466.094 8.22266V15H463.496V8.20312C463.496 7.72135 463.424 7.34049 463.281 7.06055C463.145 6.7806 462.943 6.58203 462.676 6.46484C462.415 6.34766 462.093 6.28906 461.709 6.28906C461.312 6.28906 460.964 6.37044 460.664 6.5332C460.371 6.68945 460.124 6.90755 459.922 7.1875C459.727 7.46745 459.577 7.78971 459.473 8.1543C459.368 8.51888 459.316 8.91276 459.316 9.33594ZM475.088 4.43359H477.432V14.6777C477.432 15.6348 477.223 16.4453 476.807 17.1094C476.396 17.7799 475.82 18.2878 475.078 18.6328C474.336 18.9844 473.473 19.1602 472.49 19.1602C472.067 19.1602 471.608 19.1016 471.113 18.9844C470.625 18.8672 470.153 18.6816 469.697 18.4277C469.248 18.1803 468.874 17.8581 468.574 17.4609L469.736 15.9375C470.088 16.3477 470.485 16.6569 470.928 16.8652C471.37 17.0801 471.849 17.1875 472.363 17.1875C472.884 17.1875 473.327 17.0898 473.691 16.8945C474.062 16.7057 474.346 16.4258 474.541 16.0547C474.743 15.6901 474.844 15.2409 474.844 14.707V6.8457L475.088 4.43359ZM467.949 9.84375V9.63867C467.949 8.83138 468.047 8.09896 468.242 7.44141C468.438 6.77734 468.717 6.20768 469.082 5.73242C469.453 5.25716 469.899 4.88932 470.42 4.62891C470.947 4.36849 471.54 4.23828 472.197 4.23828C472.894 4.23828 473.48 4.36523 473.955 4.61914C474.437 4.87305 474.834 5.23438 475.146 5.70312C475.465 6.17188 475.713 6.72852 475.889 7.37305C476.071 8.01107 476.211 8.71419 476.309 9.48242V10.0391C476.217 10.7878 476.071 11.4746 475.869 12.0996C475.674 12.7246 475.413 13.2715 475.088 13.7402C474.762 14.2025 474.359 14.5605 473.877 14.8145C473.395 15.0684 472.829 15.1953 472.178 15.1953C471.527 15.1953 470.941 15.0618 470.42 14.7949C469.899 14.528 469.453 14.1536 469.082 13.6719C468.717 13.1901 468.438 12.6237 468.242 11.9727C468.047 11.3216 467.949 10.612 467.949 9.84375ZM470.527 9.63867V9.84375C470.527 10.2995 470.573 10.7259 470.664 11.123C470.755 11.5202 470.895 11.8717 471.084 12.1777C471.273 12.4772 471.51 12.7116 471.797 12.8809C472.083 13.0501 472.425 13.1348 472.822 13.1348C473.356 13.1348 473.792 13.0241 474.131 12.8027C474.476 12.5749 474.736 12.2656 474.912 11.875C475.094 11.4779 475.212 11.0319 475.264 10.5371V9.00391C475.231 8.61328 475.16 8.25195 475.049 7.91992C474.945 7.58789 474.798 7.30143 474.609 7.06055C474.421 6.81966 474.18 6.63086 473.887 6.49414C473.594 6.35742 473.245 6.28906 472.842 6.28906C472.451 6.28906 472.109 6.37695 471.816 6.55273C471.523 6.72201 471.283 6.95964 471.094 7.26562C470.905 7.57161 470.762 7.92643 470.664 8.33008C470.573 8.73372 470.527 9.16992 470.527 9.63867ZM490.4 9.81445H486.738V7.70508H490.4C490.999 7.70508 491.484 7.60742 491.855 7.41211C492.233 7.21029 492.51 6.93685 492.686 6.5918C492.861 6.24023 492.949 5.83984 492.949 5.39062C492.949 4.95443 492.861 4.54753 492.686 4.16992C492.51 3.79232 492.233 3.48633 491.855 3.25195C491.484 3.01758 490.999 2.90039 490.4 2.90039H487.617V15H484.932V0.78125H490.4C491.507 0.78125 492.451 0.979818 493.232 1.37695C494.02 1.76758 494.619 2.3112 495.029 3.00781C495.446 3.69792 495.654 4.48568 495.654 5.37109C495.654 6.28906 495.446 7.08008 495.029 7.74414C494.619 8.4082 494.02 8.91927 493.232 9.27734C492.451 9.63542 491.507 9.81445 490.4 9.81445ZM503.271 12.7539V7.88086C503.271 7.52279 503.21 7.21354 503.086 6.95312C502.962 6.69271 502.773 6.49089 502.52 6.34766C502.266 6.20443 501.943 6.13281 501.553 6.13281C501.208 6.13281 500.905 6.19141 500.645 6.30859C500.391 6.42578 500.195 6.5918 500.059 6.80664C499.922 7.01497 499.854 7.25586 499.854 7.5293H497.266C497.266 7.0931 497.37 6.67969 497.578 6.28906C497.786 5.89193 498.083 5.54036 498.467 5.23438C498.857 4.92188 499.323 4.67773 499.863 4.50195C500.41 4.32617 501.022 4.23828 501.699 4.23828C502.5 4.23828 503.213 4.375 503.838 4.64844C504.469 4.91536 504.964 5.31901 505.322 5.85938C505.687 6.39974 505.869 7.08008 505.869 7.90039V12.5098C505.869 13.0371 505.902 13.4896 505.967 13.8672C506.038 14.2383 506.143 14.5605 506.279 14.834V15H503.652C503.529 14.7331 503.434 14.3945 503.369 13.9844C503.304 13.5677 503.271 13.1576 503.271 12.7539ZM503.633 8.56445L503.652 10.0977H502.021C501.618 10.0977 501.263 10.14 500.957 10.2246C500.651 10.3027 500.4 10.4199 500.205 10.5762C500.01 10.7259 499.863 10.9082 499.766 11.123C499.668 11.3314 499.619 11.569 499.619 11.8359C499.619 12.0964 499.678 12.3307 499.795 12.5391C499.919 12.7474 500.094 12.9134 500.322 13.0371C500.557 13.1543 500.83 13.2129 501.143 13.2129C501.598 13.2129 501.995 13.1217 502.334 12.9395C502.673 12.7507 502.936 12.5228 503.125 12.2559C503.314 11.9889 503.415 11.735 503.428 11.4941L504.17 12.6074C504.079 12.8743 503.942 13.1576 503.76 13.457C503.577 13.7565 503.343 14.0365 503.057 14.2969C502.77 14.5573 502.425 14.7721 502.021 14.9414C501.618 15.1107 501.149 15.1953 500.615 15.1953C499.932 15.1953 499.32 15.0586 498.779 14.7852C498.239 14.5117 497.812 14.1374 497.5 13.6621C497.188 13.1868 497.031 12.6465 497.031 12.041C497.031 11.4811 497.135 10.9863 497.344 10.5566C497.552 10.127 497.861 9.76562 498.271 9.47266C498.682 9.17318 499.189 8.94857 499.795 8.79883C500.407 8.64258 501.107 8.56445 501.895 8.56445H503.633ZM514.912 4.43359H517.256V14.6777C517.256 15.6348 517.048 16.4453 516.631 17.1094C516.221 17.7799 515.645 18.2878 514.902 18.6328C514.16 18.9844 513.298 19.1602 512.314 19.1602C511.891 19.1602 511.432 19.1016 510.938 18.9844C510.449 18.8672 509.977 18.6816 509.521 18.4277C509.072 18.1803 508.698 17.8581 508.398 17.4609L509.561 15.9375C509.912 16.3477 510.309 16.6569 510.752 16.8652C511.195 17.0801 511.673 17.1875 512.188 17.1875C512.708 17.1875 513.151 17.0898 513.516 16.8945C513.887 16.7057 514.17 16.4258 514.365 16.0547C514.567 15.6901 514.668 15.2409 514.668 14.707V6.8457L514.912 4.43359ZM507.773 9.84375V9.63867C507.773 8.83138 507.871 8.09896 508.066 7.44141C508.262 6.77734 508.542 6.20768 508.906 5.73242C509.277 5.25716 509.723 4.88932 510.244 4.62891C510.771 4.36849 511.364 4.23828 512.021 4.23828C512.718 4.23828 513.304 4.36523 513.779 4.61914C514.261 4.87305 514.658 5.23438 514.971 5.70312C515.29 6.17188 515.537 6.72852 515.713 7.37305C515.895 8.01107 516.035 8.71419 516.133 9.48242V10.0391C516.042 10.7878 515.895 11.4746 515.693 12.0996C515.498 12.7246 515.238 13.2715 514.912 13.7402C514.587 14.2025 514.183 14.5605 513.701 14.8145C513.219 15.0684 512.653 15.1953 512.002 15.1953C511.351 15.1953 510.765 15.0618 510.244 14.7949C509.723 14.528 509.277 14.1536 508.906 13.6719C508.542 13.1901 508.262 12.6237 508.066 11.9727C507.871 11.3216 507.773 10.612 507.773 9.84375ZM510.352 9.63867V9.84375C510.352 10.2995 510.397 10.7259 510.488 11.123C510.579 11.5202 510.719 11.8717 510.908 12.1777C511.097 12.4772 511.335 12.7116 511.621 12.8809C511.908 13.0501 512.249 13.1348 512.646 13.1348C513.18 13.1348 513.617 13.0241 513.955 12.8027C514.3 12.5749 514.561 12.2656 514.736 11.875C514.919 11.4779 515.036 11.0319 515.088 10.5371V9.00391C515.055 8.61328 514.984 8.25195 514.873 7.91992C514.769 7.58789 514.622 7.30143 514.434 7.06055C514.245 6.81966 514.004 6.63086 513.711 6.49414C513.418 6.35742 513.07 6.28906 512.666 6.28906C512.275 6.28906 511.934 6.37695 511.641 6.55273C511.348 6.72201 511.107 6.95964 510.918 7.26562C510.729 7.57161 510.586 7.92643 510.488 8.33008C510.397 8.73372 510.352 9.16992 510.352 9.63867ZM524.326 15.1953C523.525 15.1953 522.806 15.0651 522.168 14.8047C521.53 14.5443 520.986 14.1829 520.537 13.7207C520.094 13.252 519.753 12.7083 519.512 12.0898C519.277 11.4648 519.16 10.7943 519.16 10.0781V9.6875C519.16 8.8737 519.277 8.13477 519.512 7.4707C519.746 6.80013 520.078 6.22396 520.508 5.74219C520.938 5.26042 521.452 4.88932 522.051 4.62891C522.65 4.36849 523.311 4.23828 524.033 4.23828C524.782 4.23828 525.443 4.36523 526.016 4.61914C526.589 4.86654 527.067 5.2181 527.451 5.67383C527.835 6.12956 528.125 6.67643 528.32 7.31445C528.516 7.94596 528.613 8.64583 528.613 9.41406V10.498H520.332V8.7207H526.074V8.52539C526.061 8.11523 525.983 7.74089 525.84 7.40234C525.697 7.05729 525.475 6.78385 525.176 6.58203C524.876 6.3737 524.489 6.26953 524.014 6.26953C523.63 6.26953 523.294 6.35417 523.008 6.52344C522.728 6.6862 522.493 6.92057 522.305 7.22656C522.122 7.52604 521.986 7.88411 521.895 8.30078C521.803 8.71745 521.758 9.17969 521.758 9.6875V10.0781C521.758 10.5208 521.816 10.931 521.934 11.3086C522.057 11.6862 522.236 12.015 522.471 12.2949C522.712 12.5684 522.998 12.7832 523.33 12.9395C523.669 13.0892 524.053 13.1641 524.482 13.1641C525.023 13.1641 525.511 13.0599 525.947 12.8516C526.39 12.6367 526.774 12.321 527.1 11.9043L528.398 13.252C528.177 13.5775 527.878 13.89 527.5 14.1895C527.129 14.4889 526.68 14.7331 526.152 14.9219C525.625 15.1042 525.016 15.1953 524.326 15.1953ZM537.852 6.68945V15H535.273V4.43359H537.695L537.852 6.68945ZM537.441 9.33594H536.68C536.686 8.56771 536.79 7.87109 536.992 7.24609C537.194 6.62109 537.477 6.08398 537.842 5.63477C538.213 5.18555 538.652 4.84049 539.16 4.59961C539.668 4.35872 540.234 4.23828 540.859 4.23828C541.367 4.23828 541.826 4.3099 542.236 4.45312C542.646 4.59635 542.998 4.82422 543.291 5.13672C543.59 5.44922 543.818 5.85938 543.975 6.36719C544.137 6.86849 544.219 7.48698 544.219 8.22266V15H541.621V8.20312C541.621 7.72135 541.549 7.34049 541.406 7.06055C541.27 6.7806 541.068 6.58203 540.801 6.46484C540.54 6.34766 540.218 6.28906 539.834 6.28906C539.437 6.28906 539.089 6.37044 538.789 6.5332C538.496 6.68945 538.249 6.90755 538.047 7.1875C537.852 7.46745 537.702 7.78971 537.598 8.1543C537.493 8.51888 537.441 8.91276 537.441 9.33594ZM546.035 9.82422V9.61914C546.035 8.8444 546.146 8.13151 546.367 7.48047C546.589 6.82292 546.911 6.25326 547.334 5.77148C547.757 5.28971 548.275 4.91536 548.887 4.64844C549.499 4.375 550.195 4.23828 550.977 4.23828C551.771 4.23828 552.474 4.375 553.086 4.64844C553.704 4.91536 554.225 5.28971 554.648 5.77148C555.072 6.25326 555.394 6.82292 555.615 7.48047C555.837 8.13151 555.947 8.8444 555.947 9.61914V9.82422C555.947 10.5924 555.837 11.3053 555.615 11.9629C555.394 12.6139 555.072 13.1836 554.648 13.6719C554.225 14.1536 553.708 14.528 553.096 14.7949C552.484 15.0618 551.784 15.1953 550.996 15.1953C550.215 15.1953 549.515 15.0618 548.896 14.7949C548.278 14.528 547.757 14.1536 547.334 13.6719C546.911 13.1836 546.589 12.6139 546.367 11.9629C546.146 11.3053 546.035 10.5924 546.035 9.82422ZM548.613 9.61914V9.82422C548.613 10.2865 548.659 10.7194 548.75 11.123C548.841 11.5267 548.981 11.8815 549.17 12.1875C549.359 12.4935 549.603 12.7344 549.902 12.9102C550.208 13.0794 550.573 13.1641 550.996 13.1641C551.413 13.1641 551.771 13.0794 552.07 12.9102C552.37 12.7344 552.614 12.4935 552.803 12.1875C552.998 11.8815 553.141 11.5267 553.232 11.123C553.324 10.7194 553.369 10.2865 553.369 9.82422V9.61914C553.369 9.16341 553.324 8.73698 553.232 8.33984C553.141 7.9362 552.998 7.58138 552.803 7.27539C552.614 6.96289 552.367 6.71875 552.061 6.54297C551.761 6.36068 551.4 6.26953 550.977 6.26953C550.56 6.26953 550.202 6.36068 549.902 6.54297C549.603 6.71875 549.359 6.96289 549.17 7.27539C548.981 7.58138 548.841 7.9362 548.75 8.33984C548.659 8.73698 548.613 9.16341 548.613 9.61914ZM564.17 0.78125H566.494L570.381 11.4844L574.258 0.78125H576.592L571.309 15H569.443L564.17 0.78125ZM562.998 0.78125H565.273L565.684 10.6152V15H562.998V0.78125ZM575.479 0.78125H577.764V15H575.078V10.6152L575.479 0.78125ZM586.592 12.4902V4.43359H589.189V15H586.748L586.592 12.4902ZM586.924 10.3027L587.725 10.2832C587.725 10.9928 587.646 11.6471 587.49 12.2461C587.334 12.8451 587.09 13.3659 586.758 13.8086C586.432 14.2448 586.019 14.5866 585.518 14.834C585.016 15.0749 584.424 15.1953 583.74 15.1953C583.219 15.1953 582.744 15.1237 582.314 14.9805C581.885 14.8307 581.514 14.5996 581.201 14.2871C580.895 13.9681 580.658 13.5612 580.488 13.0664C580.319 12.5651 580.234 11.9629 580.234 11.2598V4.43359H582.812V11.2793C582.812 11.6309 582.852 11.9238 582.93 12.1582C583.014 12.3926 583.128 12.5846 583.271 12.7344C583.421 12.8776 583.594 12.9818 583.789 13.0469C583.991 13.1055 584.206 13.1348 584.434 13.1348C585.059 13.1348 585.55 13.0111 585.908 12.7637C586.273 12.5098 586.533 12.1712 586.689 11.748C586.846 11.3184 586.924 10.8366 586.924 10.3027ZM594.004 6.68945V15H591.426V4.43359H593.848L594.004 6.68945ZM593.594 9.33594H592.832C592.839 8.56771 592.943 7.87109 593.145 7.24609C593.346 6.62109 593.63 6.08398 593.994 5.63477C594.365 5.18555 594.805 4.84049 595.312 4.59961C595.82 4.35872 596.387 4.23828 597.012 4.23828C597.52 4.23828 597.979 4.3099 598.389 4.45312C598.799 4.59635 599.15 4.82422 599.443 5.13672C599.743 5.44922 599.971 5.85938 600.127 6.36719C600.29 6.86849 600.371 7.48698 600.371 8.22266V15H597.773V8.20312C597.773 7.72135 597.702 7.34049 597.559 7.06055C597.422 6.7806 597.22 6.58203 596.953 6.46484C596.693 6.34766 596.37 6.28906 595.986 6.28906C595.589 6.28906 595.241 6.37044 594.941 6.5332C594.648 6.68945 594.401 6.90755 594.199 7.1875C594.004 7.46745 593.854 7.78971 593.75 8.1543C593.646 8.51888 593.594 8.91276 593.594 9.33594ZM608.984 12.7539V0H611.582V15H609.238L608.984 12.7539ZM602.197 9.84375V9.63867C602.197 8.83138 602.288 8.09896 602.471 7.44141C602.66 6.77734 602.933 6.20768 603.291 5.73242C603.649 5.25716 604.082 4.88932 604.59 4.62891C605.104 4.36849 605.687 4.23828 606.338 4.23828C606.969 4.23828 607.52 4.36523 607.988 4.61914C608.464 4.87305 608.867 5.23438 609.199 5.70312C609.538 6.17188 609.808 6.72852 610.01 7.37305C610.212 8.01107 610.358 8.71419 610.449 9.48242V10.0391C610.358 10.7878 610.212 11.4746 610.01 12.0996C609.808 12.7246 609.538 13.2715 609.199 13.7402C608.867 14.2025 608.464 14.5605 607.988 14.8145C607.513 15.0684 606.956 15.1953 606.318 15.1953C605.674 15.1953 605.094 15.0618 604.58 14.7949C604.072 14.528 603.639 14.1536 603.281 13.6719C602.93 13.1901 602.66 12.6237 602.471 11.9727C602.288 11.3216 602.197 10.612 602.197 9.84375ZM604.785 9.63867V9.84375C604.785 10.2995 604.824 10.7259 604.902 11.123C604.98 11.5202 605.107 11.8717 605.283 12.1777C605.459 12.4772 605.684 12.7116 605.957 12.8809C606.237 13.0501 606.576 13.1348 606.973 13.1348C607.48 13.1348 607.897 13.0241 608.223 12.8027C608.555 12.5749 608.812 12.2656 608.994 11.875C609.176 11.4779 609.294 11.0319 609.346 10.5371V9.00391C609.32 8.61328 609.251 8.25195 609.141 7.91992C609.036 7.58789 608.887 7.30143 608.691 7.06055C608.503 6.81966 608.268 6.63086 607.988 6.49414C607.708 6.35742 607.376 6.28906 606.992 6.28906C606.595 6.28906 606.257 6.37695 605.977 6.55273C605.697 6.72201 605.469 6.95964 605.293 7.26562C605.117 7.57161 604.987 7.92643 604.902 8.33008C604.824 8.73372 604.785 9.16992 604.785 9.63867ZM613.457 9.82422V9.61914C613.457 8.8444 613.568 8.13151 613.789 7.48047C614.01 6.82292 614.333 6.25326 614.756 5.77148C615.179 5.28971 615.697 4.91536 616.309 4.64844C616.921 4.375 617.617 4.23828 618.398 4.23828C619.193 4.23828 619.896 4.375 620.508 4.64844C621.126 4.91536 621.647 5.28971 622.07 5.77148C622.493 6.25326 622.816 6.82292 623.037 7.48047C623.258 8.13151 623.369 8.8444 623.369 9.61914V9.82422C623.369 10.5924 623.258 11.3053 623.037 11.9629C622.816 12.6139 622.493 13.1836 622.07 13.6719C621.647 14.1536 621.13 14.528 620.518 14.7949C619.906 15.0618 619.206 15.1953 618.418 15.1953C617.637 15.1953 616.937 15.0618 616.318 14.7949C615.7 14.528 615.179 14.1536 614.756 13.6719C614.333 13.1836 614.01 12.6139 613.789 11.9629C613.568 11.3053 613.457 10.5924 613.457 9.82422ZM616.035 9.61914V9.82422C616.035 10.2865 616.081 10.7194 616.172 11.123C616.263 11.5267 616.403 11.8815 616.592 12.1875C616.781 12.4935 617.025 12.7344 617.324 12.9102C617.63 13.0794 617.995 13.1641 618.418 13.1641C618.835 13.1641 619.193 13.0794 619.492 12.9102C619.792 12.7344 620.036 12.4935 620.225 12.1875C620.42 11.8815 620.563 11.5267 620.654 11.123C620.745 10.7194 620.791 10.2865 620.791 9.82422V9.61914C620.791 9.16341 620.745 8.73698 620.654 8.33984C620.563 7.9362 620.42 7.58138 620.225 7.27539C620.036 6.96289 619.788 6.71875 619.482 6.54297C619.183 6.36068 618.822 6.26953 618.398 6.26953C617.982 6.26953 617.624 6.36068 617.324 6.54297C617.025 6.71875 616.781 6.96289 616.592 7.27539C616.403 7.58138 616.263 7.9362 616.172 8.33984C616.081 8.73698 616.035 9.16341 616.035 9.61914ZM633.281 0.78125V15H630.596V0.78125H633.281ZM638.516 6.68945V15H635.938V4.43359H638.359L638.516 6.68945ZM638.105 9.33594H637.344C637.35 8.56771 637.454 7.87109 637.656 7.24609C637.858 6.62109 638.141 6.08398 638.506 5.63477C638.877 5.18555 639.316 4.84049 639.824 4.59961C640.332 4.35872 640.898 4.23828 641.523 4.23828C642.031 4.23828 642.49 4.3099 642.9 4.45312C643.311 4.59635 643.662 4.82422 643.955 5.13672C644.255 5.44922 644.482 5.85938 644.639 6.36719C644.801 6.86849 644.883 7.48698 644.883 8.22266V15H642.285V8.20312C642.285 7.72135 642.214 7.34049 642.07 7.06055C641.934 6.7806 641.732 6.58203 641.465 6.46484C641.204 6.34766 640.882 6.28906 640.498 6.28906C640.101 6.28906 639.753 6.37044 639.453 6.5332C639.16 6.68945 638.913 6.90755 638.711 7.1875C638.516 7.46745 638.366 7.78971 638.262 8.1543C638.158 8.51888 638.105 8.91276 638.105 9.33594ZM650.664 13.0469L653.125 4.43359H655.82L652.197 15H650.557L650.664 13.0469ZM648.867 4.43359L651.357 13.0664L651.445 15H649.795L646.162 4.43359H648.867ZM661.787 15.1953C660.986 15.1953 660.267 15.0651 659.629 14.8047C658.991 14.5443 658.447 14.1829 657.998 13.7207C657.555 13.252 657.214 12.7083 656.973 12.0898C656.738 11.4648 656.621 10.7943 656.621 10.0781V9.6875C656.621 8.8737 656.738 8.13477 656.973 7.4707C657.207 6.80013 657.539 6.22396 657.969 5.74219C658.398 5.26042 658.913 4.88932 659.512 4.62891C660.111 4.36849 660.771 4.23828 661.494 4.23828C662.243 4.23828 662.904 4.36523 663.477 4.61914C664.049 4.86654 664.528 5.2181 664.912 5.67383C665.296 6.12956 665.586 6.67643 665.781 7.31445C665.977 7.94596 666.074 8.64583 666.074 9.41406V10.498H657.793V8.7207H663.535V8.52539C663.522 8.11523 663.444 7.74089 663.301 7.40234C663.158 7.05729 662.936 6.78385 662.637 6.58203C662.337 6.3737 661.95 6.26953 661.475 6.26953C661.09 6.26953 660.755 6.35417 660.469 6.52344C660.189 6.6862 659.954 6.92057 659.766 7.22656C659.583 7.52604 659.447 7.88411 659.355 8.30078C659.264 8.71745 659.219 9.17969 659.219 9.6875V10.0781C659.219 10.5208 659.277 10.931 659.395 11.3086C659.518 11.6862 659.697 12.015 659.932 12.2949C660.173 12.5684 660.459 12.7832 660.791 12.9395C661.13 13.0892 661.514 13.1641 661.943 13.1641C662.484 13.1641 662.972 13.0599 663.408 12.8516C663.851 12.6367 664.235 12.321 664.561 11.9043L665.859 13.252C665.638 13.5775 665.339 13.89 664.961 14.1895C664.59 14.4889 664.141 14.7331 663.613 14.9219C663.086 15.1042 662.477 15.1953 661.787 15.1953ZM670.381 6.5918V15H667.803V4.43359H670.244L670.381 6.5918ZM673.594 4.36523L673.555 6.76758C673.411 6.74154 673.249 6.72201 673.066 6.70898C672.891 6.69596 672.725 6.68945 672.568 6.68945C672.171 6.68945 671.823 6.74479 671.523 6.85547C671.224 6.95964 670.973 7.11263 670.771 7.31445C670.576 7.51628 670.426 7.76367 670.322 8.05664C670.218 8.3431 670.16 8.66862 670.146 9.0332L669.59 8.96484C669.59 8.29427 669.658 7.67253 669.795 7.09961C669.932 6.52669 670.13 6.02539 670.391 5.5957C670.651 5.16602 670.977 4.83398 671.367 4.59961C671.764 4.35872 672.22 4.23828 672.734 4.23828C672.878 4.23828 673.031 4.2513 673.193 4.27734C673.363 4.29688 673.496 4.32617 673.594 4.36523ZM680.498 4.43359V6.28906H674.443V4.43359H680.498ZM676.064 1.83594H678.652V11.9531C678.652 12.2656 678.695 12.5065 678.779 12.6758C678.864 12.8451 678.991 12.959 679.16 13.0176C679.329 13.0762 679.531 13.1055 679.766 13.1055C679.935 13.1055 680.091 13.0957 680.234 13.0762C680.378 13.0566 680.498 13.0371 680.596 13.0176L680.605 14.9512C680.391 15.0228 680.146 15.0814 679.873 15.127C679.606 15.1725 679.303 15.1953 678.965 15.1953C678.385 15.1953 677.878 15.0977 677.441 14.9023C677.005 14.7005 676.667 14.3783 676.426 13.9355C676.185 13.4863 676.064 12.8939 676.064 12.1582V1.83594ZM684.951 4.43359V15H682.363V4.43359H684.951ZM682.188 1.66992C682.188 1.28581 682.318 0.966797 682.578 0.712891C682.845 0.458984 683.203 0.332031 683.652 0.332031C684.102 0.332031 684.456 0.458984 684.717 0.712891C684.984 0.966797 685.117 1.28581 685.117 1.66992C685.117 2.04753 684.984 2.36328 684.717 2.61719C684.456 2.87109 684.102 2.99805 683.652 2.99805C683.203 2.99805 682.845 2.87109 682.578 2.61719C682.318 2.36328 682.188 2.04753 682.188 1.66992ZM693.75 12.7539V0H696.348V15H694.004L693.75 12.7539ZM686.963 9.84375V9.63867C686.963 8.83138 687.054 8.09896 687.236 7.44141C687.425 6.77734 687.699 6.20768 688.057 5.73242C688.415 5.25716 688.848 4.88932 689.355 4.62891C689.87 4.36849 690.452 4.23828 691.104 4.23828C691.735 4.23828 692.285 4.36523 692.754 4.61914C693.229 4.87305 693.633 5.23438 693.965 5.70312C694.303 6.17188 694.574 6.72852 694.775 7.37305C694.977 8.01107 695.124 8.71419 695.215 9.48242V10.0391C695.124 10.7878 694.977 11.4746 694.775 12.0996C694.574 12.7246 694.303 13.2715 693.965 13.7402C693.633 14.2025 693.229 14.5605 692.754 14.8145C692.279 15.0684 691.722 15.1953 691.084 15.1953C690.439 15.1953 689.86 15.0618 689.346 14.7949C688.838 14.528 688.405 14.1536 688.047 13.6719C687.695 13.1901 687.425 12.6237 687.236 11.9727C687.054 11.3216 686.963 10.612 686.963 9.84375ZM689.551 9.63867V9.84375C689.551 10.2995 689.59 10.7259 689.668 11.123C689.746 11.5202 689.873 11.8717 690.049 12.1777C690.225 12.4772 690.449 12.7116 690.723 12.8809C691.003 13.0501 691.341 13.1348 691.738 13.1348C692.246 13.1348 692.663 13.0241 692.988 12.8027C693.32 12.5749 693.577 12.2656 693.76 11.875C693.942 11.4779 694.059 11.0319 694.111 10.5371V9.00391C694.085 8.61328 694.017 8.25195 693.906 7.91992C693.802 7.58789 693.652 7.30143 693.457 7.06055C693.268 6.81966 693.034 6.63086 692.754 6.49414C692.474 6.35742 692.142 6.28906 691.758 6.28906C691.361 6.28906 691.022 6.37695 690.742 6.55273C690.462 6.72201 690.234 6.95964 690.059 7.26562C689.883 7.57161 689.753 7.92643 689.668 8.33008C689.59 8.73372 689.551 9.16992 689.551 9.63867ZM698.223 9.82422V9.61914C698.223 8.8444 698.333 8.13151 698.555 7.48047C698.776 6.82292 699.098 6.25326 699.521 5.77148C699.945 5.28971 700.462 4.91536 701.074 4.64844C701.686 4.375 702.383 4.23828 703.164 4.23828C703.958 4.23828 704.661 4.375 705.273 4.64844C705.892 4.91536 706.413 5.28971 706.836 5.77148C707.259 6.25326 707.581 6.82292 707.803 7.48047C708.024 8.13151 708.135 8.8444 708.135 9.61914V9.82422C708.135 10.5924 708.024 11.3053 707.803 11.9629C707.581 12.6139 707.259 13.1836 706.836 13.6719C706.413 14.1536 705.895 14.528 705.283 14.7949C704.671 15.0618 703.971 15.1953 703.184 15.1953C702.402 15.1953 701.702 15.0618 701.084 14.7949C700.465 14.528 699.945 14.1536 699.521 13.6719C699.098 13.1836 698.776 12.6139 698.555 11.9629C698.333 11.3053 698.223 10.5924 698.223 9.82422ZM700.801 9.61914V9.82422C700.801 10.2865 700.846 10.7194 700.938 11.123C701.029 11.5267 701.169 11.8815 701.357 12.1875C701.546 12.4935 701.79 12.7344 702.09 12.9102C702.396 13.0794 702.76 13.1641 703.184 13.1641C703.6 13.1641 703.958 13.0794 704.258 12.9102C704.557 12.7344 704.801 12.4935 704.99 12.1875C705.186 11.8815 705.329 11.5267 705.42 11.123C705.511 10.7194 705.557 10.2865 705.557 9.82422V9.61914C705.557 9.16341 705.511 8.73698 705.42 8.33984C705.329 7.9362 705.186 7.58138 704.99 7.27539C704.801 6.96289 704.554 6.71875 704.248 6.54297C703.949 6.36068 703.587 6.26953 703.164 6.26953C702.747 6.26953 702.389 6.36068 702.09 6.54297C701.79 6.71875 701.546 6.96289 701.357 7.27539C701.169 7.58138 701.029 7.9362 700.938 8.33984C700.846 8.73698 700.801 9.16341 700.801 9.61914ZM719.326 13.1641C719.691 13.1641 720.016 13.0924 720.303 12.9492C720.589 12.806 720.817 12.6042 720.986 12.3438C721.162 12.0833 721.257 11.7806 721.27 11.4355H723.701C723.688 12.1517 723.486 12.793 723.096 13.3594C722.705 13.9258 722.184 14.375 721.533 14.707C720.889 15.0326 720.166 15.1953 719.365 15.1953C718.551 15.1953 717.842 15.0586 717.236 14.7852C716.631 14.5117 716.126 14.1309 715.723 13.6426C715.326 13.1543 715.026 12.5879 714.824 11.9434C714.629 11.2988 714.531 10.6087 714.531 9.87305V9.56055C714.531 8.82487 714.629 8.13477 714.824 7.49023C715.026 6.8457 715.326 6.2793 715.723 5.79102C716.126 5.30273 716.631 4.92188 717.236 4.64844C717.842 4.375 718.548 4.23828 719.355 4.23828C720.208 4.23828 720.957 4.4043 721.602 4.73633C722.253 5.06836 722.76 5.53711 723.125 6.14258C723.496 6.74805 723.688 7.46094 723.701 8.28125H721.27C721.257 7.90365 721.172 7.5651 721.016 7.26562C720.859 6.96615 720.638 6.72526 720.352 6.54297C720.065 6.36068 719.717 6.26953 719.307 6.26953C718.87 6.26953 718.506 6.36068 718.213 6.54297C717.926 6.72526 717.702 6.97591 717.539 7.29492C717.383 7.60742 717.272 7.95898 717.207 8.34961C717.148 8.73372 717.119 9.13737 717.119 9.56055V9.87305C717.119 10.3027 717.148 10.7129 717.207 11.1035C717.272 11.4941 717.383 11.8457 717.539 12.1582C717.702 12.4642 717.926 12.7083 718.213 12.8906C718.506 13.0729 718.877 13.1641 719.326 13.1641ZM724.961 9.82422V9.61914C724.961 8.8444 725.072 8.13151 725.293 7.48047C725.514 6.82292 725.837 6.25326 726.26 5.77148C726.683 5.28971 727.201 4.91536 727.812 4.64844C728.424 4.375 729.121 4.23828 729.902 4.23828C730.697 4.23828 731.4 4.375 732.012 4.64844C732.63 4.91536 733.151 5.28971 733.574 5.77148C733.997 6.25326 734.32 6.82292 734.541 7.48047C734.762 8.13151 734.873 8.8444 734.873 9.61914V9.82422C734.873 10.5924 734.762 11.3053 734.541 11.9629C734.32 12.6139 733.997 13.1836 733.574 13.6719C733.151 14.1536 732.633 14.528 732.021 14.7949C731.41 15.0618 730.71 15.1953 729.922 15.1953C729.141 15.1953 728.441 15.0618 727.822 14.7949C727.204 14.528 726.683 14.1536 726.26 13.6719C725.837 13.1836 725.514 12.6139 725.293 11.9629C725.072 11.3053 724.961 10.5924 724.961 9.82422ZM727.539 9.61914V9.82422C727.539 10.2865 727.585 10.7194 727.676 11.123C727.767 11.5267 727.907 11.8815 728.096 12.1875C728.285 12.4935 728.529 12.7344 728.828 12.9102C729.134 13.0794 729.499 13.1641 729.922 13.1641C730.339 13.1641 730.697 13.0794 730.996 12.9102C731.296 12.7344 731.54 12.4935 731.729 12.1875C731.924 11.8815 732.067 11.5267 732.158 11.123C732.249 10.7194 732.295 10.2865 732.295 9.82422V9.61914C732.295 9.16341 732.249 8.73698 732.158 8.33984C732.067 7.9362 731.924 7.58138 731.729 7.27539C731.54 6.96289 731.292 6.71875 730.986 6.54297C730.687 6.36068 730.326 6.26953 729.902 6.26953C729.486 6.26953 729.128 6.36068 728.828 6.54297C728.529 6.71875 728.285 6.96289 728.096 7.27539C727.907 7.58138 727.767 7.9362 727.676 8.33984C727.585 8.73698 727.539 9.16341 727.539 9.61914ZM739.316 6.60156V15H736.738V4.43359H739.17L739.316 6.60156ZM738.936 9.33594H738.145C738.145 8.60026 738.232 7.92318 738.408 7.30469C738.59 6.6862 738.857 6.14909 739.209 5.69336C739.561 5.23112 739.993 4.87305 740.508 4.61914C741.029 4.36523 741.631 4.23828 742.314 4.23828C742.79 4.23828 743.226 4.3099 743.623 4.45312C744.02 4.58984 744.362 4.80794 744.648 5.10742C744.941 5.40039 745.166 5.78451 745.322 6.25977C745.479 6.72852 745.557 7.29167 745.557 7.94922V15H742.979V8.21289C742.979 7.7181 742.907 7.33073 742.764 7.05078C742.627 6.77083 742.428 6.57552 742.168 6.46484C741.908 6.34766 741.595 6.28906 741.23 6.28906C740.827 6.28906 740.479 6.37044 740.186 6.5332C739.899 6.68945 739.661 6.90755 739.473 7.1875C739.29 7.46745 739.154 7.78971 739.062 8.1543C738.978 8.51888 738.936 8.91276 738.936 9.33594ZM745.361 8.85742L744.297 9.05273C744.303 8.38867 744.395 7.76693 744.57 7.1875C744.746 6.60156 745.003 6.09049 745.342 5.6543C745.687 5.21159 746.113 4.86654 746.621 4.61914C747.135 4.36523 747.728 4.23828 748.398 4.23828C748.919 4.23828 749.388 4.31315 749.805 4.46289C750.228 4.60612 750.589 4.83724 750.889 5.15625C751.188 5.46875 751.416 5.87565 751.572 6.37695C751.735 6.87826 751.816 7.49023 751.816 8.21289V15H749.219V8.20312C749.219 7.6888 749.147 7.29492 749.004 7.02148C748.867 6.74805 748.669 6.55924 748.408 6.45508C748.148 6.3444 747.842 6.28906 747.49 6.28906C747.132 6.28906 746.82 6.35742 746.553 6.49414C746.292 6.62435 746.071 6.80664 745.889 7.04102C745.713 7.27539 745.579 7.54883 745.488 7.86133C745.404 8.16732 745.361 8.49935 745.361 8.85742ZM768.74 6.65039V8.75977H761.26V6.65039H768.74ZM761.992 0.78125V15H759.307V0.78125H761.992ZM770.732 0.78125V15H768.047V0.78125H770.732ZM779.277 0.78125V15H776.602V0.78125H779.277ZM783.691 0.78125V2.90039H772.236V0.78125H783.691ZM786.65 0.78125H788.975L792.861 11.4844L796.738 0.78125H799.072L793.789 15H791.924L786.65 0.78125ZM785.479 0.78125H787.754L788.164 10.6152V15H785.479V0.78125ZM797.959 0.78125H800.244V15H797.559V10.6152L797.959 0.78125ZM812.002 12.8906V15H804.854V12.8906H812.002ZM805.664 0.78125V15H802.979V0.78125H805.664ZM823.33 15.1953C822.529 15.1953 821.81 15.0651 821.172 14.8047C820.534 14.5443 819.99 14.1829 819.541 13.7207C819.098 13.252 818.757 12.7083 818.516 12.0898C818.281 11.4648 818.164 10.7943 818.164 10.0781V9.6875C818.164 8.8737 818.281 8.13477 818.516 7.4707C818.75 6.80013 819.082 6.22396 819.512 5.74219C819.941 5.26042 820.456 4.88932 821.055 4.62891C821.654 4.36849 822.314 4.23828 823.037 4.23828C823.786 4.23828 824.447 4.36523 825.02 4.61914C825.592 4.86654 826.071 5.2181 826.455 5.67383C826.839 6.12956 827.129 6.67643 827.324 7.31445C827.52 7.94596 827.617 8.64583 827.617 9.41406V10.498H819.336V8.7207H825.078V8.52539C825.065 8.11523 824.987 7.74089 824.844 7.40234C824.701 7.05729 824.479 6.78385 824.18 6.58203C823.88 6.3737 823.493 6.26953 823.018 6.26953C822.633 6.26953 822.298 6.35417 822.012 6.52344C821.732 6.6862 821.497 6.92057 821.309 7.22656C821.126 7.52604 820.99 7.88411 820.898 8.30078C820.807 8.71745 820.762 9.17969 820.762 9.6875V10.0781C820.762 10.5208 820.82 10.931 820.938 11.3086C821.061 11.6862 821.24 12.015 821.475 12.2949C821.715 12.5684 822.002 12.7832 822.334 12.9395C822.673 13.0892 823.057 13.1641 823.486 13.1641C824.027 13.1641 824.515 13.0599 824.951 12.8516C825.394 12.6367 825.778 12.321 826.104 11.9043L827.402 13.252C827.181 13.5775 826.882 13.89 826.504 14.1895C826.133 14.4889 825.684 14.7331 825.156 14.9219C824.629 15.1042 824.02 15.1953 823.33 15.1953ZM842.842 10.3223H845.527C845.456 11.2728 845.192 12.1159 844.736 12.8516C844.281 13.5807 843.646 14.1536 842.832 14.5703C842.018 14.987 841.032 15.1953 839.873 15.1953C838.981 15.1953 838.177 15.0391 837.461 14.7266C836.751 14.4076 836.143 13.9551 835.635 13.3691C835.133 12.7767 834.749 12.0671 834.482 11.2402C834.215 10.4069 834.082 9.47266 834.082 8.4375V7.35352C834.082 6.31836 834.219 5.38411 834.492 4.55078C834.766 3.71745 835.156 3.00781 835.664 2.42188C836.178 1.82943 836.794 1.3737 837.51 1.05469C838.232 0.735677 839.04 0.576172 839.932 0.576172C841.09 0.576172 842.07 0.791016 842.871 1.2207C843.672 1.64388 844.294 2.22656 844.736 2.96875C845.179 3.71094 845.446 4.5638 845.537 5.52734H842.852C842.799 4.92839 842.669 4.42057 842.461 4.00391C842.259 3.58724 841.953 3.27148 841.543 3.05664C841.139 2.83529 840.602 2.72461 839.932 2.72461C839.411 2.72461 838.952 2.82227 838.555 3.01758C838.164 3.21289 837.839 3.50586 837.578 3.89648C837.318 4.2806 837.122 4.76237 836.992 5.3418C836.862 5.91471 836.797 6.57878 836.797 7.33398V8.4375C836.797 9.16016 836.855 9.80794 836.973 10.3809C837.09 10.9538 837.272 11.4388 837.52 11.8359C837.767 12.2331 838.086 12.5358 838.477 12.7441C838.867 12.9525 839.333 13.0566 839.873 13.0566C840.531 13.0566 841.064 12.9525 841.475 12.7441C841.891 12.5358 842.207 12.2298 842.422 11.8262C842.643 11.4225 842.783 10.9212 842.842 10.3223ZM855.049 11.3086C855.049 11.0352 855.007 10.791 854.922 10.5762C854.844 10.3548 854.697 10.1562 854.482 9.98047C854.274 9.79818 853.978 9.6224 853.594 9.45312C853.216 9.27734 852.728 9.09505 852.129 8.90625C851.465 8.69792 850.846 8.46354 850.273 8.20312C849.701 7.94271 849.196 7.63997 848.76 7.29492C848.33 6.94987 847.995 6.55273 847.754 6.10352C847.513 5.64779 847.393 5.12044 847.393 4.52148C847.393 3.93555 847.516 3.40169 847.764 2.91992C848.018 2.43815 848.376 2.02474 848.838 1.67969C849.3 1.32812 849.844 1.05794 850.469 0.869141C851.1 0.680339 851.797 0.585938 852.559 0.585938C853.613 0.585938 854.525 0.777995 855.293 1.16211C856.068 1.54622 856.667 2.06706 857.09 2.72461C857.513 3.38216 857.725 4.12109 857.725 4.94141H855.049C855.049 4.4987 854.954 4.10807 854.766 3.76953C854.583 3.43099 854.303 3.16406 853.926 2.96875C853.555 2.77344 853.086 2.67578 852.52 2.67578C851.973 2.67578 851.517 2.75716 851.152 2.91992C850.794 3.08268 850.524 3.30404 850.342 3.58398C850.166 3.86393 850.078 4.17643 850.078 4.52148C850.078 4.7819 850.14 5.01628 850.264 5.22461C850.387 5.42643 850.573 5.61849 850.82 5.80078C851.068 5.97656 851.374 6.14258 851.738 6.29883C852.109 6.44857 852.539 6.59831 853.027 6.74805C853.809 6.98242 854.492 7.24284 855.078 7.5293C855.671 7.81576 856.162 8.14128 856.553 8.50586C856.95 8.87044 857.246 9.2806 857.441 9.73633C857.643 10.1921 857.744 10.7096 857.744 11.2891C857.744 11.901 857.624 12.4479 857.383 12.9297C857.142 13.4115 856.797 13.8216 856.348 14.1602C855.898 14.4987 855.358 14.7559 854.727 14.9316C854.102 15.1074 853.402 15.1953 852.627 15.1953C851.937 15.1953 851.253 15.1042 850.576 14.9219C849.906 14.7331 849.297 14.4531 848.75 14.082C848.203 13.7044 847.767 13.2292 847.441 12.6562C847.116 12.0768 846.953 11.3997 846.953 10.625H849.648C849.648 11.0742 849.72 11.4583 849.863 11.7773C850.013 12.0898 850.221 12.347 850.488 12.5488C850.762 12.7441 851.081 12.8874 851.445 12.9785C851.81 13.0697 852.204 13.1152 852.627 13.1152C853.174 13.1152 853.623 13.0404 853.975 12.8906C854.333 12.7344 854.6 12.5195 854.775 12.2461C854.958 11.9727 855.049 11.6602 855.049 11.3086ZM867.256 11.3086C867.256 11.0352 867.214 10.791 867.129 10.5762C867.051 10.3548 866.904 10.1562 866.689 9.98047C866.481 9.79818 866.185 9.6224 865.801 9.45312C865.423 9.27734 864.935 9.09505 864.336 8.90625C863.672 8.69792 863.053 8.46354 862.48 8.20312C861.908 7.94271 861.403 7.63997 860.967 7.29492C860.537 6.94987 860.202 6.55273 859.961 6.10352C859.72 5.64779 859.6 5.12044 859.6 4.52148C859.6 3.93555 859.723 3.40169 859.971 2.91992C860.225 2.43815 860.583 2.02474 861.045 1.67969C861.507 1.32812 862.051 1.05794 862.676 0.869141C863.307 0.680339 864.004 0.585938 864.766 0.585938C865.82 0.585938 866.732 0.777995 867.5 1.16211C868.275 1.54622 868.874 2.06706 869.297 2.72461C869.72 3.38216 869.932 4.12109 869.932 4.94141H867.256C867.256 4.4987 867.161 4.10807 866.973 3.76953C866.79 3.43099 866.51 3.16406 866.133 2.96875C865.762 2.77344 865.293 2.67578 864.727 2.67578C864.18 2.67578 863.724 2.75716 863.359 2.91992C863.001 3.08268 862.731 3.30404 862.549 3.58398C862.373 3.86393 862.285 4.17643 862.285 4.52148C862.285 4.7819 862.347 5.01628 862.471 5.22461C862.594 5.42643 862.78 5.61849 863.027 5.80078C863.275 5.97656 863.581 6.14258 863.945 6.29883C864.316 6.44857 864.746 6.59831 865.234 6.74805C866.016 6.98242 866.699 7.24284 867.285 7.5293C867.878 7.81576 868.369 8.14128 868.76 8.50586C869.157 8.87044 869.453 9.2806 869.648 9.73633C869.85 10.1921 869.951 10.7096 869.951 11.2891C869.951 11.901 869.831 12.4479 869.59 12.9297C869.349 13.4115 869.004 13.8216 868.555 14.1602C868.105 14.4987 867.565 14.7559 866.934 14.9316C866.309 15.1074 865.609 15.1953 864.834 15.1953C864.144 15.1953 863.46 15.1042 862.783 14.9219C862.113 14.7331 861.504 14.4531 860.957 14.082C860.41 13.7044 859.974 13.2292 859.648 12.6562C859.323 12.0768 859.16 11.3997 859.16 10.625H861.855C861.855 11.0742 861.927 11.4583 862.07 11.7773C862.22 12.0898 862.428 12.347 862.695 12.5488C862.969 12.7441 863.288 12.8874 863.652 12.9785C864.017 13.0697 864.411 13.1152 864.834 13.1152C865.381 13.1152 865.83 13.0404 866.182 12.8906C866.54 12.7344 866.807 12.5195 866.982 12.2461C867.165 11.9727 867.256 11.6602 867.256 11.3086Z" fill="black"/>
</svg>
